<?xml version="1.0" encoding="utf-8" standalone="yes"?>
<!DOCTYPE svg PUBLIC "-//W3C//DTD SVG 1.1//EN" "http://www.w3.org/Graphics/SVG/1.1/DTD/svg11.dtd">
<svg width="742" height="774" viewBox="0 0 742 774" style="fill:none;stroke:none;fill-rule:evenodd;clip-rule:evenodd;stroke-linecap:round;stroke-linejoin:round;stroke-miterlimit:1.5;" version="1.1" xmlns="http://www.w3.org/2000/svg" xmlns:xlink="http://www.w3.org/1999/xlink"><style id="fontImports">@import url("https://fonts.googleapis.com/css2?family=Roboto:wght@400;700&amp;display=block");</style><rect id="" x="0" y="0" width="742" height="774" style="fill: #2c2c2c;"></rect><g id="items" style="isolation: isolate"><g id="blend" style="mix-blend-mode:normal"><g id="g-root-ro_zjfhpk1dzncw1-fill" data-item-order="999976960" data-item-id="ro_zjfhpk1dzncw1" data-item-class="Shape Stroke Fill" data-item-index="none" data-renderer-id="0" transform="translate(303, 3)"><g id="ro_zjfhpk1dzncw1-fill" stroke="none" fill="#224754"><g><path d="M 22 10L 190 10C 190 10 202 10 202 22L 202 118C 202 118 202 130 190 130L 22 130C 22 130 10 130 10 118L 10 22C 10 22 10 10 22 10"></path></g></g></g><g id="g-root-ro_92re5k1dzdi4q-fill" data-item-order="999976960" data-item-id="ro_92re5k1dzdi4q" data-item-class="Shape Stroke Fill" data-item-index="none" data-renderer-id="0" transform="translate(303, 515)"><g id="ro_92re5k1dzdi4q-fill" stroke="none" fill="#224754"><g><path d="M 22 10L 190 10C 190 10 202 10 202 22L 202 118C 202 118 202 130 190 130L 22 130C 22 130 10 130 10 118L 10 22C 10 22 10 10 22 10"></path></g></g></g><g id="g-root-ro_zrjxbc1dz7w1y-fill" data-item-order="999976960" data-item-id="ro_zrjxbc1dz7w1y" data-item-class="Shape Stroke Fill" data-item-index="none" data-renderer-id="0" transform="translate(303, 375)"><g id="ro_zrjxbc1dz7w1y-fill" stroke="none" fill="#224754"><g><path d="M 22 10L 190 10C 190 10 202 10 202 22L 202 118C 202 118 202 130 190 130L 22 130C 22 130 10 130 10 118L 10 22C 10 22 10 10 22 10"></path></g></g></g><g id="g-root-ro_18n6r8o1dzaqks-fill" data-item-order="999976960" data-item-id="ro_18n6r8o1dzaqks" data-item-class="Shape Stroke Fill" data-item-index="none" data-renderer-id="0" transform="translate(303, 143)"><g id="ro_18n6r8o1dzaqks-fill" stroke="none" fill="#224754"><g><path d="M 22 10L 190 10C 190 10 202 10 202 22L 202 118C 202 118 202 130 190 130L 22 130C 22 130 10 130 10 118L 10 22C 10 22 10 10 22 10"></path></g></g></g><g id="g-root-ro_zqavzc1dzq6tk-fill" data-item-order="999979264" data-item-id="ro_zqavzc1dzq6tk" data-item-class="Shape Stroke Fill" data-item-index="none" data-renderer-id="0" transform="translate(3, 545.39990234375)"><g id="ro_zqavzc1dzq6tk-fill" stroke="none" fill="#505050"><g><path d="M 22 10L 214 10C 214 10 226 10 226 22L 226 94C 226 94 226 106 214 106L 22 106C 22 106 10 106 10 94L 10 22C 10 22 10 10 22 10"></path></g></g></g><g id="g-root-ro_4ike3s1dzdjb5-fill" data-item-order="999979264" data-item-id="ro_4ike3s1dzdjb5" data-item-class="Shape Stroke Fill" data-item-index="none" data-renderer-id="0" transform="translate(3, 85)"><g id="ro_4ike3s1dzdjb5-fill" stroke="none" fill="#505050"><g><path d="M 22 10L 214 10C 214 10 226 10 226 22L 226 94C 226 94 226 106 214 106L 22 106C 22 106 10 106 10 94L 10 22C 10 22 10 10 22 10"></path></g></g></g><g id="g-root-ro_1ly0siw1dzsyko-fill" data-item-order="999979264" data-item-id="ro_1ly0siw1dzsyko" data-item-class="Shape Stroke Fill" data-item-index="none" data-renderer-id="0" transform="translate(3, 341.39990234375)"><g id="ro_1ly0siw1dzsyko-fill" stroke="none" fill="#505050"><g><path d="M 22 10L 214 10C 214 10 226 10 226 22L 226 94C 226 94 226 106 214 106L 22 106C 22 106 10 106 10 94L 10 22C 10 22 10 10 22 10"></path></g></g></g><g id="g-root-ro_147zwiw1dzc4r1-fill" data-item-order="999981568" data-item-id="ro_147zwiw1dzc4r1" data-item-class="Shape Stroke Fill" data-item-index="none" data-renderer-id="0" transform="translate(303, 655)"><g id="ro_147zwiw1dzc4r1-fill" stroke="none" fill="#224754"><g><path d="M 22 10L 190 10C 190 10 202 10 202 22L 202 94C 202 94 202 106 190 106L 22 106C 22 106 10 106 10 94L 10 22C 10 22 10 10 22 10"></path></g></g></g><g id="g-root-ro_1lpwpk81dzj4zs-fill" data-item-order="999986176" data-item-id="ro_1lpwpk81dzj4zs" data-item-class="Shape Stroke Fill" data-item-index="none" data-renderer-id="0" transform="translate(303, 283)"><g id="ro_1lpwpk81dzj4zs-fill" stroke="none" fill="#224754"><g><path d="M 22 10L 190 10C 190 10 202 10 202 22L 202 70C 202 70 202 82 190 82L 22 82C 22 82 10 82 10 70L 10 22C 10 22 10 10 22 10"></path></g></g></g><g id="g-root-ro_qn66p41dzndvm-fill" data-item-order="999990928" data-item-id="ro_qn66p41dzndvm" data-item-class="Shape Stroke Fill" data-item-index="none" data-renderer-id="0" transform="translate(551, 618)"><g id="ro_qn66p41dzndvm-fill" stroke="none" fill="#224754"><g><path d="M 22 10L 166 10C 166 10 178 10 178 22L 178 52C 178 52 178 64 166 64L 22 64C 22 64 10 64 10 52L 10 22C 10 22 10 10 22 10"></path></g></g></g><g id="g-root-ro_qqagyw1dzkjyf-fill" data-item-order="999990928" data-item-id="ro_qqagyw1dzkjyf" data-item-class="Shape Stroke Fill" data-item-index="none" data-renderer-id="0" transform="translate(551, 246)"><g id="ro_qqagyw1dzkjyf-fill" stroke="none" fill="#224754"><g><path d="M 22 10L 166 10C 166 10 178 10 178 22L 178 52C 178 52 178 64 166 64L 22 64C 22 64 10 64 10 52L 10 22C 10 22 10 10 22 10"></path></g></g></g><g id="g-root-chec_v98foo1dzdiwx-fill" data-item-order="1000000000" data-item-id="chec_v98foo1dzdiwx" data-item-class="Icon Stroke" data-item-index="none" data-renderer-id="0" transform="translate(315, 560)"></g><g id="g-root-a_1lyn9m01dzaozv-fill" data-item-order="1000000000" data-item-id="a_1lyn9m01dzaozv" data-item-class="Icon Stroke" data-item-index="none" data-renderer-id="0" transform="translate(315, 188)"></g><g id="g-root-1_18gy0dk1dzkkr2-fill" data-item-order="1000000000" data-item-id="1_18gy0dk1dzkkr2" data-item-class="Icon Stroke" data-item-index="none" data-renderer-id="0" transform="translate(563, 258)"></g><g id="g-root-draw_1d1reco1dzq58n-fill" data-item-order="1000000000" data-item-id="draw_1d1reco1dzq58n" data-item-class="Icon Stroke" data-item-index="none" data-renderer-id="0" transform="translate(15, 578.39990234375)"></g><g id="g-root-bars_13z8zu01dznc3s-fill" data-item-order="1000000000" data-item-id="bars_13z8zu01dznc3s" data-item-class="Icon Stroke" data-item-index="none" data-renderer-id="0" transform="translate(315, 48)"></g><g id="g-root-tx_autnomo_1uo1izs1dzkidh-fill" data-item-order="1000000000" data-item-id="tx_autnomo_1uo1izs1dzkidh" data-item-class="Label Stroke" data-item-index="none" data-renderer-id="0" transform="translate(599, 261)"><g id="tx_autnomo_1uo1izs1dzkidh-fill" stroke="none" fill="#1AC6FF"><g><text style="font: 20px Roboto, sans-serif; white-space: pre;" font-weight="20px" font-size="Roboto," font-family="sans-serif"><tspan x="12" y="34" dominant-baseline="ideographic">Autónomo</tspan></text></g></g></g><g id="g-root-tx_diseoexp_9409601dzapz6-fill" data-item-order="1000000000" data-item-id="tx_diseoexp_9409601dzapz6" data-item-class="Label Stroke" data-item-index="none" data-renderer-id="0" transform="translate(351, 155)"><g id="tx_diseoexp_9409601dzapz6-fill" stroke="none" fill="#1AC6FF"><g><text style="font: 20px Roboto, sans-serif; white-space: pre;" font-weight="20px" font-size="Roboto," font-family="sans-serif"><tspan x="12" y="34" dominant-baseline="ideographic">Diseño </tspan><tspan x="12" y="58" dominant-baseline="ideographic">experiencias </tspan><tspan x="12" y="82" dominant-baseline="ideographic">de </tspan><tspan x="12" y="106" dominant-baseline="ideographic">aprendizaje</tspan></text></g></g></g><g id="g-root-1_1q5q7oo1dzj47j-fill" data-item-order="1000000000" data-item-id="1_1q5q7oo1dzj47j" data-item-class="Icon Stroke" data-item-index="none" data-renderer-id="0" transform="translate(315, 304)"></g><g id="g-root-tx_propongo_4pfsdk1dzhrf2-fill" data-item-order="1000000000" data-item-id="tx_propongo_4pfsdk1dzhrf2" data-item-class="Label Stroke" data-item-index="none" data-renderer-id="0" transform="translate(351, 295)"><g id="tx_propongo_4pfsdk1dzhrf2-fill" stroke="none" fill="#1AC6FF"><g><text style="font: 20px Roboto, sans-serif; white-space: pre;" font-weight="20px" font-size="Roboto," font-family="sans-serif"><tspan x="12" y="34" dominant-baseline="ideographic">Propongo </tspan><tspan x="12" y="58" dominant-baseline="ideographic">mejoras</tspan></text></g></g></g><g id="g-root-tx_desarrol_1uuag6g1dzc4qz-fill" data-item-order="1000000000" data-item-id="tx_desarrol_1uuag6g1dzc4qz" data-item-class="Label Stroke" data-item-index="none" data-renderer-id="0" transform="translate(351, 667)"><g id="tx_desarrol_1uuag6g1dzc4qz-fill" stroke="none" fill="#1AC6FF"><g><text style="font: 20px Roboto, sans-serif; white-space: pre;" font-weight="20px" font-size="Roboto," font-family="sans-serif"><tspan x="12" y="34" dominant-baseline="ideographic">Desarrollo </tspan><tspan x="12" y="58" dominant-baseline="ideographic">un </tspan><tspan x="12" y="82" dominant-baseline="ideographic">repositorio</tspan></text></g></g></g><g id="g-root-tx_analizop_1ha31481dzndon-fill" data-item-order="1000000000" data-item-id="tx_analizop_1ha31481dzndon" data-item-class="Label Stroke" data-item-index="none" data-renderer-id="0" transform="translate(351, 15)"><g id="tx_analizop_1ha31481dzndon-fill" stroke="none" fill="#1AC6FF"><g><text style="font: 20px Roboto, sans-serif; white-space: pre;" font-weight="20px" font-size="Roboto," font-family="sans-serif"><tspan x="12" y="34" dominant-baseline="ideographic">Analizo </tspan><tspan x="12" y="58" dominant-baseline="ideographic">problemas </tspan><tspan x="12" y="82" dominant-baseline="ideographic">de análisis </tspan><tspan x="12" y="106" dominant-baseline="ideographic">de datos</tspan></text></g></g></g><g id="g-root-tx_competen_qu1bhk1dzt0cm-fill" data-item-order="1000000000" data-item-id="tx_competen_qu1bhk1dzt0cm" data-item-class="Label Stroke" data-item-index="none" data-renderer-id="0" transform="translate(51, 353.39990234375)"><g id="tx_competen_qu1bhk1dzt0cm-fill" stroke="none" fill="#A3A3A3"><g><text style="font: 20px Roboto, sans-serif; white-space: pre;" font-weight="20px" font-size="Roboto," font-family="sans-serif"><tspan x="12" y="34" dominant-baseline="ideographic">Competencia </tspan><tspan x="12" y="58" dominant-baseline="ideographic">de análisis </tspan><tspan x="12" y="82" dominant-baseline="ideographic">crítico</tspan></text></g></g></g><g id="g-root-docu_4nk9yg1dzszkf-fill" data-item-order="1000000000" data-item-id="docu_4nk9yg1dzszkf" data-item-class="Icon Stroke" data-item-index="none" data-renderer-id="0" transform="translate(15, 374.39990234375)"></g><g id="g-root-logo_8ydw881dzdiiw-fill" data-item-order="1000000000" data-item-id="logo_8ydw881dzdiiw" data-item-class="Icon Stroke" data-item-index="none" data-renderer-id="0" transform="translate(15, 118)"></g><g id="g-root-plan_13ymp2g1dzncap-fill" data-item-order="1000000000" data-item-id="plan_13ymp2g1dzncap" data-item-class="Icon Stroke" data-item-index="none" data-renderer-id="0" transform="translate(563, 630)"></g><g id="g-root-tx_sistemat_4nkga01dz7xtw-fill" data-item-order="1000000000" data-item-id="tx_sistemat_4nkga01dz7xtw" data-item-class="Label Stroke" data-item-index="none" data-renderer-id="0" transform="translate(351, 387)"><g id="tx_sistemat_4nkga01dz7xtw-fill" stroke="none" fill="#1AC6FF"><g><text style="font: 20px Roboto, sans-serif; white-space: pre;" font-weight="20px" font-size="Roboto," font-family="sans-serif"><tspan x="12" y="34" dominant-baseline="ideographic">Sistematizo </tspan><tspan x="12" y="58" dominant-baseline="ideographic">mis </tspan><tspan x="12" y="82" dominant-baseline="ideographic">experiencias </tspan><tspan x="12" y="106" dominant-baseline="ideographic">educativas</tspan></text></g></g></g><g id="g-root-1_1d2dylk1dz7xmt-fill" data-item-order="1000000000" data-item-id="1_1d2dylk1dz7xmt" data-item-class="Icon Stroke" data-item-index="none" data-renderer-id="0" transform="translate(315, 420)"></g><g id="g-root-git_1hjgew81dzc364-fill" data-item-order="1000000000" data-item-id="git_1hjgew81dzc364" data-item-class="Icon Stroke" data-item-index="none" data-renderer-id="0" transform="translate(315, 688)"></g><g id="g-root-tx_competen_qp1fmw1dzdjbj-fill" data-item-order="1000000000" data-item-id="tx_competen_qp1fmw1dzdjbj" data-item-class="Label Stroke" data-item-index="none" data-renderer-id="0" transform="translate(51, 97)"><g id="tx_competen_qp1fmw1dzdjbj-fill" stroke="none" fill="#A3A3A3"><g><text style="font: 20px Roboto, sans-serif; white-space: pre;" font-weight="20px" font-size="Roboto," font-family="sans-serif"><tspan x="12" y="34" dominant-baseline="ideographic">Competencia </tspan><tspan x="12" y="58" dominant-baseline="ideographic">de diseño e </tspan><tspan x="12" y="82" dominant-baseline="ideographic">implementación</tspan></text></g></g></g><g id="g-root-tx_analizol_18koy201dzdhc0-fill" data-item-order="1000000000" data-item-id="tx_analizol_18koy201dzdhc0" data-item-class="Label Stroke" data-item-index="none" data-renderer-id="0" transform="translate(351, 527)"><g id="tx_analizol_18koy201dzdhc0-fill" stroke="none" fill="#1AC6FF"><g><text style="font: 20px Roboto, sans-serif; white-space: pre;" font-weight="20px" font-size="Roboto," font-family="sans-serif"><tspan x="12" y="34" dominant-baseline="ideographic">Analizo las </tspan><tspan x="12" y="58" dominant-baseline="ideographic">experiencias </tspan><tspan x="12" y="82" dominant-baseline="ideographic">de </tspan><tspan x="12" y="106" dominant-baseline="ideographic">aprendizaje</tspan></text></g></g></g><g id="g-root-tx_estrateg_1hjgbqg1dzlzb4-fill" data-item-order="1000000000" data-item-id="tx_estrateg_1hjgbqg1dzlzb4" data-item-class="Label Stroke" data-item-index="none" data-renderer-id="0" transform="translate(599, 633)"><g id="tx_estrateg_1hjgbqg1dzlzb4-fill" stroke="none" fill="#1AC6FF"><g><text style="font: 20px Roboto, sans-serif; white-space: pre;" font-weight="20px" font-size="Roboto," font-family="sans-serif"><tspan x="12" y="34" dominant-baseline="ideographic">Estratégico</tspan></text></g></g></g><g id="g-root-tx_competen_1qclfmw1dzq6ti-fill" data-item-order="1000000000" data-item-id="tx_competen_1qclfmw1dzq6ti" data-item-class="Label Stroke" data-item-index="none" data-renderer-id="0" transform="translate(51, 557.39990234375)"><g id="tx_competen_1qclfmw1dzq6ti-fill" stroke="none" fill="#A3A3A3"><g><text style="font: 20px Roboto, sans-serif; white-space: pre;" font-weight="20px" font-size="Roboto," font-family="sans-serif"><tspan x="12" y="34" dominant-baseline="ideographic">Competencia </tspan><tspan x="12" y="58" dominant-baseline="ideographic">de </tspan><tspan x="12" y="82" dominant-baseline="ideographic">Sistematización</tspan></text></g></g></g><g id="g-root-cu_18hkns81dzdhc2-fill" data-item-order="1000000002" data-item-id="cu_18hkns81dzdhc2" data-item-class="Curve Stroke" data-item-index="none" data-renderer-id="0" transform="translate(495, 203)"></g><g id="g-root-cu_1uo1pbc1dzdhc1-fill" data-item-order="1000000002" data-item-id="cu_1uo1pbc1dzdhc1" data-item-class="Curve Stroke" data-item-index="none" data-renderer-id="0" transform="translate(495, 273)"></g><g id="g-root-cu_1hcl6y01dzdix5-fill" data-item-order="1000000002" data-item-id="cu_1hcl6y01dzdix5" data-item-class="Curve Stroke" data-item-index="none" data-renderer-id="0" transform="translate(495, 273)"></g><g id="g-root-cu_1cwrotk1dzdjph-fill" data-item-order="1000000002" data-item-id="cu_1cwrotk1dzdjph" data-item-class="Curve Stroke" data-item-index="none" data-renderer-id="0" transform="translate(219, 319)"></g><g id="g-root-cu_zlxnjc1dzdi4u-fill" data-item-order="1000000002" data-item-id="cu_zlxnjc1dzdi4u" data-item-class="Curve Stroke" data-item-index="none" data-renderer-id="0" transform="translate(219, 133)"></g><g id="g-root-cu_1cwrotk1dzdjpk-fill" data-item-order="1000000002" data-item-id="cu_1cwrotk1dzdjpk" data-item-class="Curve Stroke" data-item-index="none" data-renderer-id="0" transform="translate(219, 389.39990234375)"></g><g id="g-root-cu_1lsep2g1dzdi4v-fill" data-item-order="1000000002" data-item-id="cu_1lsep2g1dzdi4v" data-item-class="Curve Stroke" data-item-index="none" data-renderer-id="0" transform="translate(219, 435)"></g><g id="g-root-cu_18hkns81dzdhc4-fill" data-item-order="1000000002" data-item-id="cu_18hkns81dzdhc4" data-item-class="Curve Stroke" data-item-index="none" data-renderer-id="0" transform="translate(495, 63)"></g><g id="g-root-cu_1hcl6y01dzdix7-fill" data-item-order="1000000002" data-item-id="cu_1hcl6y01dzdix7" data-item-class="Curve Stroke" data-item-index="none" data-renderer-id="0" transform="translate(495, 575)"></g><g id="g-root-cu_1lsep2g1dzdi4s-fill" data-item-order="1000000002" data-item-id="cu_1lsep2g1dzdi4s" data-item-class="Curve Stroke" data-item-index="none" data-renderer-id="0" transform="translate(219, 593.39990234375)"></g><g id="g-root-cu_141r5ns1dzdi4h-fill" data-item-order="1000000002" data-item-id="cu_141r5ns1dzdi4h" data-item-class="Curve Stroke" data-item-index="none" data-renderer-id="0" transform="translate(219, 63)"></g><g id="g-root-cu_24odk1dzdjwm-fill" data-item-order="1000000002" data-item-id="cu_24odk1dzdjwm" data-item-class="Curve Stroke" data-item-index="none" data-renderer-id="0" transform="translate(495, 645)"></g><g id="g-root-ro_zjfhpk1dzncw1-stroke" data-item-order="999976960" data-item-id="ro_zjfhpk1dzncw1" data-item-class="Shape Stroke Fill" data-item-index="none" data-renderer-id="0" transform="translate(303, 3)"><g id="ro_zjfhpk1dzncw1-stroke" fill="none" stroke-linecap="round" stroke-linejoin="round" stroke-miterlimit="4" stroke="#1AC6FF" stroke-width="2"><g><path d="M 22 10L 190 10C 190 10 202 10 202 22L 202 118C 202 118 202 130 190 130L 22 130C 22 130 10 130 10 118L 10 22C 10 22 10 10 22 10"></path></g></g></g><g id="g-root-ro_92re5k1dzdi4q-stroke" data-item-order="999976960" data-item-id="ro_92re5k1dzdi4q" data-item-class="Shape Stroke Fill" data-item-index="none" data-renderer-id="0" transform="translate(303, 515)"><g id="ro_92re5k1dzdi4q-stroke" fill="none" stroke-linecap="round" stroke-linejoin="round" stroke-miterlimit="4" stroke="#1AC6FF" stroke-width="2"><g><path d="M 22 10L 190 10C 190 10 202 10 202 22L 202 118C 202 118 202 130 190 130L 22 130C 22 130 10 130 10 118L 10 22C 10 22 10 10 22 10"></path></g></g></g><g id="g-root-ro_zrjxbc1dz7w1y-stroke" data-item-order="999976960" data-item-id="ro_zrjxbc1dz7w1y" data-item-class="Shape Stroke Fill" data-item-index="none" data-renderer-id="0" transform="translate(303, 375)"><g id="ro_zrjxbc1dz7w1y-stroke" fill="none" stroke-linecap="round" stroke-linejoin="round" stroke-miterlimit="4" stroke="#1AC6FF" stroke-width="2"><g><path d="M 22 10L 190 10C 190 10 202 10 202 22L 202 118C 202 118 202 130 190 130L 22 130C 22 130 10 130 10 118L 10 22C 10 22 10 10 22 10"></path></g></g></g><g id="g-root-ro_18n6r8o1dzaqks-stroke" data-item-order="999976960" data-item-id="ro_18n6r8o1dzaqks" data-item-class="Shape Stroke Fill" data-item-index="none" data-renderer-id="0" transform="translate(303, 143)"><g id="ro_18n6r8o1dzaqks-stroke" fill="none" stroke-linecap="round" stroke-linejoin="round" stroke-miterlimit="4" stroke="#1AC6FF" stroke-width="2"><g><path d="M 22 10L 190 10C 190 10 202 10 202 22L 202 118C 202 118 202 130 190 130L 22 130C 22 130 10 130 10 118L 10 22C 10 22 10 10 22 10"></path></g></g></g><g id="g-root-ro_zqavzc1dzq6tk-stroke" data-item-order="999979264" data-item-id="ro_zqavzc1dzq6tk" data-item-class="Shape Stroke Fill" data-item-index="none" data-renderer-id="0" transform="translate(3, 545.39990234375)"><g id="ro_zqavzc1dzq6tk-stroke" fill="none" stroke-linecap="round" stroke-linejoin="round" stroke-miterlimit="4" stroke="#A3A3A3" stroke-width="2"><g><path d="M 22 10L 214 10C 214 10 226 10 226 22L 226 94C 226 94 226 106 214 106L 22 106C 22 106 10 106 10 94L 10 22C 10 22 10 10 22 10"></path></g></g></g><g id="g-root-ro_4ike3s1dzdjb5-stroke" data-item-order="999979264" data-item-id="ro_4ike3s1dzdjb5" data-item-class="Shape Stroke Fill" data-item-index="none" data-renderer-id="0" transform="translate(3, 85)"><g id="ro_4ike3s1dzdjb5-stroke" fill="none" stroke-linecap="round" stroke-linejoin="round" stroke-miterlimit="4" stroke="#A3A3A3" stroke-width="2"><g><path d="M 22 10L 214 10C 214 10 226 10 226 22L 226 94C 226 94 226 106 214 106L 22 106C 22 106 10 106 10 94L 10 22C 10 22 10 10 22 10"></path></g></g></g><g id="g-root-ro_1ly0siw1dzsyko-stroke" data-item-order="999979264" data-item-id="ro_1ly0siw1dzsyko" data-item-class="Shape Stroke Fill" data-item-index="none" data-renderer-id="0" transform="translate(3, 341.39990234375)"><g id="ro_1ly0siw1dzsyko-stroke" fill="none" stroke-linecap="round" stroke-linejoin="round" stroke-miterlimit="4" stroke="#A3A3A3" stroke-width="2"><g><path d="M 22 10L 214 10C 214 10 226 10 226 22L 226 94C 226 94 226 106 214 106L 22 106C 22 106 10 106 10 94L 10 22C 10 22 10 10 22 10"></path></g></g></g><g id="g-root-ro_147zwiw1dzc4r1-stroke" data-item-order="999981568" data-item-id="ro_147zwiw1dzc4r1" data-item-class="Shape Stroke Fill" data-item-index="none" data-renderer-id="0" transform="translate(303, 655)"><g id="ro_147zwiw1dzc4r1-stroke" fill="none" stroke-linecap="round" stroke-linejoin="round" stroke-miterlimit="4" stroke="#1AC6FF" stroke-width="2"><g><path d="M 22 10L 190 10C 190 10 202 10 202 22L 202 94C 202 94 202 106 190 106L 22 106C 22 106 10 106 10 94L 10 22C 10 22 10 10 22 10"></path></g></g></g><g id="g-root-ro_1lpwpk81dzj4zs-stroke" data-item-order="999986176" data-item-id="ro_1lpwpk81dzj4zs" data-item-class="Shape Stroke Fill" data-item-index="none" data-renderer-id="0" transform="translate(303, 283)"><g id="ro_1lpwpk81dzj4zs-stroke" fill="none" stroke-linecap="round" stroke-linejoin="round" stroke-miterlimit="4" stroke="#1AC6FF" stroke-width="2"><g><path d="M 22 10L 190 10C 190 10 202 10 202 22L 202 70C 202 70 202 82 190 82L 22 82C 22 82 10 82 10 70L 10 22C 10 22 10 10 22 10"></path></g></g></g><g id="g-root-ro_qn66p41dzndvm-stroke" data-item-order="999990928" data-item-id="ro_qn66p41dzndvm" data-item-class="Shape Stroke Fill" data-item-index="none" data-renderer-id="0" transform="translate(551, 618)"><g id="ro_qn66p41dzndvm-stroke" fill="none" stroke-linecap="round" stroke-linejoin="round" stroke-miterlimit="4" stroke="#1AC6FF" stroke-width="2"><g><path d="M 22 10L 166 10C 166 10 178 10 178 22L 178 52C 178 52 178 64 166 64L 22 64C 22 64 10 64 10 52L 10 22C 10 22 10 10 22 10"></path></g></g></g><g id="g-root-ro_qqagyw1dzkjyf-stroke" data-item-order="999990928" data-item-id="ro_qqagyw1dzkjyf" data-item-class="Shape Stroke Fill" data-item-index="none" data-renderer-id="0" transform="translate(551, 246)"><g id="ro_qqagyw1dzkjyf-stroke" fill="none" stroke-linecap="round" stroke-linejoin="round" stroke-miterlimit="4" stroke="#1AC6FF" stroke-width="2"><g><path d="M 22 10L 166 10C 166 10 178 10 178 22L 178 52C 178 52 178 64 166 64L 22 64C 22 64 10 64 10 52L 10 22C 10 22 10 10 22 10"></path></g></g></g><g id="g-root-chec_v98foo1dzdiwx-stroke" data-item-order="1000000000" data-item-id="chec_v98foo1dzdiwx" data-item-class="Icon Stroke" data-item-index="none" data-renderer-id="0" transform="translate(315, 560)"><g id="chec_v98foo1dzdiwx-stroke" fill="none" stroke-linecap="round" stroke-linejoin="round" stroke-miterlimit="4" stroke="#1AC6FF" stroke-width="2"><g><path d="M 21.983749 35.625L 11.98375 35.625C 11.293394 35.625 10.73375 35.065353 10.73375 34.375L 10.73375 14.375C 10.73375 13.684644 11.293394 13.125 11.98375 13.125L 29.483749 13.125C 30.174105 13.125 30.733749 13.684644 30.733749 14.375L 30.733749 20.625M 15.733749 15.62625L 15.733749 10.62625M 20.733749 15.62625L 20.733749 10.62625M 25.733749 15.62625L 25.733749 10.62625M 24.483749 31.876249C 24.483751 36.018387 27.841614 39.376251 31.983749 39.376251C 36.125885 39.376251 39.483749 36.018387 39.483749 31.876251C 39.483749 27.734116 36.125885 24.376251 31.983749 24.376251C 27.841614 24.376251 24.483751 27.734116 24.483751 31.876251ZM 35.326248 29.695L 31.70125 34.537498C 31.537876 34.75478 31.288338 34.890568 31.017168 34.909748C 30.745998 34.928928 30.47983 34.82962 30.287498 34.637497L 28.412498 32.762497"></path></g></g></g><g id="g-root-a_1lyn9m01dzaozv-stroke" data-item-order="1000000000" data-item-id="a_1lyn9m01dzaozv" data-item-class="Icon Stroke" data-item-index="none" data-renderer-id="0" transform="translate(315, 188)"><g id="a_1lyn9m01dzaozv-stroke" fill="none" stroke-linecap="round" stroke-linejoin="round" stroke-miterlimit="4" stroke="#1AC6FF" stroke-width="2"><g><path d="M 13.125 31.875L 13.125 28.125M 20.625 31.875L 20.625 28.125M 13.125 31.875L 20.625 31.875M 16.875 39.375L 16.875 34.375M 16.875 21.25L 16.875 27.5M 20 39.375L 20.625 31.875L 23.125 31.875L 23.125 27.5C 23.125 24.048222 20.32678 21.25 16.875 21.25C 13.423221 21.25 10.625 24.048222 10.625 27.5L 10.625 31.875L 13.125 31.875L 13.75 39.375ZM 12.5 15C 12.5 17.416246 14.458755 19.375 16.875 19.375C 19.291246 19.375 21.25 17.416246 21.25 15C 21.25 12.583755 19.291246 10.625 16.875 10.625C 14.458755 10.625 12.5 12.583755 12.5 15ZM 13 12.9725C 14.387519 14.276774 16.220707 15.002002 18.125 15.000001C 19.185442 15.001484 20.234068 14.777357 21.20125 14.3425M 26.875 31.875L 36.875 31.875C 38.255714 31.875 39.375 30.755713 39.375 29.375L 39.375 13.125C 39.375 11.744288 38.255714 10.625 36.875 10.625L 22.5 10.625M 29.375 24.375L 29.375 18.75C 29.375002 17.714466 30.214466 16.875 31.25 16.875C 32.285534 16.875 33.125 17.714466 33.125 18.75L 33.125 24.375M 29.375 20.625L 33.125 20.625"></path></g></g></g><g id="g-root-1_18gy0dk1dzkkr2-stroke" data-item-order="1000000000" data-item-id="1_18gy0dk1dzkkr2" data-item-class="Icon Stroke" data-item-index="none" data-renderer-id="0" transform="translate(563, 258)"><g id="1_18gy0dk1dzkkr2-stroke" fill="none" stroke-linecap="round" stroke-linejoin="round" stroke-miterlimit="4" stroke="#1AC6FF" stroke-width="2"><g><path d="M 22.20125 33.49625L 15.66375 28.796249M 18.807501 25.216251L 24.18125 29.199999M 11.02625 24.855C 11.02625 27.008221 12.77178 28.75375 14.925 28.75375C 17.07822 28.75375 18.82375 27.008221 18.82375 24.855C 18.82375 22.70178 17.07822 20.956251 14.925 20.956251C 12.77178 20.956251 11.02625 22.70178 11.02625 24.855M 18.49625 23.29125L 24.331249 17.608749M 22.539999 13.51125L 14.690001 20.963749M 22.424999 14.54625C 22.424675 16.431843 23.953157 17.960588 25.838749 17.960588C 27.72434 17.960588 29.252825 16.431843 29.252499 14.546249C 29.252825 12.660658 27.72434 11.13191 25.838749 11.13191C 23.953157 11.13191 22.424675 12.660658 22.424999 14.546249M 29 15.83625L 32.092499 19C 32.736763 19.658016 32.751064 20.705896 32.125 21.38125L 32.125 21.381248C 31.803484 21.72744 31.354124 21.92672 30.881699 21.932625C 30.409271 21.93853 29.955072 21.750544 29.625 21.412502L 26.224998 17.938749M 11.3525 38.868748L 38.852501 38.868748M 22.20125 35.83625L 22.20125 32.43375C 22.238005 30.450748 23.856033 28.862432 25.839375 28.862432C 27.822718 28.862432 29.440746 30.450748 29.477501 32.43375L 29.477499 35.783752M 14.3 24.647501C 14.3 24.992678 14.579823 25.272501 14.925 25.272501C 15.270178 25.272501 15.55 24.992678 15.55 24.647501C 15.55 24.302322 15.270178 24.022501 14.925 24.022501C 14.579823 24.022501 14.3 24.302322 14.3 24.647501M 25.213749 32.40625C 25.213749 32.751431 25.493572 33.03125 25.838749 33.03125C 26.183928 33.03125 26.463749 32.751431 26.463749 32.40625C 26.463749 32.061073 26.183928 31.78125 25.838749 31.78125C 25.493572 31.78125 25.213749 32.061073 25.213749 32.40625M 21.473749 35.83625L 30.144999 35.83625C 30.835358 35.83625 31.394999 36.395893 31.394999 37.08625L 31.394999 38.868748L 31.394999 38.868748L 20.223749 38.868748L 20.223749 38.868748L 20.223749 37.08625C 20.223749 36.395893 20.783394 35.83625 21.473749 35.83625ZM 31.75 18.63625C 31.986919 18.339533 32.3237 18.139153 32.697502 18.0725C 34.249176 17.788521 35.846855 18.20796 37.058941 19.21751C 38.27103 20.227058 38.972458 21.722553 38.973751 23.300001C 38.973751 24.162945 38.274197 24.862501 37.411251 24.862501C 36.548306 24.862501 35.848751 24.162945 35.848751 23.300001C 35.847851 22.648012 35.556664 22.030287 35.054306 21.614679C 34.551952 21.199072 33.890617 21.028751 33.25 21.15C 33.01144 21.192165 32.766373 21.178907 32.533752 21.111252M 31.4025 21.782499C 31.455261 22.077248 31.422289 22.380945 31.307503 22.657501C 31.050968 23.257044 31.074965 23.939726 31.372967 24.519775C 31.670969 25.099827 32.211967 25.516899 32.848751 25.657499C 33.691673 25.843204 34.224457 26.677076 34.03875 27.52C 33.853043 28.362925 33.019176 28.895706 32.17625 28.709999C 30.637434 28.36875 29.32938 27.362255 28.60524 25.962246C 27.881096 24.562239 27.815535 22.913076 28.426249 21.459999C 28.51322 21.24922 28.645517 21.060163 28.813751 20.90625"></path></g></g></g><g id="g-root-draw_1d1reco1dzq58n-stroke" data-item-order="1000000000" data-item-id="draw_1d1reco1dzq58n" data-item-class="Icon Stroke" data-item-index="none" data-renderer-id="0" transform="translate(15, 578.39990234375)"><g id="draw_1d1reco1dzq58n-stroke" fill="none" stroke-linecap="round" stroke-linejoin="round" stroke-miterlimit="4" stroke="#A3A3A3" stroke-width="2"><g><path d="M 31.875 29.375C 31.184645 29.375 30.625 29.934643 30.625 30.625C 30.625 31.315355 30.065355 31.875 29.375 31.875L 20.625 31.875C 19.934645 31.875 19.375 31.315355 19.375 30.625C 19.375 29.934643 18.815355 29.375 18.125 29.375L 11.875 29.375C 11.184644 29.375 10.625 29.934643 10.625 30.625L 10.625 38.125C 10.625 38.815353 11.184644 39.375 11.875 39.375L 38.125 39.375C 38.815353 39.375 39.375 38.815353 39.375 38.125L 39.375 30.625C 39.375 29.934643 38.815353 29.375 38.125 29.375ZM 19.375 26.875L 19.375 11.875C 19.375 11.184644 19.934645 10.625 20.625 10.625L 34.375 10.625C 35.065353 10.625 35.625 11.184644 35.625 11.875L 35.625 29.375M 14.375 29.375L 14.375 14.375C 14.375 13.684644 14.934644 13.125 15.625 13.125L 16.875 13.125M 25.625 15.625L 31.875 15.625M 23.125 19.375L 31.875 19.375M 23.125 23.125L 31.875 23.125"></path></g></g></g><g id="g-root-bars_13z8zu01dznc3s-stroke" data-item-order="1000000000" data-item-id="bars_13z8zu01dznc3s" data-item-class="Icon Stroke" data-item-index="none" data-renderer-id="0" transform="translate(315, 48)"><g id="bars_13z8zu01dznc3s-stroke" fill="none" stroke-linecap="round" stroke-linejoin="round" stroke-miterlimit="4" stroke="#1AC6FF" stroke-width="2"><g><path d="M 10.55125 34.375L 39.30125 34.375M 15.55125 34.375L 15.55125 28.75C 15.55125 28.404823 15.271428 28.125 14.92625 28.125L 12.42625 28.125C 12.081072 28.125 11.80125 28.404823 11.80125 28.75L 11.80125 34.375M 23.05125 34.375L 23.05125 22.5C 23.05125 22.154823 22.771427 21.875 22.42625 21.875L 19.92625 21.875C 19.581072 21.875 19.30125 22.154823 19.30125 22.5L 19.30125 34.375M 30.55125 34.375L 30.55125 25C 30.55125 24.654823 30.271427 24.375 29.92625 24.375L 27.42625 24.375C 27.081072 24.375 26.80125 24.654823 26.80125 25L 26.80125 34.375M 38.05125 34.375L 38.05125 16.25C 38.05125 15.904821 37.771427 15.625 37.42625 15.625L 34.92625 15.625C 34.581074 15.625 34.30125 15.904821 34.30125 16.25L 34.30125 34.375"></path></g></g></g><g id="g-root-tx_autnomo_1uo1izs1dzkidh-stroke" data-item-order="1000000000" data-item-id="tx_autnomo_1uo1izs1dzkidh" data-item-class="Label Stroke" data-item-index="none" data-renderer-id="0" transform="translate(599, 261)"></g><g id="g-root-tx_diseoexp_9409601dzapz6-stroke" data-item-order="1000000000" data-item-id="tx_diseoexp_9409601dzapz6" data-item-class="Label Stroke" data-item-index="none" data-renderer-id="0" transform="translate(351, 155)"></g><g id="g-root-1_1q5q7oo1dzj47j-stroke" data-item-order="1000000000" data-item-id="1_1q5q7oo1dzj47j" data-item-class="Icon Stroke" data-item-index="none" data-renderer-id="0" transform="translate(315, 304)"><g id="1_1q5q7oo1dzj47j-stroke" fill="none" stroke-linecap="round" stroke-linejoin="round" stroke-miterlimit="4" stroke="#1AC6FF" stroke-width="2"><g><path d="M 10.72625 39.116249L 24.216249 25.625C 24.45071 25.390278 24.768864 25.258392 25.100624 25.258392C 25.432386 25.258392 25.75054 25.390278 25.985001 25.625L 39.47625 39.116249M 10.72625 24.741251L 24.216249 11.25C 24.45071 11.015279 24.768864 10.883391 25.100624 10.883391C 25.432386 10.883391 25.75054 11.015279 25.985001 11.25L 39.47625 24.741251"></path></g></g></g><g id="g-root-tx_propongo_4pfsdk1dzhrf2-stroke" data-item-order="1000000000" data-item-id="tx_propongo_4pfsdk1dzhrf2" data-item-class="Label Stroke" data-item-index="none" data-renderer-id="0" transform="translate(351, 295)"></g><g id="g-root-tx_desarrol_1uuag6g1dzc4qz-stroke" data-item-order="1000000000" data-item-id="tx_desarrol_1uuag6g1dzc4qz" data-item-class="Label Stroke" data-item-index="none" data-renderer-id="0" transform="translate(351, 667)"></g><g id="g-root-tx_analizop_1ha31481dzndon-stroke" data-item-order="1000000000" data-item-id="tx_analizop_1ha31481dzndon" data-item-class="Label Stroke" data-item-index="none" data-renderer-id="0" transform="translate(351, 15)"></g><g id="g-root-tx_competen_qu1bhk1dzt0cm-stroke" data-item-order="1000000000" data-item-id="tx_competen_qu1bhk1dzt0cm" data-item-class="Label Stroke" data-item-index="none" data-renderer-id="0" transform="translate(51, 353.39990234375)"></g><g id="g-root-docu_4nk9yg1dzszkf-stroke" data-item-order="1000000000" data-item-id="docu_4nk9yg1dzszkf" data-item-class="Icon Stroke" data-item-index="none" data-renderer-id="0" transform="translate(15, 374.39990234375)"><g id="docu_4nk9yg1dzszkf-stroke" fill="none" stroke-linecap="round" stroke-linejoin="round" stroke-miterlimit="4" stroke="#A3A3A3" stroke-width="2"><g><path d="M 17.424999 37.1525L 12.85375 37.1525C 12.13509 37.1525 11.5525 36.569908 11.5525 35.85125L 11.5525 11.92625C 11.5525 11.207589 12.13509 10.625 12.85375 10.625L 30.236248 10.625C 30.954912 10.625 31.537498 11.207589 31.537498 11.92625L 31.537498 15.43375M 22.98 22.543751C 22.979713 24.162838 24.292162 25.475521 25.911251 25.475521C 27.530338 25.475521 28.842789 24.162838 28.842501 22.543751C 28.842789 20.924662 27.530338 19.611979 25.911251 19.611979C 24.292162 19.611979 22.979713 20.924662 22.98 22.543751M 32.177502 31.674999C 30.353752 25.598751 21.28125 25.91 19.4625 31.9725M 15.64125 26.747499C 15.64125 32.369068 20.198431 36.926247 25.82 36.926247C 31.441566 36.926247 35.998749 32.369068 35.998749 26.747499C 35.998749 21.125931 31.441566 16.56875 25.82 16.56875C 20.198431 16.56875 15.64125 21.125931 15.64125 26.747499M 33.016251 33.945L 38.447498 39.375M 25.82 29.62125L 25.82 31.245001M 23.741249 20.581249C 24.5975 22.543751 26.7675 23.1075 28.842501 22.543751"></path></g></g></g><g id="g-root-logo_8ydw881dzdiiw-stroke" data-item-order="1000000000" data-item-id="logo_8ydw881dzdiiw" data-item-class="Icon Stroke" data-item-index="none" data-renderer-id="0" transform="translate(15, 118)"><g id="logo_8ydw881dzdiiw-stroke" fill="none" stroke-linecap="round" stroke-linejoin="round" stroke-miterlimit="4" stroke="#A3A3A3" stroke-width="2"><g><path d="M 39.375 20.9375L 39.375 29.6875L 35.625 30.9375L 35.625 19.6875L 31.25 18.4375L 31.25 32.1875L 27.5 33.4375L 27.5 17.1875L 25 16.5625L 22.5 17.1875L 22.5 33.4375L 18.75 32.1875L 18.75 18.4375L 14.375 19.6875L 14.375 30.9375L 10.625 29.6875L 10.625 20.9375"></path></g></g></g><g id="g-root-plan_13ymp2g1dzncap-stroke" data-item-order="1000000000" data-item-id="plan_13ymp2g1dzncap" data-item-class="Icon Stroke" data-item-index="none" data-renderer-id="0" transform="translate(563, 630)"><g id="plan_13ymp2g1dzncap-stroke" fill="none" stroke-linecap="round" stroke-linejoin="round" stroke-miterlimit="4" stroke="#1AC6FF" stroke-width="2"><g><path d="M 11.77625 14.03375L 23.83375 14.03375C 23.83375 14.03375 24.68 14.03375 24.68 14.88L 24.68 22.25C 24.68 22.25 24.68 23.096251 23.83375 23.096251L 11.77625 23.096251C 11.77625 23.096251 10.93 23.096251 10.93 22.25L 10.93 14.88C 10.93 14.88 10.93 14.03375 11.77625 14.03375M 14.25875 14.03375L 15.5225 12.28375C 15.931121 11.684983 16.635246 11.3586 17.356249 11.43375L 18.578751 11.43375C 19.300085 11.358682 20.004539 11.684996 20.41375 12.28375L 21.6775 14.03375M 10.93 17.783751L 16.272501 17.783751M 19.3675 17.783751L 24.709999 17.783751M 16.897501 17.139999L 18.71125 17.139999C 18.71125 17.139999 19.33625 17.139999 19.33625 17.764999L 19.33625 19.366249C 19.33625 19.366249 19.33625 19.991249 18.71125 19.991249L 16.897501 19.991249C 16.897501 19.991249 16.272501 19.991249 16.272501 19.366249L 16.272501 17.764999C 16.272501 17.764999 16.272501 17.139999 16.897501 17.139999M 26.13625 29.508751L 38.193748 29.508751C 38.193748 29.508751 39.040001 29.508751 39.040001 30.355L 39.040001 37.724998C 39.040001 37.724998 39.040001 38.571251 38.193748 38.571251L 26.13625 38.571251C 26.13625 38.571251 25.290001 38.571251 25.290001 37.724998L 25.290001 30.355C 25.290001 30.355 25.290001 29.508751 26.13625 29.508751M 28.6175 29.508751L 29.88125 27.758749C 30.29113 27.160902 30.995256 26.83522 31.716251 26.91L 32.938751 26.91C 33.659458 26.83486 34.363392 27.160675 34.772499 27.758749L 36.036251 29.508751M 25.290001 33.258751L 30.6325 33.258751M 33.727501 33.258751L 39.07 33.258751M 31.2575 32.61375L 33.071251 32.61375C 33.071251 32.61375 33.696251 32.61375 33.696251 33.23875L 33.696251 34.84C 33.696251 34.84 33.696251 35.465 33.071251 35.465L 31.2575 35.465C 31.2575 35.465 30.6325 35.465 30.6325 34.84L 30.6325 33.23875C 30.6325 33.23875 30.6325 32.61375 31.2575 32.61375M 37.18 20.375C 37.18 17.440987 34.801514 15.0625 31.8675 15.0625L 29.3675 15.0625M 31.8675 12.56L 29.3675 15.059999L 31.8675 17.559999M 12.805 28.5C 12.805 31.434013 15.183488 33.8125 18.1175 33.8125L 20.6175 33.8125M 18.1175 36.310001L 20.6175 33.810001L 18.1175 31.310001"></path></g></g></g><g id="g-root-tx_sistemat_4nkga01dz7xtw-stroke" data-item-order="1000000000" data-item-id="tx_sistemat_4nkga01dz7xtw" data-item-class="Label Stroke" data-item-index="none" data-renderer-id="0" transform="translate(351, 387)"></g><g id="g-root-1_1d2dylk1dz7xmt-stroke" data-item-order="1000000000" data-item-id="1_1d2dylk1dz7xmt" data-item-class="Icon Stroke" data-item-index="none" data-renderer-id="0" transform="translate(315, 420)"><g id="1_1d2dylk1dz7xmt-stroke" fill="none" stroke-linecap="round" stroke-linejoin="round" stroke-miterlimit="4" stroke="#1AC6FF" stroke-width="2"><g><path d="M 24.67 16.25C 24.196667 16.249748 23.76408 15.982162 23.5525 15.55875L 22.3675 13.19125C 22.15592 12.767838 21.723331 12.500253 21.25 12.5L 11.875 12.5C 11.184644 12.5 10.625 13.059644 10.625 13.75L 10.625 36.25C 10.625 36.940353 11.184644 37.5 11.875 37.5L 38.125 37.5C 38.815353 37.5 39.375 36.940353 39.375 36.25L 39.375 17.5C 39.375 16.809645 38.815353 16.25 38.125 16.25ZM 23.125 32.5L 23.125 29.375C 23.125 28.339466 23.964466 27.5 25 27.5C 26.035534 27.5 26.875 28.339466 26.875 29.375L 26.875 32.5M 20.625 25.227501L 20.625 31.25C 20.625 31.940355 21.184643 32.5 21.875 32.5L 28.125 32.5C 28.815357 32.5 29.375 31.940355 29.375 31.25L 29.375 25.227501M 18.125 27.5L 24.158749 22.015001C 24.635649 21.58107 25.364351 21.58107 25.841251 22.015001L 31.875 27.5"></path></g></g></g><g id="g-root-git_1hjgew81dzc364-stroke" data-item-order="1000000000" data-item-id="git_1hjgew81dzc364" data-item-class="Icon Stroke" data-item-index="none" data-renderer-id="0" transform="translate(315, 688)"><g id="git_1hjgew81dzc364-stroke" fill="none" stroke-linecap="round" stroke-linejoin="round" stroke-miterlimit="4" stroke="#1AC6FF" stroke-width="2"><g><path d="M 10.623973 25L 24.998569 10.625402L 39.373165 25L 24.998569 39.374596ZM 20 15.625L 23.674999 19.299999M 28.75 26.25C 28.750002 27.285534 29.589466 28.125 30.625 28.125C 31.660536 28.125 32.5 27.285534 32.5 26.25C 32.5 25.214466 31.660536 24.375 30.625 24.375C 29.589466 24.375 28.750002 25.214466 28.750002 26.25M 23.125 31.25C 23.125 32.285534 23.964466 33.125 25 33.125C 26.035534 33.125 26.875 32.285534 26.875 31.25C 26.875 30.214466 26.035534 29.375002 25 29.375002C 23.964466 29.375002 23.125 30.214466 23.125 31.25M 23.125 20.625C 23.125 21.660534 23.964466 22.5 25 22.5C 26.035534 22.5 26.875 21.660534 26.875 20.625C 26.875 19.589466 26.035534 18.75 25 18.75C 23.964466 18.75 23.125 19.589466 23.125 20.625M 26.325001 21.950001L 29.29875 24.92375M 25 22.5L 25 29.375"></path></g></g></g><g id="g-root-tx_competen_qp1fmw1dzdjbj-stroke" data-item-order="1000000000" data-item-id="tx_competen_qp1fmw1dzdjbj" data-item-class="Label Stroke" data-item-index="none" data-renderer-id="0" transform="translate(51, 97)"></g><g id="g-root-tx_analizol_18koy201dzdhc0-stroke" data-item-order="1000000000" data-item-id="tx_analizol_18koy201dzdhc0" data-item-class="Label Stroke" data-item-index="none" data-renderer-id="0" transform="translate(351, 527)"></g><g id="g-root-tx_estrateg_1hjgbqg1dzlzb4-stroke" data-item-order="1000000000" data-item-id="tx_estrateg_1hjgbqg1dzlzb4" data-item-class="Label Stroke" data-item-index="none" data-renderer-id="0" transform="translate(599, 633)"></g><g id="g-root-tx_competen_1qclfmw1dzq6ti-stroke" data-item-order="1000000000" data-item-id="tx_competen_1qclfmw1dzq6ti" data-item-class="Label Stroke" data-item-index="none" data-renderer-id="0" transform="translate(51, 557.39990234375)"></g><g id="g-root-cu_18hkns81dzdhc2-stroke" data-item-order="1000000002" data-item-id="cu_18hkns81dzdhc2" data-item-class="Curve Stroke" data-item-index="none" data-renderer-id="0" transform="translate(495, 203)"><g id="cu_18hkns81dzdhc2-stroke" fill="none" stroke-linecap="round" stroke-linejoin="round" stroke-miterlimit="4" stroke="#A3A3A3" stroke-width="2"><g><path d="M 10 10L 24 10L 38 10L 38 45L 38 80L 52 80L 64 80"></path><path d="M 58 86.5L 64.5 80L 58 73.5" stroke-dasharray="none"></path></g></g></g><g id="g-root-cu_1uo1pbc1dzdhc1-stroke" data-item-order="1000000002" data-item-id="cu_1uo1pbc1dzdhc1" data-item-class="Curve Stroke" data-item-index="none" data-renderer-id="0" transform="translate(495, 273)"><g id="cu_1uo1pbc1dzdhc1-stroke" fill="none" stroke-linecap="round" stroke-linejoin="round" stroke-miterlimit="4" stroke="#A3A3A3" stroke-width="2"><g><path d="M 10 172L 24 172L 38 172L 38 91L 38 10L 52 10L 64 10"></path><path d="M 58 16.5L 64.5 10L 58 3.5" stroke-dasharray="none"></path></g></g></g><g id="g-root-cu_1hcl6y01dzdix5-stroke" data-item-order="1000000002" data-item-id="cu_1hcl6y01dzdix5" data-item-class="Curve Stroke" data-item-index="none" data-renderer-id="0" transform="translate(495, 273)"><g id="cu_1hcl6y01dzdix5-stroke" fill="none" stroke-linecap="round" stroke-linejoin="round" stroke-miterlimit="4" stroke="#A3A3A3" stroke-width="2"><g><path d="M 10 56L 24 56L 38 56L 38 33L 38 10L 52 10L 64 10"></path><path d="M 58 16.5L 64.5 10L 58 3.5" stroke-dasharray="none"></path></g></g></g><g id="g-root-cu_1cwrotk1dzdjph-stroke" data-item-order="1000000002" data-item-id="cu_1cwrotk1dzdjph" data-item-class="Curve Stroke" data-item-index="none" data-renderer-id="0" transform="translate(219, 319)"><g id="cu_1cwrotk1dzdjph-stroke" fill="none" stroke-linecap="round" stroke-linejoin="round" stroke-miterlimit="4" stroke="#A3A3A3" stroke-width="2"><g><path d="M 10 80.4L 31 80.4L 52 80.4L 52 45.2L 52 10L 73 10L 92 10"></path><path d="M 86 16.5L 92.5 10L 86 3.5" stroke-dasharray="none"></path></g></g></g><g id="g-root-cu_zlxnjc1dzdi4u-stroke" data-item-order="1000000002" data-item-id="cu_zlxnjc1dzdi4u" data-item-class="Curve Stroke" data-item-index="none" data-renderer-id="0" transform="translate(219, 133)"><g id="cu_zlxnjc1dzdi4u-stroke" fill="none" stroke-linecap="round" stroke-linejoin="round" stroke-miterlimit="4" stroke="#A3A3A3" stroke-width="2"><g><path d="M 10 10L 38 10L 66 10L 66 45L 66 80L 80 80L 92 80"></path><path d="M 86 86.5L 92.5 80L 86 73.5" stroke-dasharray="none"></path></g></g></g><g id="g-root-cu_1cwrotk1dzdjpk-stroke" data-item-order="1000000002" data-item-id="cu_1cwrotk1dzdjpk" data-item-class="Curve Stroke" data-item-index="none" data-renderer-id="0" transform="translate(219, 389.39990234375)"><g id="cu_1cwrotk1dzdjpk-stroke" fill="none" stroke-linecap="round" stroke-linejoin="round" stroke-miterlimit="4" stroke="#A3A3A3" stroke-width="2"><g><path d="M 10 10L 31 10L 52 10L 52 102.8L 52 195.6L 73 195.6L 92 195.6"></path><path d="M 86 202.1L 92.5 195.6L 86 189.1" stroke-dasharray="none"></path></g></g></g><g id="g-root-cu_1lsep2g1dzdi4v-stroke" data-item-order="1000000002" data-item-id="cu_1lsep2g1dzdi4v" data-item-class="Curve Stroke" data-item-index="none" data-renderer-id="0" transform="translate(219, 435)"><g id="cu_1lsep2g1dzdi4v-stroke" fill="none" stroke-linecap="round" stroke-linejoin="round" stroke-miterlimit="4" stroke="#A3A3A3" stroke-width="2"><g><path d="M 10 168.4L 21 168.4L 32 168.4L 32 89.2L 32 10L 63 10L 92 10"></path><path d="M 86 16.5L 92.5 10L 86 3.5" stroke-dasharray="none"></path></g></g></g><g id="g-root-cu_18hkns81dzdhc4-stroke" data-item-order="1000000002" data-item-id="cu_18hkns81dzdhc4" data-item-class="Curve Stroke" data-item-index="none" data-renderer-id="0" transform="translate(495, 63)"><g id="cu_18hkns81dzdhc4-stroke" fill="none" stroke-linecap="round" stroke-linejoin="round" stroke-miterlimit="4" stroke="#A3A3A3" stroke-width="2"><g><path d="M 10 10L 24 10L 38 10L 38 115L 38 220L 52 220L 64 220"></path><path d="M 58 226.5L 64.5 220L 58 213.5" stroke-dasharray="none"></path></g></g></g><g id="g-root-cu_1hcl6y01dzdix7-stroke" data-item-order="1000000002" data-item-id="cu_1hcl6y01dzdix7" data-item-class="Curve Stroke" data-item-index="none" data-renderer-id="0" transform="translate(495, 575)"><g id="cu_1hcl6y01dzdix7-stroke" fill="none" stroke-linecap="round" stroke-linejoin="round" stroke-miterlimit="4" stroke="#A3A3A3" stroke-width="2"><g><path d="M 10 10L 24 10L 38 10L 38 45L 38 80L 52 80L 64 80"></path><path d="M 58 86.5L 64.5 80L 58 73.5" stroke-dasharray="none"></path></g></g></g><g id="g-root-cu_1lsep2g1dzdi4s-stroke" data-item-order="1000000002" data-item-id="cu_1lsep2g1dzdi4s" data-item-class="Curve Stroke" data-item-index="none" data-renderer-id="0" transform="translate(219, 593.39990234375)"><g id="cu_1lsep2g1dzdi4s-stroke" fill="none" stroke-linecap="round" stroke-linejoin="round" stroke-miterlimit="4" stroke="#A3A3A3" stroke-width="2"><g><path d="M 10 10L 21 10L 32 10L 32 64.8L 32 119.6L 63 119.6L 92 119.6"></path><path d="M 86 126.1L 92.5 119.6L 86 113.1" stroke-dasharray="none"></path></g></g></g><g id="g-root-cu_141r5ns1dzdi4h-stroke" data-item-order="1000000002" data-item-id="cu_141r5ns1dzdi4h" data-item-class="Curve Stroke" data-item-index="none" data-renderer-id="0" transform="translate(219, 63)"><g id="cu_141r5ns1dzdi4h-stroke" fill="none" stroke-linecap="round" stroke-linejoin="round" stroke-miterlimit="4" stroke="#A3A3A3" stroke-width="2"><g><path d="M 10 80L 38 80L 66 80L 66 45L 66 10L 80 10L 92 10"></path><path d="M 86 16.5L 92.5 10L 86 3.5" stroke-dasharray="none"></path></g></g></g><g id="g-root-cu_24odk1dzdjwm-stroke" data-item-order="1000000002" data-item-id="cu_24odk1dzdjwm" data-item-class="Curve Stroke" data-item-index="none" data-renderer-id="0" transform="translate(495, 645)"><g id="cu_24odk1dzdjwm-stroke" fill="none" stroke-linecap="round" stroke-linejoin="round" stroke-miterlimit="4" stroke="#A3A3A3" stroke-width="2"><g><path d="M 10 68L 24 68L 38 68L 38 39L 38 10L 52 10L 64 10"></path><path d="M 58 16.5L 64.5 10L 58 3.5" stroke-dasharray="none"></path></g></g></g></g></g></svg>