<?xml version="1.0" encoding="utf-8" standalone="yes"?>
<!DOCTYPE svg PUBLIC "-//W3C//DTD SVG 1.1//EN" "http://www.w3.org/Graphics/SVG/1.1/DTD/svg11.dtd">
<svg width="582" height="312" viewBox="0 0 582 312" style="fill:none;stroke:none;fill-rule:evenodd;clip-rule:evenodd;stroke-linecap:round;stroke-linejoin:round;stroke-miterlimit:1.5;" version="1.1" xmlns="http://www.w3.org/2000/svg" xmlns:xlink="http://www.w3.org/1999/xlink"><style id="fontImports">@import url("https://fonts.googleapis.com/css2?family=Roboto:wght@400;700&amp;display=block");</style><rect id="" x="0" y="0" width="582" height="312" style="fill: #2c2c2c;"></rect><g id="items" style="isolation: isolate"><g id="blend" style="mix-blend-mode:normal"><g id="g-root-2.cr-2_cr_92re551ejmjuy-fill" data-item-order="999953348" data-item-id="2.cr-2_cr_92re551ejmjuy" data-item-class="Shape Stroke Fill Part Indexed" data-item-index="2" data-renderer-id="0" transform="translate(386, 62)"><g id="2.cr-2_cr_92re551ejmjuy-fill" stroke="none" fill="#692e2c"><g><path d="M 10 64C 10 93.823377 34.176624 118 64 118C 93.823377 118 118 93.823377 118 64C 118 34.176624 93.823377 10 64 10C 34.176624 10 10 34.176624 10 64"></path></g></g></g><g id="g-root-1.cr-1_cr_hyeee11ejmj29-fill" data-item-order="999953350" data-item-id="1.cr-1_cr_hyeee11ejmj29" data-item-class="Shape Stroke Fill Part Indexed Indexed_1" data-item-index="1" data-renderer-id="0" transform="translate(62, 62)"><g id="1.cr-1_cr_hyeee11ejmj29-fill" stroke="none" fill="#2b503e"><g><path d="M 10 64C 10 93.823377 34.176624 118 64 118C 93.823377 118 118 93.823377 118 64C 118 34.176624 93.823377 10 64 10C 34.176624 10 10 34.176624 10 64"></path></g></g></g><g id="g-root-tx_cmointeg_zp1xsp1ejmjuw-fill" data-item-order="1000000000" data-item-id="tx_cmointeg_zp1xsp1ejmjuw" data-item-class="Label Stroke Title" data-item-index="none" data-renderer-id="0" transform="translate(158, 2)"><g id="tx_cmointeg_zp1xsp1ejmjuw-fill" stroke="none" fill="#A3A3A3"><g><text style="font: 20px Roboto, sans-serif; white-space: pre;" font-weight="20px" font-size="Roboto," font-family="sans-serif"><tspan x="16.27" y="34" dominant-baseline="ideographic">Oportunidades y desafíos</tspan></text></g></g></g><g id="g-root-flas_1cy0mzd1ejfjf1-fill" data-item-order="1000000000" data-item-id="flas_1cy0mzd1ejfjf1" data-item-class="Icon Stroke Indexed Indexed_1 InsideFill InsideColorFill" data-item-index="1" data-renderer-id="0" transform="translate(80, 80)"></g><g id="g-root-ligh_zrjxax1ejgxsf-fill" data-item-order="1000000000" data-item-id="ligh_zrjxax1ejgxsf" data-item-class="Icon Stroke Indexed Indexed_0" data-item-index="0" data-renderer-id="0" transform="translate(242, 80)"></g><g id="g-root-1_hz0ymx1ejgxzi-fill" data-item-order="1000000000" data-item-id="1_hz0ymx1ejgxzi" data-item-class="Icon Stroke Indexed InsideFill InsideColorFill" data-item-index="2" data-renderer-id="0" transform="translate(404, 80)"></g><g id="g-root-tx_experien_1d0ig611ejmi9z-fill" data-item-order="1000000000" data-item-id="tx_experien_1d0ig611ejmi9z" data-item-class="Label Stroke Indexed Indexed_1" data-item-index="1" data-renderer-id="0" transform="translate(14, 182)"><g id="tx_experien_1d0ig611ejmi9z-fill" stroke="none" fill="#44E095"><g><text style="font: bold 20px Roboto, sans-serif; white-space: pre;" font-weight="bold" font-size="20" font-family="Roboto, sans-serif"><tspan x="13.44" y="34" dominant-baseline="ideographic">Experiencia Favorable</tspan></text></g></g></g><g id="g-root-tx_experien_90vyvt1ejmkul-fill" data-item-order="1000000000" data-item-id="tx_experien_90vyvt1ejmkul" data-item-class="Label Stroke Indexed" data-item-index="2" data-renderer-id="0" transform="translate(326, 182)"><g id="tx_experien_90vyvt1ejmkul-fill" stroke="none" fill="#FD6A65"><g><text style="font: bold 20px Roboto, sans-serif; white-space: pre;" font-weight="bold" font-size="20" font-family="Roboto, sans-serif"><tspan x="13.46" y="34" dominant-baseline="ideographic">Experiencia Abrumadora</tspan></text></g></g></g><g id="g-root-tx_integral_1ur5zkp1ejmj2m-fill" data-item-order="1000000000" data-item-id="tx_integral_1ur5zkp1ejmj2m" data-item-class="Label Stroke Indexed Indexed_1" data-item-index="1" data-renderer-id="0" transform="translate(2, 218)"><g id="tx_integral_1ur5zkp1ejmj2m-fill" stroke="none" fill="#A3A3A3"><g><text style="font: 20px Roboto, sans-serif; white-space: pre;" font-weight="20px" font-size="Roboto," font-family="sans-serif"><tspan x="12.06" y="34" dominant-baseline="ideographic">Integra la tecnología con </tspan><tspan x="49.29" y="58" dominant-baseline="ideographic">éxito y mejora el </tspan><tspan x="70.21" y="82" dominant-baseline="ideographic">aprendizaje</tspan></text></g></g></g><g id="g-root-tx_luchacon_v7zhi11ejmih0-fill" data-item-order="1000000000" data-item-id="tx_luchacon_v7zhi11ejmih0" data-item-class="Label Stroke Indexed" data-item-index="2" data-renderer-id="0" transform="translate(320, 218)"><g id="tx_luchacon_v7zhi11ejmih0-fill" stroke="none" fill="#A3A3A3"><g><text style="font: 20px Roboto, sans-serif; white-space: pre;" font-weight="20px" font-size="Roboto," font-family="sans-serif"><tspan x="12.07" y="34" dominant-baseline="ideographic">Lucha con la integración y </tspan><tspan x="27.33" y="58" dominant-baseline="ideographic">se siente desmotivado</tspan></text></g></g></g><g id="g-root-2.cr-2_cr_92re551ejmjuy-stroke" data-item-order="999953348" data-item-id="2.cr-2_cr_92re551ejmjuy" data-item-class="Shape Stroke Fill Part Indexed" data-item-index="2" data-renderer-id="0" transform="translate(386, 62)"><g id="2.cr-2_cr_92re551ejmjuy-stroke" fill="none" stroke-linecap="round" stroke-linejoin="round" stroke-miterlimit="4" stroke="#FD6A65" stroke-width="2"><g><path d="M 10 64C 10 93.823377 34.176624 118 64 118C 93.823377 118 118 93.823377 118 64C 118 34.176624 93.823377 10 64 10C 34.176624 10 10 34.176624 10 64"></path></g></g></g><g id="g-root-1.cr-1_cr_hyeee11ejmj29-stroke" data-item-order="999953350" data-item-id="1.cr-1_cr_hyeee11ejmj29" data-item-class="Shape Stroke Fill Part Indexed Indexed_1" data-item-index="1" data-renderer-id="0" transform="translate(62, 62)"><g id="1.cr-1_cr_hyeee11ejmj29-stroke" fill="none" stroke-linecap="round" stroke-linejoin="round" stroke-miterlimit="4" stroke="#44E095" stroke-width="2"><g><path d="M 10 64C 10 93.823377 34.176624 118 64 118C 93.823377 118 118 93.823377 118 64C 118 34.176624 93.823377 10 64 10C 34.176624 10 10 34.176624 10 64"></path></g></g></g><g id="g-root-tx_cmointeg_zp1xsp1ejmjuw-stroke" data-item-order="1000000000" data-item-id="tx_cmointeg_zp1xsp1ejmjuw" data-item-class="Label Stroke Title" data-item-index="none" data-renderer-id="0" transform="translate(158, 2)"></g><g id="g-root-flas_1cy0mzd1ejfjf1-stroke" data-item-order="1000000000" data-item-id="flas_1cy0mzd1ejfjf1" data-item-class="Icon Stroke Indexed Indexed_1 InsideFill InsideColorFill" data-item-index="1" data-renderer-id="0" transform="translate(80, 80)"><g id="flas_1cy0mzd1ejfjf1-stroke" fill="none" stroke-linecap="round" stroke-linejoin="round" stroke-miterlimit="4" stroke="#44E095" stroke-width="2"><g><path d="M 61.75 34.702C 61.75 39.25835 65.443657 42.952 70 42.952C 74.556351 42.952 78.25 39.25835 78.25 34.702C 78.25 30.145651 74.556351 26.452 70 26.452C 65.443657 26.452 61.75 30.145651 61.75 34.702ZM 80.5 56.452C 80.5 50.653015 75.798988 45.952003 70 45.952003C 64.201019 45.952003 59.5 50.653015 59.5 56.452003L 59.5 65.451996L 64.249001 65.451996L 65.5 80.451996L 74.5 80.451996L 75.750999 65.451996L 80.5 65.451996ZM 13.75 34.702C 13.75 39.25835 17.443651 42.952 22 42.952C 26.556349 42.952 30.25 39.25835 30.25 34.702C 30.25 30.145651 26.556349 26.452 22 26.452C 17.443651 26.452 13.75 30.145651 13.75 34.702ZM 32.5 56.452C 32.5 50.653015 27.79899 45.952003 22 45.952003C 16.20101 45.952003 11.500001 50.653015 11.500001 56.452003L 11.5 65.451996L 16.249001 65.451996L 17.5 80.451996L 26.5 80.451996L 27.750999 65.451996L 32.5 65.451996ZM 37 32.455002L 41.5 32.455002L 41.5 44.454998L 56.139999 25.93C 56.520592 25.485037 56.607483 24.859287 56.362522 24.327461C 56.117558 23.795635 55.585529 23.454962 55 23.455L 50.5 23.455L 50.5 11.455L 35.862999 29.976999C 35.48082 30.421444 35.39254 31.047787 35.636993 31.580551C 35.881443 32.113312 36.413834 32.454872 37 32.455002Z"></path></g></g></g><g id="g-root-ligh_zrjxax1ejgxsf-stroke" data-item-order="1000000000" data-item-id="ligh_zrjxax1ejgxsf" data-item-class="Icon Stroke Indexed Indexed_0" data-item-index="0" data-renderer-id="0" transform="translate(242, 80)"><g id="ligh_zrjxax1ejgxsf-stroke" fill="none" stroke-linecap="round" stroke-linejoin="round" stroke-miterlimit="4" stroke="#A3A3A3" stroke-width="2"><g><path d="M 43.7155 60.25L 41.78965 75.448456C 41.6017 76.932404 43.444153 77.732651 44.395 76.57795C 47.01955 73.3909 50.811699 68.769402 54.856899 63.833954M 69.831848 45.546398C 71.379852 43.654751 72.706451 42.033249 73.705299 40.812103C 74.506447 39.832748 73.809097 38.36335 72.543854 38.36335L 69.158348 38.36335M 25.079649 52.911999L 19.49548 52.911999C 18.223511 52.911999 17.52829 51.428951 18.342926 50.452148L 22.779266 45.132549M 35.112999 30.346449C 39.87685 24.636566 44.504349 19.091724 47.564949 15.428576C 48.525852 14.278646 50.384201 15.095304 50.190849 16.581249L 48.589302 28.888599M 40.897453 54.801849L 46.692249 35.308601C 46.978149 34.346951 46.257702 33.3811 45.254501 33.3811L 42.439301 33.3811C 41.771049 33.3811 41.18335 33.823151 40.9981 34.465149L 36.3946 50.412849C 36.289299 50.77795 35.77 50.772701 35.67205 50.405647L 31.4233 34.494099C 31.2481 33.8377 30.6535 33.3811 29.97415 33.3811L 26.994999 33.3811C 25.99645 33.3811 25.276749 34.338249 25.553949 35.297501L 31.17985 54.7687C 31.7362 56.694099 33.498852 58.019501 35.503002 58.019501L 36.584049 58.019501C 38.575451 58.019501 40.329998 56.710602 40.897453 54.801849ZM 55.995251 52.8979C 54.671501 52.8979 53.315948 52.649349 52.157799 52.296249C 51.212952 52.008099 50.137451 52.530552 49.935249 53.497299L 49.494553 55.60405C 49.356548 56.263451 49.675148 56.93755 50.312199 57.156551C 51.677353 57.6259 53.664398 58.020248 55.7164 58.020248C 62.197296 58.020248 65.500153 54.6562 65.500153 50.398453C 65.500153 47.324951 63.797348 44.9491 59.738503 43.285149C 56.776901 42.0355 55.727348 41.490551 55.727348 40.328049C 55.727348 39.259899 56.758598 38.467899 58.703651 38.467899C 59.83075 38.467899 60.802898 38.636799 61.608551 38.862099C 62.52655 39.118752 63.545498 38.638149 63.765404 37.710701L 64.243744 35.694248C 64.408752 34.998253 64.061646 34.273598 63.381096 34.053402C 62.162048 33.658901 60.618248 33.381851 58.743996 33.381851C 52.776852 33.381851 49.470402 36.687851 49.470402 40.843899C 49.470402 43.873749 51.5695 46.227848 55.602547 47.924351C 58.15675 48.945248 59.221001 49.66465 59.221001 50.874397C 59.221001 52.084152 58.112801 52.8979 55.995251 52.8979Z"></path></g></g></g><g id="g-root-1_hz0ymx1ejgxzi-stroke" data-item-order="1000000000" data-item-id="1_hz0ymx1ejgxzi" data-item-class="Icon Stroke Indexed InsideFill InsideColorFill" data-item-index="2" data-renderer-id="0" transform="translate(404, 80)"><g id="1_hz0ymx1ejgxzi-stroke" fill="none" stroke-linecap="round" stroke-linejoin="round" stroke-miterlimit="4" stroke="#FD6A65" stroke-width="2"><g><path d="M 80.5 58C 80.5 62.142136 77.142136 65.5 73 65.5C 68.857864 65.5 65.5 62.142136 65.5 58C 65.5 53.857002 73 41.5 73 41.5C 73 41.5 80.5 53.857002 80.5 58ZM 32.5 29.5C 30.437405 32.406139 27.062469 34.093605 23.5 34M 59.5 29.5C 61.562599 32.406139 64.937531 34.093605 68.5 34M 29.5 40.75C 29.085787 40.75 28.75 40.414215 28.75 40C 28.75 39.585785 29.085787 39.25 29.5 39.25C 29.914213 39.25 30.25 39.585785 30.25 40C 30.25 40.414215 29.914213 40.75 29.5 40.75M 62.5 40.75C 62.914215 40.75 63.25 40.414215 63.25 40C 63.25 39.585785 62.914215 39.25 62.5 39.25C 62.085785 39.25 61.75 39.585785 61.75 40C 61.75 40.414215 62.085785 40.75 62.5 40.75M 58.402 64.659996C 56.271019 59.704315 51.394432 56.492954 46 56.492954C 40.605568 56.492954 35.728981 59.704315 33.598 64.659996C 33.229328 65.515602 33.434914 66.510422 34.112537 67.149803C 34.790161 67.789177 35.795227 67.936699 36.628002 67.518997C 39.533009 66.070015 42.75605 65.375679 46 65.5C 49.243946 65.375679 52.466988 66.070015 55.371998 67.518997C 56.204773 67.936699 57.209839 67.789177 57.887463 67.149803C 58.565086 66.510422 58.770676 65.515602 58.402 64.659996ZM 80.173004 41.5C 78.115646 25.729435 65.553413 13.403388 49.746651 11.645699C 33.93988 9.888009 18.976727 19.153275 13.505144 34.086632C 8.033562 49.019989 13.468682 65.759178 26.669277 74.629791C 39.869873 83.500397 57.421833 82.208191 69.181 71.5"></path></g></g></g><g id="g-root-tx_experien_1d0ig611ejmi9z-stroke" data-item-order="1000000000" data-item-id="tx_experien_1d0ig611ejmi9z" data-item-class="Label Stroke Indexed Indexed_1" data-item-index="1" data-renderer-id="0" transform="translate(14, 182)"></g><g id="g-root-tx_experien_90vyvt1ejmkul-stroke" data-item-order="1000000000" data-item-id="tx_experien_90vyvt1ejmkul" data-item-class="Label Stroke Indexed" data-item-index="2" data-renderer-id="0" transform="translate(326, 182)"></g><g id="g-root-tx_integral_1ur5zkp1ejmj2m-stroke" data-item-order="1000000000" data-item-id="tx_integral_1ur5zkp1ejmj2m" data-item-class="Label Stroke Indexed Indexed_1" data-item-index="1" data-renderer-id="0" transform="translate(2, 218)"></g><g id="g-root-tx_luchacon_v7zhi11ejmih0-stroke" data-item-order="1000000000" data-item-id="tx_luchacon_v7zhi11ejmih0" data-item-class="Label Stroke Indexed" data-item-index="2" data-renderer-id="0" transform="translate(320, 218)"></g></g></g></svg>