<?xml version="1.0" encoding="utf-8" standalone="yes"?>
<!DOCTYPE svg PUBLIC "-//W3C//DTD SVG 1.1//EN" "http://www.w3.org/Graphics/SVG/1.1/DTD/svg11.dtd">
<svg width="948" height="457" viewBox="0 0 948 457" style="fill:none;stroke:none;fill-rule:evenodd;clip-rule:evenodd;stroke-linecap:round;stroke-linejoin:round;stroke-miterlimit:1.5;" version="1.1" xmlns="http://www.w3.org/2000/svg" xmlns:xlink="http://www.w3.org/1999/xlink"><style id="fontImports">@import url("https://fonts.googleapis.com/css2?family=Roboto:wght@400;700&amp;display=block");</style><rect id="" x="0" y="0" width="948" height="457" style="fill: #2c2c2c;"></rect><g id="items" style="isolation: isolate"><g id="blend" style="mix-blend-mode:normal"><g id="g-root-ro_qunvnt1dfcxsb-fill" data-item-order="999970768" data-item-id="ro_qunvnt1dfcxsb" data-item-class="Shape Stroke Fill" data-item-index="none" data-renderer-id="0" transform="translate(380, 138)"><g id="ro_qunvnt1dfcxsb-fill" stroke="none" fill="#505050"><g><path d="M 34 10L 154 10C 154 10 178 10 178 34L 178 160C 178 160 178 184 154 184L 34 184C 34 184 10 184 10 160L 10 34C 10 34 10 10 34 10"></path></g></g></g><g id="g-root-ro_141rf2h1dfo6py-fill" data-item-order="999988336" data-item-id="ro_141rf2h1dfo6py" data-item-class="Shape Stroke Fill" data-item-index="none" data-renderer-id="0" transform="translate(122, 27)"><g id="ro_141rf2h1dfo6py-fill" stroke="none" fill="#293f64"><g><path d="M 22 10L 214 10C 214 10 226 10 226 22L 226 52C 226 52 226 64 214 64L 22 64C 22 64 10 64 10 52L 10 22C 10 22 10 10 22 10"></path></g></g></g><g id="g-root-ro_mfhafd1dfh6a6-fill" data-item-order="999991576" data-item-id="ro_mfhafd1dfh6a6" data-item-class="Shape Stroke Fill" data-item-index="none" data-renderer-id="0" transform="translate(182, 237)"><g id="ro_mfhafd1dfh6a6-fill" stroke="none" fill="#562d69"><g><path d="M 22 10L 154 10C 154 10 166 10 166 22L 166 52C 166 52 166 64 154 64L 22 64C 22 64 10 64 10 52L 10 22C 10 22 10 10 22 10"></path></g></g></g><g id="g-root-ro_hznitl1dfmr65-fill" data-item-order="999992872" data-item-id="ro_hznitl1dfmr65" data-item-class="Shape Stroke Fill" data-item-index="none" data-renderer-id="0" transform="translate(590, 3)"><g id="ro_hznitl1dfmr65-fill" stroke="none" fill="#2b503e"><g><path d="M 22 10L 130 10C 130 10 142 10 142 22L 142 52C 142 52 142 64 130 64L 22 64C 22 64 10 64 10 52L 10 22C 10 22 10 10 22 10"></path></g></g></g><g id="g-root-ro_hznlzd1dfle6k-fill" data-item-order="999992872" data-item-id="ro_hznlzd1dfle6k" data-item-class="Shape Stroke Fill" data-item-index="none" data-renderer-id="0" transform="translate(590, 237)"><g id="ro_hznlzd1dfle6k-fill" stroke="none" fill="#5a3f27"><g><path d="M 22 10L 130 10C 130 10 142 10 142 22L 142 52C 142 52 142 64 130 64L 22 64C 22 64 10 64 10 52L 10 22C 10 22 10 10 22 10"></path></g></g></g><g id="g-root-coup_1hd7xft1dfo551-fill" data-item-order="1000000000" data-item-id="coup_1hd7xft1dfo551" data-item-class="Icon Stroke" data-item-index="none" data-renderer-id="0" transform="translate(296, 39)"></g><g id="g-root-cu_1uuasqx1dfh633-fill" data-item-order="1000000000" data-item-id="cu_1uuasqx1dfh633" data-item-class="Curve Stroke ColorStrokeBlack" data-item-index="none" data-renderer-id="0" transform="translate(338, 54)"></g><g id="g-root-cu_1um6mmh1dfikg2-fill" data-item-order="1000000000" data-item-id="cu_1um6mmh1dfikg2" data-item-class="Curve Stroke ColorStrokeBlack" data-item-index="none" data-renderer-id="0" transform="translate(614, 57)"></g><g id="g-root-cu_1hbclc91dfiiv9-fill" data-item-order="1000000000" data-item-id="cu_1hbclc91dfiiv9" data-item-class="Curve Stroke ColorStrokeBlack" data-item-index="none" data-renderer-id="0" transform="translate(614, 57)"></g><g id="g-root-cu_13zw2yx1dfikg7-fill" data-item-order="1000000000" data-item-id="cu_13zw2yx1dfikg7" data-item-class="Curve Stroke ColorStrokeBlack" data-item-index="none" data-renderer-id="0" transform="translate(614, 57)"></g><g id="g-root-cu_8wj30p1dfij28-fill" data-item-order="1000000000" data-item-id="cu_8wj30p1dfij28" data-item-class="Curve Stroke ColorStrokeBlack" data-item-index="none" data-renderer-id="0" transform="translate(239.75, 81)"></g><g id="g-root-cu_hrjm6h1dfikni-fill" data-item-order="1000000000" data-item-id="cu_hrjm6h1dfikni" data-item-class="Curve Stroke ColorStrokeBlack" data-item-index="none" data-renderer-id="0" transform="translate(296, 81)"></g><g id="g-root-tx_propsito_14805xl1dfa58u-fill" data-item-order="1000000000" data-item-id="tx_propsito_14805xl1dfa58u" data-item-class="Label Stroke" data-item-index="none" data-renderer-id="0" transform="translate(638, 69)"><g id="tx_propsito_14805xl1dfa58u-fill" stroke="none" fill="#A3A3A3"><g><text style="font: 20px Roboto, sans-serif; white-space: pre;" font-weight="20px" font-size="Roboto," font-family="sans-serif"><tspan x="15.81" y="34" dominant-baseline="ideographic">Propósito: Facilitar la </tspan><tspan x="50.71" y="58" dominant-baseline="ideographic">investigación</tspan></text></g></g></g><g id="g-root-tx_propsito_mfh79l1dfa5fv-fill" data-item-order="1000000000" data-item-id="tx_propsito_mfh79l1dfa5fv" data-item-class="Label Stroke" data-item-index="none" data-renderer-id="0" transform="translate(2, 93)"><g id="tx_propsito_mfh79l1dfa5fv-fill" stroke="none" fill="#A3A3A3"><g><text style="font: 20px Roboto, sans-serif; white-space: pre;" font-weight="20px" font-size="Roboto," font-family="sans-serif"><tspan x="15.41" y="34" dominant-baseline="ideographic">Propósito: Motivar e identificar </tspan><tspan x="113.19" y="58" dominant-baseline="ideographic">desafíos</tspan></text></g></g></g><g id="g-root-cu_v304jt1dfij2j-fill" data-item-order="1000000000" data-item-id="cu_v304jt1dfij2j" data-item-class="Curve Stroke ColorStrokeBlack" data-item-index="none" data-renderer-id="0" transform="translate(296, 81)"></g><g id="g-root-tx_comprome_1uo1yq11dfo6pw-fill" data-item-order="1000000000" data-item-id="tx_comprome_1uo1yq11dfo6pw" data-item-class="Label Stroke" data-item-index="none" data-renderer-id="0" transform="translate(134, 42)"><g id="tx_comprome_1uo1yq11dfo6pw-fill" stroke="none" fill="#4F92FF"><g><text style="font: 20px Roboto, sans-serif; white-space: pre;" font-weight="20px" font-size="Roboto," font-family="sans-serif"><tspan x="15.96" y="34" dominant-baseline="ideographic">Comprometerse</tspan></text></g></g></g><g id="g-root-tx_activida_qn6j9l1dfbi8f-fill" data-item-order="1000000000" data-item-id="tx_activida_qn6j9l1dfbi8f" data-item-class="Label Stroke" data-item-index="none" data-renderer-id="0" transform="translate(638, 129)"><g id="tx_activida_qn6j9l1dfbi8f-fill" stroke="none" fill="#A3A3A3"><g><text style="font: 20px Roboto, sans-serif; white-space: pre;" font-weight="20px" font-size="Roboto," font-family="sans-serif"><tspan x="15.32" y="34" dominant-baseline="ideographic">Actividades: Sesiones 2 y 3</tspan></text></g></g></g><g id="g-root-tx_activida_4otnux1dfa4n8-fill" data-item-order="1000000000" data-item-id="tx_activida_4otnux1dfa4n8" data-item-class="Label Stroke" data-item-index="none" data-renderer-id="0" transform="translate(86, 153)"><g id="tx_activida_4otnux1dfa4n8-fill" stroke="none" fill="#A3A3A3"><g><text style="font: 20px Roboto, sans-serif; white-space: pre;" font-weight="20px" font-size="Roboto," font-family="sans-serif"><tspan x="17.08" y="34" dominant-baseline="ideographic">Actividades: Sesión 1</tspan></text></g></g></g><g id="g-root-mana_1464e151dfcw7e-fill" data-item-order="1000000000" data-item-id="mana_1464e151dfcw7e" data-item-class="Icon Stroke" data-item-index="none" data-renderer-id="0" transform="translate(440, 162)"></g><g id="g-root-tx_evidenci_hrjj0p1dfbjsw-fill" data-item-order="1000000000" data-item-id="tx_evidenci_hrjj0p1dfbjsw" data-item-class="Label Stroke" data-item-index="none" data-renderer-id="0" transform="translate(656, 165)"><g id="tx_evidenci_hrjj0p1dfbjsw-fill" stroke="none" fill="#A3A3A3"><g><text style="font: 20px Roboto, sans-serif; white-space: pre;" font-weight="20px" font-size="Roboto," font-family="sans-serif"><tspan x="14.66" y="34" dominant-baseline="ideographic">Evidencias: Diseño de la </tspan><tspan x="70.63" y="58" dominant-baseline="ideographic">experiencia</tspan></text></g></g></g><g id="g-root-tx_evidenci_1qf3ojt1dfa2v9-fill" data-item-order="1000000000" data-item-id="tx_evidenci_1qf3ojt1dfa2v9" data-item-class="Label Stroke" data-item-index="none" data-renderer-id="0" transform="translate(56, 189)"><g id="tx_evidenci_1qf3ojt1dfa2v9-fill" stroke="none" fill="#A3A3A3"><g><text style="font: 20px Roboto, sans-serif; white-space: pre;" font-weight="20px" font-size="Roboto," font-family="sans-serif"><tspan x="13.46" y="34" dominant-baseline="ideographic">Evidencias: Desafío</tspan></text></g></g></g><g id="g-root-tx_etapasde_1hgyfbd1dfcxs9-fill" data-item-order="1000000000" data-item-id="tx_etapasde_1hgyfbd1dfcxs9" data-item-class="Label Stroke" data-item-index="none" data-renderer-id="0" transform="translate(404, 216)"><g id="tx_etapasde_1hgyfbd1dfcxs9-fill" stroke="none" fill="#A3A3A3"><g><text style="font: 20px Roboto, sans-serif; white-space: pre;" font-weight="20px" font-size="Roboto," font-family="sans-serif"><tspan x="15.13" y="34" dominant-baseline="ideographic">Aprendizaje </tspan><tspan x="21.24" y="58" dominant-baseline="ideographic">basado en </tspan><tspan x="16.73" y="82" dominant-baseline="ideographic">micro-retos</tspan></text></g></g></g><g id="g-root-tx_indagar_18ly2h51dfmr63-fill" data-item-order="1000000000" data-item-id="tx_indagar_18ly2h51dfmr63" data-item-class="Label Stroke" data-item-index="none" data-renderer-id="0" transform="translate(638, 18)"><g id="tx_indagar_18ly2h51dfmr63-fill" stroke="none" fill="#44E095"><g><text style="font: 20px Roboto, sans-serif; white-space: pre;" font-weight="20px" font-size="Roboto," font-family="sans-serif"><tspan x="12.25" y="34" dominant-baseline="ideographic">Indagar</tspan></text></g></g></g><g id="g-root-cu_1qf3rpl1dfh3pm-fill" data-item-order="1000000000" data-item-id="cu_1qf3rpl1dfh3pm" data-item-class="Curve Stroke ColorStrokeBlack" data-item-index="none" data-renderer-id="0" transform="translate(548, 30)"></g><g id="g-root-tx_comparti_1qd8cg91dfh4p8-fill" data-item-order="1000000000" data-item-id="tx_comparti_1qd8cg91dfh4p8" data-item-class="Label Stroke" data-item-index="none" data-renderer-id="0" transform="translate(194, 252)"><g id="tx_comparti_1qd8cg91dfh4p8-fill" stroke="none" fill="#CD6AFB"><g><text style="font: 20px Roboto, sans-serif; white-space: pre;" font-weight="20px" font-size="Roboto," font-family="sans-serif"><tspan x="13.26" y="34" dominant-baseline="ideographic">Compartir</tspan></text></g></g></g><g id="g-root-shar_zqxssp1dfh4p9-fill" data-item-order="1000000000" data-item-id="shar_zqxssp1dfh4p9" data-item-class="Icon Stroke" data-item-index="none" data-renderer-id="0" transform="translate(296, 249)"></g><g id="g-root-cu_18ntr7t1dfh62w-fill" data-item-order="1000000000" data-item-id="cu_18ntr7t1dfh62w" data-item-class="Curve Stroke ColorStrokeBlack" data-item-index="none" data-renderer-id="0" transform="translate(338, 254)"></g><g id="g-root-cu_1d3n9c91dfh5al-fill" data-item-order="1000000000" data-item-id="cu_1d3n9c91dfh5al" data-item-class="Curve Stroke ColorStrokeBlack" data-item-index="none" data-renderer-id="0" transform="translate(548, 254)"></g><g id="g-root-educ_146r4ll1dflbsz-fill" data-item-order="1000000000" data-item-id="educ_146r4ll1dflbsz" data-item-class="Icon Stroke" data-item-index="none" data-renderer-id="0" transform="translate(602, 249)"></g><g id="g-root-tx_actuar_1lxeo091dflclm-fill" data-item-order="1000000000" data-item-id="tx_actuar_1lxeo091dflclm" data-item-class="Label Stroke" data-item-index="none" data-renderer-id="0" transform="translate(638, 252)"><g id="tx_actuar_1lxeo091dflclm-fill" stroke="none" fill="#F99539"><g><text style="font: 20px Roboto, sans-serif; white-space: pre;" font-weight="20px" font-size="Roboto," font-family="sans-serif"><tspan x="16.64" y="34" dominant-baseline="ideographic">Actuar</tspan></text></g></g></g><g id="g-root-tx_propsito_qofhft1dfbkek-fill" data-item-order="1000000000" data-item-id="tx_propsito_qofhft1dfbkek" data-item-class="Label Stroke" data-item-index="none" data-renderer-id="0" transform="translate(2, 303)"><g id="tx_propsito_qofhft1dfbkek-fill" stroke="none" fill="#A3A3A3"><g><text style="font: 20px Roboto, sans-serif; white-space: pre;" font-weight="20px" font-size="Roboto," font-family="sans-serif"><tspan x="14.62" y="34" dominant-baseline="ideographic">Propósito: Compartir Hallazgos</tspan></text></g></g></g><g id="g-root-cu_1q88jrd1dfik91-fill" data-item-order="1000000000" data-item-id="cu_1q88jrd1dfik91" data-item-class="Curve Stroke ColorStrokeBlack" data-item-index="none" data-renderer-id="0" transform="translate(264.6956481933594, 291)"></g><g id="g-root-cu_4il05l1dfiiv7-fill" data-item-order="1000000000" data-item-id="cu_4il05l1dfiiv7" data-item-class="Curve Stroke ColorStrokeBlack" data-item-index="none" data-renderer-id="0" transform="translate(283.368408203125, 291)"></g><g id="g-root-cu_8xs16x1dfil8o-fill" data-item-order="1000000000" data-item-id="cu_8xs16x1dfil8o" data-item-class="Curve Stroke ColorStrokeBlack" data-item-index="none" data-renderer-id="0" transform="translate(296, 291)"></g><g id="g-root-cu_m98jk91dfijnq-fill" data-item-order="1000000000" data-item-id="cu_m98jk91dfijnq" data-item-class="Curve Stroke ColorStrokeBlack" data-item-index="none" data-renderer-id="0" transform="translate(575.7894897460938, 291)"></g><g id="g-root-cu_zk2kuh1dfil8h-fill" data-item-order="1000000000" data-item-id="cu_zk2kuh1dfil8h" data-item-class="Curve Stroke ColorStrokeBlack" data-item-index="none" data-renderer-id="0" transform="translate(614, 291)"></g><g id="g-root-tx_evidenci_13zvzt51dfbitn-fill" data-item-order="1000000000" data-item-id="tx_evidenci_13zvzt51dfbitn" data-item-class="Label Stroke" data-item-index="none" data-renderer-id="0" transform="translate(596, 411)"><g id="tx_evidenci_13zvzt51dfbitn-fill" stroke="none" fill="#A3A3A3"><g><text style="font: 20px Roboto, sans-serif; white-space: pre;" font-weight="20px" font-size="Roboto," font-family="sans-serif"><tspan x="12.86" y="34" dominant-baseline="ideographic">Evidencias: Planificación detallada</tspan></text></g></g></g><g id="g-root-tx_propsito_4gphqh1dfbi81-fill" data-item-order="1000000000" data-item-id="tx_propsito_4gphqh1dfbi81" data-item-class="Label Stroke" data-item-index="none" data-renderer-id="0" transform="translate(662, 315)"><g id="tx_propsito_4gphqh1dfbi81-fill" stroke="none" fill="#A3A3A3"><g><text style="font: 20px Roboto, sans-serif; white-space: pre;" font-weight="20px" font-size="Roboto," font-family="sans-serif"><tspan x="14.14" y="34" dominant-baseline="ideographic">Propósito: Material didáctico</tspan></text></g></g></g><g id="g-root-tx_activida_ddlg5l1dfbitp-fill" data-item-order="1000000000" data-item-id="tx_activida_ddlg5l1dfbitp" data-item-class="Label Stroke" data-item-index="none" data-renderer-id="0" transform="translate(74, 351)"><g id="tx_activida_ddlg5l1dfbitp-fill" stroke="none" fill="#A3A3A3"><g><text style="font: 20px Roboto, sans-serif; white-space: pre;" font-weight="20px" font-size="Roboto," font-family="sans-serif"><tspan x="17.08" y="34" dominant-baseline="ideographic">Actividades: Sesión 4</tspan></text></g></g></g><g id="g-root-tx_activida_1q6d1c91dfbjlu-fill" data-item-order="1000000000" data-item-id="tx_activida_1q6d1c91dfbjlu" data-item-class="Label Stroke" data-item-index="none" data-renderer-id="0" transform="translate(638, 363)"><g id="tx_activida_1q6d1c91dfbjlu-fill" stroke="none" fill="#A3A3A3"><g><text style="font: 20px Roboto, sans-serif; white-space: pre;" font-weight="20px" font-size="Roboto," font-family="sans-serif"><tspan x="15.32" y="34" dominant-baseline="ideographic">Actividades: Sesiones 3 y 4</tspan></text></g></g></g><g id="g-root-tx_evidenci_1uo1yq11dfbhty-fill" data-item-order="1000000000" data-item-id="tx_evidenci_1uo1yq11dfbhty" data-item-class="Label Stroke" data-item-index="none" data-renderer-id="0" transform="translate(44, 387)"><g id="tx_evidenci_1uo1yq11dfbhty-fill" stroke="none" fill="#A3A3A3"><g><text style="font: 20px Roboto, sans-serif; white-space: pre;" font-weight="20px" font-size="Roboto," font-family="sans-serif"><tspan x="12.34" y="34" dominant-baseline="ideographic">Evidencias: Repositorio </tspan><tspan x="62.13" y="58" dominant-baseline="ideographic">comunitario</tspan></text></g></g></g><g id="g-root-sear_vahk3t1dfmsr0-fill" data-item-order="1000000000" data-item-id="sear_vahk3t1dfmsr0" data-item-class="Icon Stroke" data-item-index="none" data-renderer-id="0" transform="translate(602, 15)"></g><g id="g-root-cu_qp21op1dfiivg-fill" data-item-order="1000000000" data-item-id="cu_qp21op1dfiivg" data-item-class="Curve Stroke ColorStrokeBlack" data-item-index="none" data-renderer-id="0" transform="translate(614, 291)"></g><g id="g-root-ro_qunvnt1dfcxsb-stroke" data-item-order="999970768" data-item-id="ro_qunvnt1dfcxsb" data-item-class="Shape Stroke Fill" data-item-index="none" data-renderer-id="0" transform="translate(380, 138)"><g id="ro_qunvnt1dfcxsb-stroke" fill="none" stroke-linecap="round" stroke-linejoin="round" stroke-miterlimit="4" stroke="#A3A3A3" stroke-width="2"><g><path d="M 34 10L 154 10C 154 10 178 10 178 34L 178 160C 178 160 178 184 154 184L 34 184C 34 184 10 184 10 160L 10 34C 10 34 10 10 34 10"></path></g></g></g><g id="g-root-ro_141rf2h1dfo6py-stroke" data-item-order="999988336" data-item-id="ro_141rf2h1dfo6py" data-item-class="Shape Stroke Fill" data-item-index="none" data-renderer-id="0" transform="translate(122, 27)"><g id="ro_141rf2h1dfo6py-stroke" fill="none" stroke-linecap="round" stroke-linejoin="round" stroke-miterlimit="4" stroke="#4F92FF" stroke-width="2"><g><path d="M 22 10L 214 10C 214 10 226 10 226 22L 226 52C 226 52 226 64 214 64L 22 64C 22 64 10 64 10 52L 10 22C 10 22 10 10 22 10"></path></g></g></g><g id="g-root-ro_mfhafd1dfh6a6-stroke" data-item-order="999991576" data-item-id="ro_mfhafd1dfh6a6" data-item-class="Shape Stroke Fill" data-item-index="none" data-renderer-id="0" transform="translate(182, 237)"><g id="ro_mfhafd1dfh6a6-stroke" fill="none" stroke-linecap="round" stroke-linejoin="round" stroke-miterlimit="4" stroke="#CD6AFB" stroke-width="2"><g><path d="M 22 10L 154 10C 154 10 166 10 166 22L 166 52C 166 52 166 64 154 64L 22 64C 22 64 10 64 10 52L 10 22C 10 22 10 10 22 10"></path></g></g></g><g id="g-root-ro_hznitl1dfmr65-stroke" data-item-order="999992872" data-item-id="ro_hznitl1dfmr65" data-item-class="Shape Stroke Fill" data-item-index="none" data-renderer-id="0" transform="translate(590, 3)"><g id="ro_hznitl1dfmr65-stroke" fill="none" stroke-linecap="round" stroke-linejoin="round" stroke-miterlimit="4" stroke="#44E095" stroke-width="2"><g><path d="M 22 10L 130 10C 130 10 142 10 142 22L 142 52C 142 52 142 64 130 64L 22 64C 22 64 10 64 10 52L 10 22C 10 22 10 10 22 10"></path></g></g></g><g id="g-root-ro_hznlzd1dfle6k-stroke" data-item-order="999992872" data-item-id="ro_hznlzd1dfle6k" data-item-class="Shape Stroke Fill" data-item-index="none" data-renderer-id="0" transform="translate(590, 237)"><g id="ro_hznlzd1dfle6k-stroke" fill="none" stroke-linecap="round" stroke-linejoin="round" stroke-miterlimit="4" stroke="#F99539" stroke-width="2"><g><path d="M 22 10L 130 10C 130 10 142 10 142 22L 142 52C 142 52 142 64 130 64L 22 64C 22 64 10 64 10 52L 10 22C 10 22 10 10 22 10"></path></g></g></g><g id="g-root-coup_1hd7xft1dfo551-stroke" data-item-order="1000000000" data-item-id="coup_1hd7xft1dfo551" data-item-class="Icon Stroke" data-item-index="none" data-renderer-id="0" transform="translate(296, 39)"><g id="coup_1hd7xft1dfo551-stroke" fill="none" stroke-linecap="round" stroke-linejoin="round" stroke-miterlimit="4" stroke="#4F92FF" stroke-width="2"><g><path d="M 27.61375 13.27375L 27.25 12.95C 26.966209 12.69739 26.803875 12.335559 26.803875 11.955626C 26.803875 11.575691 26.966209 11.213861 27.25 10.96125L 27.25 10.96125C 27.493958 10.744717 27.808807 10.625091 28.135 10.625L 29.365 10.625C 29.691193 10.625091 30.006044 10.744717 30.25 10.96125L 30.25 10.96125C 30.533791 11.213861 30.696127 11.575691 30.696127 11.955626C 30.696127 12.335559 30.533791 12.69739 30.25 12.95L 29.88625 13.27375M 13.125 28.125C 13.125 30.196068 14.803932 31.875 16.875 31.875C 18.946068 31.875 20.625 30.196068 20.625 28.125C 20.625 26.053932 18.946068 24.375 16.875 24.375C 14.803932 24.375 13.125 26.053932 13.125 28.125ZM 13.64375 26.221251C 15.443954 28.086033 18.210381 28.642006 20.591249 27.6175M 37.677502 32.055C 37.178169 31.235468 36.929214 30.28788 36.961246 29.328749L 36.96125 28.213751C 36.96125 26.095049 35.243702 24.377501 33.125 24.377501C 31.006298 24.377501 29.288752 26.095049 29.288752 28.213751L 29.28875 29.328751C 29.320782 30.28788 29.071829 31.235468 28.572498 32.055M 29.28875 28.8475C 30.761997 28.84511 32.161682 28.203417 33.125 27.088751C 34.088318 28.203417 35.488007 28.84511 36.96125 28.847502M 29.7575 28.825001C 29.930901 30.555088 31.386868 31.872423 33.125626 31.872423C 34.864384 31.872423 36.320347 30.555088 36.493752 28.825001M 16.875 33.125C 13.423221 33.125 10.625 35.923222 10.625 39.375L 23.125 39.375C 23.125 35.923222 20.32678 33.125 16.875 33.125ZM 33.125 33.125C 29.673222 33.125 26.875 35.923222 26.875 39.375L 39.375 39.375C 39.375 35.923222 36.576782 33.125 33.125 33.125ZM 27.875 21.786249C 29.687656 22.156258 31.537106 21.346109 32.494133 19.762846C 33.451164 18.179585 33.308872 16.165495 32.138748 14.732512C 30.968626 13.29953 29.023643 12.757453 27.281013 13.378636C 25.538385 13.999819 24.374849 15.649966 24.375002 17.5M 23.375 13.21375C 21.562346 12.843743 19.712896 13.653892 18.755867 15.237154C 17.798838 16.820417 17.941132 18.834507 19.111254 20.267488C 20.281376 21.70047 22.226358 22.242548 23.968987 21.621365C 25.711617 21.000183 26.875151 19.350035 26.875002 17.5"></path></g></g></g><g id="g-root-cu_1uuasqx1dfh633-stroke" data-item-order="1000000000" data-item-id="cu_1uuasqx1dfh633" data-item-class="Curve Stroke ColorStrokeBlack" data-item-index="none" data-renderer-id="0" transform="translate(338, 54)"><g id="cu_1uuasqx1dfh633-stroke" fill="none" stroke-linecap="round" stroke-linejoin="round" stroke-miterlimit="4" stroke="#666666" stroke-width="2" stroke-dasharray="5.0, 7.0"><g><path d="M 52 152L 49 152L 48.9 152C 37.357247 151.999989 27.999999 142.642741 27.999999 131.099991L 28 131L 28 105C 28.018932 101.335848 28.287177 97.278635 28.799999 92.899997C 29.047764 90.425247 29.823306 86.230266 31.000005 80.999996C 32.176703 75.769725 32.952246 71.574744 33.200004 69.099996C 33.71282 64.72136 33.981066 60.664146 33.999999 56.999999L 34 56.9L 34 30.9C 33.999998 19.357248 24.64275 10 13.1 10L 13 10L 10 10"></path></g></g></g><g id="g-root-cu_1um6mmh1dfikg2-stroke" data-item-order="1000000000" data-item-id="cu_1um6mmh1dfikg2" data-item-class="Curve Stroke ColorStrokeBlack" data-item-index="none" data-renderer-id="0" transform="translate(614, 57)"><g id="cu_1um6mmh1dfikg2-stroke" fill="none" stroke-linecap="round" stroke-linejoin="round" stroke-miterlimit="4" stroke="#666666" stroke-width="2" stroke-dasharray="5.0, 7.0"><g><path d="M 10 10L 10 28L 10 46L 19 46L 28 46"></path></g></g></g><g id="g-root-cu_1hbclc91dfiiv9-stroke" data-item-order="1000000000" data-item-id="cu_1hbclc91dfiiv9" data-item-class="Curve Stroke ColorStrokeBlack" data-item-index="none" data-renderer-id="0" transform="translate(614, 57)"><g id="cu_1hbclc91dfiiv9-stroke" fill="none" stroke-linecap="round" stroke-linejoin="round" stroke-miterlimit="4" stroke="#666666" stroke-width="2" stroke-dasharray="5.0, 7.0"><g><path d="M 10 10L 10 52L 10 94L 19 94L 28 94"></path></g></g></g><g id="g-root-cu_13zw2yx1dfikg7-stroke" data-item-order="1000000000" data-item-id="cu_13zw2yx1dfikg7" data-item-class="Curve Stroke ColorStrokeBlack" data-item-index="none" data-renderer-id="0" transform="translate(614, 57)"><g id="cu_13zw2yx1dfikg7-stroke" fill="none" stroke-linecap="round" stroke-linejoin="round" stroke-miterlimit="4" stroke="#666666" stroke-width="2" stroke-dasharray="5.0, 7.0"><g><path d="M 10 10L 10 26.5L 10 130C 10.000005 136.627425 15.372589 142.000008 22.000006 142.000007L 22.1 142L 46.8 142"></path></g></g></g><g id="g-root-cu_8wj30p1dfij28-stroke" data-item-order="1000000000" data-item-id="cu_8wj30p1dfij28" data-item-class="Curve Stroke ColorStrokeBlack" data-item-index="none" data-renderer-id="0" transform="translate(239.75, 81)"><g id="cu_8wj30p1dfij28-stroke" fill="none" stroke-linecap="round" stroke-linejoin="round" stroke-miterlimit="4" stroke="#666666" stroke-width="2" stroke-dasharray="5.0, 7.0"><g><path d="M 84.3 10L 84.3 25L 84.3 118C 84.300005 124.627428 78.927421 130.000012 72.300003 130.000011L 72.2 130L 10 130"></path></g></g></g><g id="g-root-cu_hrjm6h1dfikni-stroke" data-item-order="1000000000" data-item-id="cu_hrjm6h1dfikni" data-item-class="Curve Stroke ColorStrokeBlack" data-item-index="none" data-renderer-id="0" transform="translate(296, 81)"><g id="cu_hrjm6h1dfikni-stroke" fill="none" stroke-linecap="round" stroke-linejoin="round" stroke-miterlimit="4" stroke="#666666" stroke-width="2" stroke-dasharray="5.0, 7.0"><g><path d="M 28 10L 28 52L 28 94L 19 94L 10 94"></path></g></g></g><g id="g-root-tx_propsito_14805xl1dfa58u-stroke" data-item-order="1000000000" data-item-id="tx_propsito_14805xl1dfa58u" data-item-class="Label Stroke" data-item-index="none" data-renderer-id="0" transform="translate(638, 69)"></g><g id="g-root-tx_propsito_mfh79l1dfa5fv-stroke" data-item-order="1000000000" data-item-id="tx_propsito_mfh79l1dfa5fv" data-item-class="Label Stroke" data-item-index="none" data-renderer-id="0" transform="translate(2, 93)"></g><g id="g-root-cu_v304jt1dfij2j-stroke" data-item-order="1000000000" data-item-id="cu_v304jt1dfij2j" data-item-class="Curve Stroke ColorStrokeBlack" data-item-index="none" data-renderer-id="0" transform="translate(296, 81)"><g id="cu_v304jt1dfij2j-stroke" fill="none" stroke-linecap="round" stroke-linejoin="round" stroke-miterlimit="4" stroke="#666666" stroke-width="2" stroke-dasharray="5.0, 7.0"><g><path d="M 28 10L 28 28L 28 46L 19 46L 10 46"></path></g></g></g><g id="g-root-tx_comprome_1uo1yq11dfo6pw-stroke" data-item-order="1000000000" data-item-id="tx_comprome_1uo1yq11dfo6pw" data-item-class="Label Stroke" data-item-index="none" data-renderer-id="0" transform="translate(134, 42)"></g><g id="g-root-tx_activida_qn6j9l1dfbi8f-stroke" data-item-order="1000000000" data-item-id="tx_activida_qn6j9l1dfbi8f" data-item-class="Label Stroke" data-item-index="none" data-renderer-id="0" transform="translate(638, 129)"></g><g id="g-root-tx_activida_4otnux1dfa4n8-stroke" data-item-order="1000000000" data-item-id="tx_activida_4otnux1dfa4n8" data-item-class="Label Stroke" data-item-index="none" data-renderer-id="0" transform="translate(86, 153)"></g><g id="g-root-mana_1464e151dfcw7e-stroke" data-item-order="1000000000" data-item-id="mana_1464e151dfcw7e" data-item-class="Icon Stroke" data-item-index="none" data-renderer-id="0" transform="translate(440, 162)"><g id="mana_1464e151dfcw7e-stroke" fill="none" stroke-linecap="round" stroke-linejoin="round" stroke-miterlimit="4" stroke="#A3A3A3" stroke-width="2"><g><path d="M 12 34L 16 34M 24 34L 34 34M 42 34L 56 34M 51.953999 30L 56 34L 51.953999 38M 16 34C 16 36.209137 17.790861 38 20 38C 22.209139 38 24 36.209137 24 34C 24 31.790861 22.209139 30 20 30C 17.790861 30 16 31.790861 16 34M 34 34C 34 36.209137 35.790863 38 38 38C 40.209137 38 42 36.209137 42 34C 42 31.790861 40.209137 30 38 30C 35.790863 30 34 31.790861 34 34M 38 30L 38 23M 20 45L 20 38M 32 11L 44 11C 44 11 46 11 46 13L 46 21C 46 21 46 23 44 23L 32 23C 32 23 30 23 30 21L 30 13C 30 13 30 11 32 11M 14 45L 26 45C 26 45 28 45 28 47L 28 55C 28 55 28 57 26 57L 14 57C 14 57 12 57 12 55L 12 47C 12 47 12 45 14 45"></path></g></g></g><g id="g-root-tx_evidenci_hrjj0p1dfbjsw-stroke" data-item-order="1000000000" data-item-id="tx_evidenci_hrjj0p1dfbjsw" data-item-class="Label Stroke" data-item-index="none" data-renderer-id="0" transform="translate(656, 165)"></g><g id="g-root-tx_evidenci_1qf3ojt1dfa2v9-stroke" data-item-order="1000000000" data-item-id="tx_evidenci_1qf3ojt1dfa2v9" data-item-class="Label Stroke" data-item-index="none" data-renderer-id="0" transform="translate(56, 189)"></g><g id="g-root-tx_etapasde_1hgyfbd1dfcxs9-stroke" data-item-order="1000000000" data-item-id="tx_etapasde_1hgyfbd1dfcxs9" data-item-class="Label Stroke" data-item-index="none" data-renderer-id="0" transform="translate(404, 216)"></g><g id="g-root-tx_indagar_18ly2h51dfmr63-stroke" data-item-order="1000000000" data-item-id="tx_indagar_18ly2h51dfmr63" data-item-class="Label Stroke" data-item-index="none" data-renderer-id="0" transform="translate(638, 18)"></g><g id="g-root-cu_1qf3rpl1dfh3pm-stroke" data-item-order="1000000000" data-item-id="cu_1qf3rpl1dfh3pm" data-item-class="Curve Stroke ColorStrokeBlack" data-item-index="none" data-renderer-id="0" transform="translate(548, 30)"><g id="cu_1qf3rpl1dfh3pm-stroke" fill="none" stroke-linecap="round" stroke-linejoin="round" stroke-miterlimit="4" stroke="#666666" stroke-width="2" stroke-dasharray="5.0, 7.0"><g><path d="M 10 176L 13 176L 13.1 176C 24.642744 175.999997 33.999993 166.642748 33.999994 155.099997L 34 155L 34 117C 33.981066 113.335846 33.712821 109.278633 33.199999 104.899994C 32.952239 102.425245 32.176697 98.230264 30.999998 92.999994C 29.8233 87.769723 29.047757 83.574742 28.799998 81.099995C 28.287178 76.721357 28.018932 72.664144 27.999999 68.999996L 28 68.9L 28 30.9C 27.999999 19.357249 37.357248 10.000001 48.899999 10.000001L 49 10L 52 10"></path></g></g></g><g id="g-root-tx_comparti_1qd8cg91dfh4p8-stroke" data-item-order="1000000000" data-item-id="tx_comparti_1qd8cg91dfh4p8" data-item-class="Label Stroke" data-item-index="none" data-renderer-id="0" transform="translate(194, 252)"></g><g id="g-root-shar_zqxssp1dfh4p9-stroke" data-item-order="1000000000" data-item-id="shar_zqxssp1dfh4p9" data-item-class="Icon Stroke" data-item-index="none" data-renderer-id="0" transform="translate(296, 249)"><g id="shar_zqxssp1dfh4p9-stroke" fill="none" stroke-linecap="round" stroke-linejoin="round" stroke-miterlimit="4" stroke="#CD6AFB" stroke-width="2"><g><path d="M 20.625 35.625L 11.875 35.625C 11.184644 35.625 10.625 35.065353 10.625 34.375L 10.625 14.375C 10.625 13.684644 11.184644 13.125 11.875 13.125L 29.375 13.125C 30.065355 13.125 30.625 13.684644 30.625 14.375L 30.625 24.375M 15.625 15.625L 15.625 10.625M 20.625 15.625L 20.625 10.625M 25.625 15.625L 25.625 10.625M 24.375 32.8125C 24.375 34.365803 25.634199 35.625 27.1875 35.625C 28.740801 35.625 30 34.365803 30 32.8125C 30 31.259197 28.740801 30 27.1875 30C 25.634199 30 24.375 31.259197 24.375 32.8125ZM 33.75 36.5625C 33.75 38.115803 35.009197 39.375 36.5625 39.375C 38.115803 39.375 39.375 38.115803 39.375 36.5625C 39.375 35.009197 38.115803 33.75 36.5625 33.75C 35.009197 33.75 33.75 35.009197 33.75 36.5625ZM 33.75 27.1875C 33.75 28.740801 35.009197 30 36.5625 30C 38.115803 30 39.375 28.740801 39.375 27.1875C 39.375 25.634199 38.115803 24.375 36.5625 24.375C 35.009197 24.375 33.75 25.634199 33.75 27.1875ZM 29.59375 31.36875L 34.15625 28.63125M 29.797501 33.856247L 33.952499 35.518753"></path></g></g></g><g id="g-root-cu_18ntr7t1dfh62w-stroke" data-item-order="1000000000" data-item-id="cu_18ntr7t1dfh62w" data-item-class="Curve Stroke ColorStrokeBlack" data-item-index="none" data-renderer-id="0" transform="translate(338, 254)"><g id="cu_18ntr7t1dfh62w-stroke" fill="none" stroke-linecap="round" stroke-linejoin="round" stroke-miterlimit="4" stroke="#666666" stroke-width="2" stroke-dasharray="5.0, 7.0"><g><path d="M 52 10L 49.4 10L 49.3 10C 46.398124 10.008521 43.194072 10.44697 39.8 11.3C 37.784921 11.79031 34.679894 13.095832 31.000001 14.999998C 27.320107 16.904164 24.21508 18.209687 22.200001 18.699999C 18.805929 19.55303 15.601877 19.991479 12.7 20L 12.6 20L 10 20"></path></g></g></g><g id="g-root-cu_1d3n9c91dfh5al-stroke" data-item-order="1000000000" data-item-id="cu_1d3n9c91dfh5al" data-item-class="Curve Stroke ColorStrokeBlack" data-item-index="none" data-renderer-id="0" transform="translate(548, 254)"><g id="cu_1d3n9c91dfh5al-stroke" fill="none" stroke-linecap="round" stroke-linejoin="round" stroke-miterlimit="4" stroke="#666666" stroke-width="2" stroke-dasharray="5.0, 7.0"><g><path d="M 10 10L 12.6 10L 12.7 10C 15.601877 10.008521 18.805929 10.44697 22.2 11.3C 24.21508 11.790313 27.320106 13.095835 31 15.000001C 34.679894 16.904167 37.784921 18.20969 39.8 18.700002C 43.194072 19.55303 46.398124 19.991479 49.300001 20L 49.4 20L 52 20"></path></g></g></g><g id="g-root-educ_146r4ll1dflbsz-stroke" data-item-order="1000000000" data-item-id="educ_146r4ll1dflbsz" data-item-class="Icon Stroke" data-item-index="none" data-renderer-id="0" transform="translate(602, 249)"><g id="educ_146r4ll1dflbsz-stroke" fill="none" stroke-linecap="round" stroke-linejoin="round" stroke-miterlimit="4" stroke="#F99539" stroke-width="2"><g><path d="M 21.875 10.645L 21.875 14.395M 15.625 30.645L 11.875 30.645C 11.184644 30.645 10.625 30.085356 10.625 29.395L 10.625 16.895C 10.625 16.204643 11.184644 15.645 11.875 15.645L 18.75 15.645M 25 15.645L 31.875 15.645C 32.565353 15.645 33.125 16.204643 33.125 16.895L 33.125 26.23M 17.1425 31.895L 15 39.395M 25 15.645C 25 14.954644 24.440357 14.395 23.75 14.395L 20 14.395C 19.309645 14.395 18.75 14.954644 18.75 15.645C 18.75 16.335356 19.309645 16.895 20 16.895L 23.75 16.895C 24.440357 16.895 25 16.335356 25 15.645ZM 22.46125 29.395L 16.875 29.395C 16.184645 29.395 15.625 29.954645 15.625 30.645L 15.625 31.27C 15.625 31.615179 15.904821 31.895 16.25 31.895L 19.41375 31.895M 30.625 28.216249L 21.875 31.69125L 30.625 34.778751L 39.375 31.69125L 30.625 28.216249ZM 21.875 31.69125L 21.875 36.27M 25.625 33.014999L 25.625 36.9575C 25.623386 37.342258 25.856726 37.689049 26.213749 37.832497L 30.276251 39.3325C 30.500048 39.42247 30.749954 39.42247 30.973751 39.3325L 35.036247 37.8325C 35.393272 37.689049 35.62661 37.342258 35.624996 36.957497L 35.625 33.014999"></path></g></g></g><g id="g-root-tx_actuar_1lxeo091dflclm-stroke" data-item-order="1000000000" data-item-id="tx_actuar_1lxeo091dflclm" data-item-class="Label Stroke" data-item-index="none" data-renderer-id="0" transform="translate(638, 252)"></g><g id="g-root-tx_propsito_qofhft1dfbkek-stroke" data-item-order="1000000000" data-item-id="tx_propsito_qofhft1dfbkek" data-item-class="Label Stroke" data-item-index="none" data-renderer-id="0" transform="translate(2, 303)"></g><g id="g-root-cu_1q88jrd1dfik91-stroke" data-item-order="1000000000" data-item-id="cu_1q88jrd1dfik91" data-item-class="Curve Stroke ColorStrokeBlack" data-item-index="none" data-renderer-id="0" transform="translate(264.6956481933594, 291)"><g id="cu_1q88jrd1dfik91-stroke" fill="none" stroke-linecap="round" stroke-linejoin="round" stroke-miterlimit="4" stroke="#666666" stroke-width="2" stroke-dasharray="5.0, 7.0"><g><path d="M 59.3 10L 59.3 25L 59.3 118C 59.299998 124.627412 53.927415 129.999995 47.299998 129.999995L 47.2 130L 10 130"></path></g></g></g><g id="g-root-cu_4il05l1dfiiv7-stroke" data-item-order="1000000000" data-item-id="cu_4il05l1dfiiv7" data-item-class="Curve Stroke ColorStrokeBlack" data-item-index="none" data-renderer-id="0" transform="translate(283.368408203125, 291)"><g id="cu_4il05l1dfiiv7-stroke" fill="none" stroke-linecap="round" stroke-linejoin="round" stroke-miterlimit="4" stroke="#666666" stroke-width="2" stroke-dasharray="5.0, 7.0"><g><path d="M 40.6 10L 40.6 46L 40.6 82L 25.3 82L 10 82"></path></g></g></g><g id="g-root-cu_8xs16x1dfil8o-stroke" data-item-order="1000000000" data-item-id="cu_8xs16x1dfil8o" data-item-class="Curve Stroke ColorStrokeBlack" data-item-index="none" data-renderer-id="0" transform="translate(296, 291)"><g id="cu_8xs16x1dfil8o-stroke" fill="none" stroke-linecap="round" stroke-linejoin="round" stroke-miterlimit="4" stroke="#666666" stroke-width="2" stroke-dasharray="5.0, 7.0"><g><path d="M 28 10L 28 22L 28 34L 19 34L 10 34"></path></g></g></g><g id="g-root-cu_m98jk91dfijnq-stroke" data-item-order="1000000000" data-item-id="cu_m98jk91dfijnq" data-item-class="Curve Stroke ColorStrokeBlack" data-item-index="none" data-renderer-id="0" transform="translate(575.7894897460938, 291)"><g id="cu_m98jk91dfijnq-stroke" fill="none" stroke-linecap="round" stroke-linejoin="round" stroke-miterlimit="4" stroke="#666666" stroke-width="2" stroke-dasharray="5.0, 7.0"><g><path d="M 48.2 10L 48.2 18.3L 48.2 64C 48.199998 70.627415 42.827416 75.999997 36.199999 75.999997L 36.1 76L 22 76C 15.372584 76 10 81.372584 10.000001 88.000001L 10 88.1L 10 131.6C 10.000001 137.343758 14.656239 141.999996 20.400001 141.999996L 20.5 142L 22 142"></path></g></g></g><g id="g-root-cu_zk2kuh1dfil8h-stroke" data-item-order="1000000000" data-item-id="cu_zk2kuh1dfil8h" data-item-class="Curve Stroke ColorStrokeBlack" data-item-index="none" data-renderer-id="0" transform="translate(614, 291)"><g id="cu_zk2kuh1dfil8h-stroke" fill="none" stroke-linecap="round" stroke-linejoin="round" stroke-miterlimit="4" stroke="#666666" stroke-width="2" stroke-dasharray="5.0, 7.0"><g><path d="M 10 10L 10 28L 10 46L 31.5 46L 52.9 46"></path></g></g></g><g id="g-root-tx_evidenci_13zvzt51dfbitn-stroke" data-item-order="1000000000" data-item-id="tx_evidenci_13zvzt51dfbitn" data-item-class="Label Stroke" data-item-index="none" data-renderer-id="0" transform="translate(596, 411)"></g><g id="g-root-tx_propsito_4gphqh1dfbi81-stroke" data-item-order="1000000000" data-item-id="tx_propsito_4gphqh1dfbi81" data-item-class="Label Stroke" data-item-index="none" data-renderer-id="0" transform="translate(662, 315)"></g><g id="g-root-tx_activida_ddlg5l1dfbitp-stroke" data-item-order="1000000000" data-item-id="tx_activida_ddlg5l1dfbitp" data-item-class="Label Stroke" data-item-index="none" data-renderer-id="0" transform="translate(74, 351)"></g><g id="g-root-tx_activida_1q6d1c91dfbjlu-stroke" data-item-order="1000000000" data-item-id="tx_activida_1q6d1c91dfbjlu" data-item-class="Label Stroke" data-item-index="none" data-renderer-id="0" transform="translate(638, 363)"></g><g id="g-root-tx_evidenci_1uo1yq11dfbhty-stroke" data-item-order="1000000000" data-item-id="tx_evidenci_1uo1yq11dfbhty" data-item-class="Label Stroke" data-item-index="none" data-renderer-id="0" transform="translate(44, 387)"></g><g id="g-root-sear_vahk3t1dfmsr0-stroke" data-item-order="1000000000" data-item-id="sear_vahk3t1dfmsr0" data-item-class="Icon Stroke" data-item-index="none" data-renderer-id="0" transform="translate(602, 15)"><g id="sear_vahk3t1dfmsr0-stroke" fill="none" stroke-linecap="round" stroke-linejoin="round" stroke-miterlimit="4" stroke="#44E095" stroke-width="2"><g><path d="M 25.10125 39.375L 14.375 39.375C 12.994288 39.375 11.875 38.255714 11.875 36.875L 11.875 13.125M 35.625 10.625L 14.375 10.625C 12.994288 10.625 11.875 11.744288 11.875 13.125C 11.875 14.505712 12.994288 15.625 14.375 15.625L 34.375 15.625C 35.065353 15.625 35.625 16.184645 35.625 16.875L 35.625 25.032499M 14.375 13.125L 34.375 13.125M 24.375 31.286249C 24.375 34.412872 26.909628 36.947498 30.036249 36.947498C 33.162872 36.947498 35.697498 34.412872 35.697498 31.286249C 35.697498 28.159628 33.162872 25.625 30.036249 25.625C 26.909628 25.625 24.375 28.159628 24.375 31.286249ZM 38.125 39.375L 34.065002 35.315002"></path></g></g></g><g id="g-root-cu_qp21op1dfiivg-stroke" data-item-order="1000000000" data-item-id="cu_qp21op1dfiivg" data-item-class="Curve Stroke ColorStrokeBlack" data-item-index="none" data-renderer-id="0" transform="translate(614, 291)"><g id="cu_qp21op1dfiivg-stroke" fill="none" stroke-linecap="round" stroke-linejoin="round" stroke-miterlimit="4" stroke="#666666" stroke-width="2" stroke-dasharray="5.0, 7.0"><g><path d="M 10 10L 10 52L 10 94L 19 94L 28 94"></path></g></g></g></g></g></svg>