<?xml version="1.0" encoding="utf-8" standalone="yes"?>
<!DOCTYPE svg PUBLIC "-//W3C//DTD SVG 1.1//EN" "http://www.w3.org/Graphics/SVG/1.1/DTD/svg11.dtd">
<svg width="552" height="531" viewBox="0 0 552 531" style="fill:none;stroke:none;fill-rule:evenodd;clip-rule:evenodd;stroke-linecap:round;stroke-linejoin:round;stroke-miterlimit:1.5;" version="1.1" xmlns="http://www.w3.org/2000/svg" xmlns:xlink="http://www.w3.org/1999/xlink"><style id="fontImports">@import url("https://fonts.googleapis.com/css2?family=Roboto:wght@400;700&amp;display=block");</style><rect id="" x="0" y="0" width="552" height="530.453" style="fill: #2c2c2c;"></rect><g id="items" style="isolation: isolate"><g id="blend" style="mix-blend-mode:normal"><g id="g-root-0.cu_sy_mfh12g1et9hxr-fill" data-item-order="999901284" data-item-id="0.cu_sy_mfh12g1et9hxr" data-item-class="Part Indexed_0 Fill Stroke ColorStrokeBlack" data-item-index="0" data-renderer-id="0" transform="translate(102, 227)"><g id="0.cu_sy_mfh12g1et9hxr-fill" stroke="none" fill="#505050"><g><path d="M 362 128.457C 313.667 143.734 243 218.542 243 277L 200.466 277C 201.085 270.85 201.979 261.34 202.644 251.637C 203.768 235.237 204.394 215.077 204.394 209.771L 204.394 200.33L 204.394 195.683C 204.394 195.683 204.335 192.971 204.197 188.896C 203.977 182.371 203.554 172.351 202.848 164.369C 202.442 159.779 202.523 155.063 204.641 150.971C 206.242 147.88 208.611 144.279 211.921 141.023C 223.404 129.728 226.701 120.833 213.154 110.048L 214.817 109L 214.817 91L 225.848 85L 225.848 67L 238.585 61L 238.585 43.5L 258.39 37L 258.39 16L 282 10L 362 10L 362 128.457ZM 185.171 209.771C 185.171 209.771 183.27 235.044 182.846 251.637C 182.596 261.423 182.641 270.884 182.72 277L 190.552 277C 190.631 270.884 190.676 261.423 190.426 251.637C 190.002 235.044 188.101 209.771 188.101 209.771L 185.171 209.771ZM 205.294 115L 205.294 132.056C 216.99 126.469 216.598 120.91 208.048 113.265L 205.294 115ZM 10 128.457C 58.3333 143.734 129 218.542 129 277L 172.806 277C 172.187 270.85 171.293 261.34 170.628 251.637C 169.503 235.237 168.878 215.077 168.878 209.771C 168.878 204.465 168.967 200.377 168.967 195.682L 168.967 192.03L 169.164 185.243C 169.405 178.104 169.941 165.965 171.235 157.216C 168.056 159.034 156.492 165.921 155.808 168.358C 155.484 170.148 157.813 173.338 160.21 176.622C 161.498 178.386 162.806 180.177 163.733 181.793C 164.18 182.283 166.07 183.392 167.516 184.241C 168.126 184.599 168.791 185.011 169.102 185.211L 168.9 192.105C 168.563 192.475 167.024 194.054 165.756 193.56C 165.124 193.314 164.025 192.274 162.993 191.187C 161.685 189.81 160.486 187.359 160.486 187.359C 160.486 187.359 144.977 178.548 145.923 167.077C 146.61 158.761 159.459 149.234 169.297 141.94C 170.541 141.018 171.736 140.131 172.853 139.287C 173.289 138.958 173.741 138.689 174.205 138.451L 166.732 133L 166.732 115L 157.209 109L 157.209 91L 146.13 85L 146.13 67L 133.415 61L 133.415 43.5L 113.61 37L 113.61 16L 90 10L 10 10L 10 128.457Z"></path></g></g></g><g id="g-root-1.cu_sy_dkghwo1et9gcg-fill" data-item-order="999901286" data-item-id="1.cu_sy_dkghwo1et9gcg" data-item-class="Part Indexed Indexed_1 Fill Stroke" data-item-index="1" data-renderer-id="0" transform="translate(236.97705078125, 313.28515625)"><g id="1.cu_sy_dkghwo1et9gcg-fill" stroke="none" fill="#224754"><g><path d="M 47.868885 197.604905L 47.868885 202.713905C 47.868885 202.713905 43.773985 203.985905 39.312285 202.713905C 36.580685 203.439905 33.274985 201.713905 33.274985 201.713905L 33.274985 200.604905C 33.274985 197.977905 35.809685 197.167905 37.577685 197.430905C 37.901285 197.478905 38.224485 197.542905 38.549585 197.578905C 38.468685 196.853905 36.748585 181.363905 35.650785 165.351905C 34.526385 148.951905 33.900885 128.791905 33.900785 123.485905C 33.900585 118.179905 33.990385 114.091905 33.990285 109.397005L 33.990285 105.744705C 33.990285 105.744705 32.211685 107.832805 30.778985 107.275005C 30.147185 107.029005 29.047685 105.988505 28.015785 104.902105C 26.707785 103.525005 25.508485 101.074105 25.508485 101.074105C 25.508485 101.074105 9.999985 92.263205 10.946385 80.791505C 11.632485 72.475505 24.481685 62.948805 34.319785 55.654705C 35.563585 54.732605 36.759185 53.846105 37.876085 53.002305C 38.857285 52.261005 39.913285 51.826205 41.026685 51.367805C 42.131585 50.912905 43.293085 50.434705 44.494085 49.610605C 44.976485 49.245105 45.167985 48.761005 45.349585 48.301705C 45.562985 47.762105 45.762785 47.256805 46.404785 47.018605C 46.726085 46.899305 47.136485 46.807205 47.592585 46.736105L 47.592585 41.604005C 44.642685 40.287805 42.482785 37.532405 41.386285 34.034805C 41.250585 34.260705 41.069185 34.440605 40.843285 34.559405C 39.844785 35.084505 38.354885 34.216105 37.515385 32.619905C 36.675885 31.023605 36.804785 29.303905 37.803185 28.778805C 38.155885 28.593305 38.569785 28.581705 38.994685 28.714505C 38.274885 26.734205 37.876185 24.436005 37.876185 22.812705C 37.876185 18.128205 40.104185 13.182805 45.971185 13.182805C 51.283285 10.000005 56.309785 10.110305 59.924485 12.291505C 58.640185 12.535205 57.712485 13.379605 57.377285 14.329205C 56.878285 15.743905 58.068085 17.273105 59.089785 17.133905C 59.536585 17.073005 59.517685 16.157705 59.777085 15.624205C 59.960385 15.247205 60.314585 15.188405 60.826585 15.188405C 62.120585 17.257805 63.685285 19.119105 65.318585 20.922605C 65.661385 23.540405 65.220585 26.239405 64.324385 28.708405C 66.635685 28.010005 66.473985 31.307205 65.783585 32.619905C 65.180785 33.766105 62.999785 35.788005 61.924685 34.054505C 60.826185 37.543205 58.668385 40.291105 55.723385 41.604605L 55.723385 46.736105C 56.179785 46.807205 56.590285 46.899305 56.911585 47.018605C 58.100085 47.459605 57.773585 48.815905 58.822785 49.610605C 61.234085 51.265305 60.668885 47.663605 65.896385 47.663605C 82.492085 41.218305 82.606085 35.123305 72.165585 26.187705C 71.048685 25.277105 67.699085 23.786605 67.286985 22.340705C 66.729185 22.139905 66.049985 21.549505 65.301485 20.796905C 63.548085 19.033805 61.581885 16.299405 60.855885 15.138305C 60.343785 15.138305 59.903285 15.237505 59.719985 15.614405C 59.460585 16.148005 59.535785 17.021105 59.088985 17.082005C 58.067285 17.221205 56.966285 15.734405 57.465385 14.319805C 57.867485 13.180305 58.830685 12.608305 59.975585 12.322505C 61.312785 11.988705 62.897585 12.045605 64.124485 12.045805C 66.158085 12.046205 67.661385 17.186605 70.086285 18.363305C 71.161685 18.670005 72.226685 19.370805 73.231585 20.137305C 73.647785 20.454805 74.070685 20.777405 74.510985 21.076805C 92.208785 33.109705 89.365785 42.518905 76.944285 54.737505C 73.634285 57.993405 71.264685 61.594505 69.664285 64.685605C 67.545785 68.777705 67.464785 73.493805 67.870985 78.083905C 68.577385 86.066205 68.999885 96.086305 69.220385 102.610805C 69.358185 106.685705 69.417085 109.397605 69.417085 109.397605L 69.417085 114.044905L 69.417085 123.485905C 69.416885 128.791905 68.791385 148.951905 67.667085 165.351905C 66.573885 181.297905 64.863385 196.725905 64.769385 197.568905C 65.151285 197.520905 65.530785 197.434905 65.912085 197.382905C 67.641985 197.145905 70.096185 198.046905 70.096185 200.604905L 70.096185 201.713905C 70.096185 201.713905 66.992985 203.348905 64.261385 202.713905C 59.890785 204.167905 55.448985 202.713905 55.448985 202.713905L 55.448985 197.604905C 55.448985 197.604905 55.873285 181.945905 55.448985 165.351905C 55.024585 148.758905 53.123885 123.485905 53.123885 123.485905L 50.193985 123.485905C 50.193985 123.485905 48.293285 148.758905 47.868885 165.351905C 47.444585 181.945905 47.868885 197.604905 47.868885 197.604905ZM 34.186885 98.957805C 34.428185 91.818605 34.963985 79.679805 36.257485 70.930505C 33.078685 72.749205 21.514585 79.636205 20.830885 82.072505C 20.507185 83.863105 22.836085 87.053205 25.233385 90.336805C 26.521285 92.101005 27.828885 93.892105 28.755585 95.507805C 29.202785 95.998205 31.092485 97.107205 32.538685 97.956105C 33.308585 98.407905 33.952785 98.786005 34.186885 98.957805Z"></path></g></g></g><g id="g-root-tx_culeseln_18kp4fc1et9gju-fill" data-item-order="1000000000" data-item-id="tx_culeseln_18kp4fc1et9gju" data-item-class="Label Stroke Title ColorFillGray ColorStrokeGray" data-item-index="none" data-renderer-id="0" transform="translate(2, 2)"><g id="tx_culeseln_18kp4fc1et9gju-fill" stroke="none" fill="#A3A3A3"><g><text style="font: bold 20px Roboto, sans-serif; white-space: pre;" font-weight="bold" font-size="20" font-family="Roboto, sans-serif"><tspan x="13.42" y="34" dominant-baseline="ideographic">¿Cuál es el nivel adecuado para evaluar las competencias </tspan><tspan x="27.2" y="58" dominant-baseline="ideographic">docentes en diseño, análisis crítico y sistematización?</tspan></text></g></g></g><g id="g-root-tx_nivelaut_zqxjfs1et9gcu-fill" data-item-order="1000000000" data-item-id="tx_nivelaut_zqxjfs1et9gcu" data-item-class="Label Stroke Indexed Indexed_1 ColorFillGray ColorStrokeGray" data-item-index="1" data-renderer-id="0" transform="translate(80, 98)"><g id="tx_nivelaut_zqxjfs1et9gcu-fill" stroke="none" fill="#A3A3A3"><g><text style="font: bold 20px Roboto, sans-serif; white-space: pre;" font-weight="bold" font-size="20" font-family="Roboto, sans-serif"><tspan x="16.02" y="34" dominant-baseline="ideographic">Nivel Autónomo</tspan></text></g></g></g><g id="g-root-tx_nivelest_1qd833c1et9gcs-fill" data-item-order="1000000000" data-item-id="tx_nivelest_1qd833c1et9gcs" data-item-class="Label Stroke Indexed ColorFillGray ColorStrokeGray" data-item-index="2" data-renderer-id="0" transform="translate(314, 98)"><g id="tx_nivelest_1qd833c1et9gcs-fill" stroke="none" fill="#A3A3A3"><g><text style="font: bold 20px Roboto, sans-serif; white-space: pre;" font-weight="bold" font-size="20" font-family="Roboto, sans-serif"><tspan x="17.72" y="34" dominant-baseline="ideographic">Nivel Estratégico</tspan></text></g></g></g><g id="g-root-tx_losdocen_1lxekyw1et9h51-fill" data-item-order="1000000000" data-item-id="tx_losdocen_1lxekyw1et9h51" data-item-class="Label Stroke Indexed Indexed_1 ColorFillGray ColorStrokeGray" data-item-index="1" data-renderer-id="0" transform="translate(50, 134)"><g id="tx_losdocen_1lxekyw1et9h51-fill" stroke="none" fill="#A3A3A3"><g><text style="font: 15px Roboto, sans-serif; white-space: pre;" font-weight="15px" font-size="Roboto," font-family="sans-serif"><tspan x="36.66" y="45.6" dominant-baseline="ideographic">Los docentes deben ser </tspan><tspan x="16.96" y="63.6" dominant-baseline="ideographic">capaces de diseñar, analizar y </tspan><tspan x="37.76" y="81.6" dominant-baseline="ideographic">sistematizar de manera </tspan><tspan x="26.53" y="99.6" dominant-baseline="ideographic">independiente y coherente.</tspan></text></g></g></g><g id="g-root-tx_losdocen_hyekrs1et9gjv-fill" data-item-order="1000000000" data-item-id="tx_losdocen_hyekrs1et9gjv" data-item-class="Label Stroke Indexed ColorFillGray ColorStrokeGray" data-item-index="2" data-renderer-id="0" transform="translate(284, 134)"><g id="tx_losdocen_hyekrs1et9gjv-fill" stroke="none" fill="#A3A3A3"><g><text style="font: 15px Roboto, sans-serif; white-space: pre;" font-weight="15px" font-size="Roboto," font-family="sans-serif"><tspan x="19.36" y="45.6" dominant-baseline="ideographic">Los docentes deben demostrar </tspan><tspan x="17.14" y="63.6" dominant-baseline="ideographic">un análisis profundo, capacidad </tspan><tspan x="26.35" y="81.6" dominant-baseline="ideographic">de evaluación y desarrollo de </tspan><tspan x="49.19" y="99.6" dominant-baseline="ideographic">recursos innovadores.</tspan></text></g></g></g><g id="g-root-0.cu_sy_mfh12g1et9hxr-stroke" data-item-order="999901284" data-item-id="0.cu_sy_mfh12g1et9hxr" data-item-class="Part Indexed_0 Fill Stroke ColorStrokeBlack" data-item-index="0" data-renderer-id="0" transform="translate(102, 227)"><g id="0.cu_sy_mfh12g1et9hxr-stroke" fill="none" stroke-linecap="round" stroke-linejoin="round" stroke-miterlimit="4" stroke="#666666" stroke-width="2"><g><path d="M 362 128.4572C 313.6667 143.7336 243 218.5419 243 277L 200.4662 277C 201.0853 270.85 201.9789 261.3396 202.6441 251.6374C 203.7685 235.237 204.394 215.0775 204.3941 209.7715L 204.3942 200.3298L 204.3941 195.6827C 204.3941 195.6827 204.3352 192.9708 204.1975 188.8959C 203.977 182.3714 203.5544 172.3513 202.848 164.369C 202.4418 159.779 202.5228 155.0628 204.6414 150.9707C 206.2417 147.8796 208.6113 144.2785 211.9214 141.0226C 223.4039 129.7275 226.7013 120.8332 213.1538 110.0478L 214.8168 109L 214.8168 91L 225.848 85L 225.848 67L 238.5851 61L 238.5851 43.5L 258.3904 37L 258.3904 16L 282 10L 362 10L 362 128.4572ZM 185.171 209.7715C 185.171 209.7715 183.2703 235.0442 182.8459 251.6374C 182.5957 261.4232 182.6406 270.8842 182.7196 277L 190.5524 277C 190.6313 270.8842 190.6763 261.4232 190.426 251.6374C 190.0017 235.0442 188.101 209.7715 188.101 209.7715L 185.171 209.7715ZM 205.2944 115L 205.2944 132.0556C 216.9897 126.4691 216.5981 120.9105 208.0485 113.2647L 205.2944 115ZM 10 128.4572C 58.3333 143.7336 129 218.5419 129 277L 172.8057 277C 172.1867 270.85 171.293 261.3396 170.6279 251.6374C 169.5035 235.237 168.878 215.0775 168.8778 209.7715C 168.8777 204.4654 168.9674 200.3766 168.9673 195.6821L 168.9673 192.0298L 169.1639 185.2429C 169.4052 178.1037 169.941 165.9649 171.2346 157.2156C 168.0557 159.0343 156.4917 165.9213 155.8079 168.3576C 155.4843 170.1482 157.8132 173.3383 160.2104 176.6219C 161.4983 178.3861 162.806 180.1772 163.7326 181.7929C 164.1798 182.2833 166.0695 183.3923 167.5157 184.2411C 168.1256 184.5991 168.7908 185.0115 169.1016 185.2109L 168.9001 192.1053C 168.5633 192.4746 167.0242 194.0538 165.7561 193.5601C 165.1243 193.3141 164.0247 192.2736 162.9929 191.1872C 161.6849 189.8101 160.4856 187.3592 160.4856 187.3592C 160.4856 187.3592 144.9771 178.5483 145.9235 167.0766C 146.6095 158.7606 159.4588 149.2339 169.2969 141.9398C 170.5406 141.0177 171.7363 140.1312 172.8531 139.2874C 173.2895 138.9577 173.7406 138.6887 174.205 138.4512L 166.7317 133L 166.7317 115L 157.2091 109L 157.2091 91L 146.1303 85L 146.1303 67L 133.4149 61L 133.4149 43.5L 113.6096 37L 113.6096 16L 90 10L 10 10L 10 128.4572ZM 204.3941 209.7715C 204.3942 206.2482 204.3942 203.3128 204.3942 200.3298C 204.3941 198.8204 204.3941 197.2988 204.3941 195.6827M 113.6096 16L 33.6096 16M 113.6096 37L 33.6096 37M 133.4149 43.5L 53.4149 43.5M 90 10L 10 10M 129 277L 172.8057 277M 122 229L 169.4282 229M 116.389 205L 168.8993 205M 53.4149 61L 133.4149 61M 68.5221 67L 146.1303 67M 68.5221 85L 146.1303 85M 81.1427 91L 157.2091 91M 81.1427 109L 157.2091 109M 92 115L 166.7317 115M 92 133L 166.7317 133M 101.4098 139L 173.2592 139M 101.4098 157L 151.3749 157M 109.5228 163L 147.1277 163M 109.5228 181L 152.3232 181M 116.389 187L 159.8882 187M 122 211L 168.8859 211M 126.2459 235L 169.6896 235M 126.2459 253L 170.7228 253C 170.6907 252.5465 170.659 252.0922 170.6279 251.6374M 129 259L 171.1754 259M 258.3904 16L 338.3904 16M 258.3904 37L 338.3904 37M 238.5851 43.5L 318.5851 43.5M 282 10L 362 10M 243 277L 200.4662 277M 250 229L 203.8437 229M 255.6111 205L 204.3942 205M 318.5851 61L 238.5851 61M 303.4779 67L 225.848 67M 303.4779 85L 225.848 85M 290.8574 91L 214.8168 91M 290.8574 109L 214.8168 109M 280 115L 218.3189 115M 280 133L 218.8197 133M 270.5902 139L 213.9117 139M 270.5902 157L 202.8529 157M 262.4772 163L 202.743 163M 262.4772 181L 203.8883 181M 255.6111 187L 204.131 187M 250 211L 204.3861 211M 245.7541 235L 203.5824 235M 245.7541 253L 202.5491 253C 202.5813 252.5465 202.6129 252.0922 202.6441 251.6374M 243 259L 202.0966 259M 205.2944 115L 209.8818 115M 182.8459 251.6374C 182.8343 252.0924 182.8233 252.5467 182.8129 253L 190.459 253C 190.4486 252.5467 190.4376 252.0924 190.426 251.6374M 182.7196 277L 190.5524 277M 182.7079 259L 190.5641 259M 189.7218 235L 183.5502 235M 189.381 229L 183.891 229M 185.0805 211L 188.1915 211M 163.2572 181L 169.3235 181M 170.5256 163L 161.9251 163M 129 277L 129 259L 126.2459 253L 126.2459 235L 122 229L 122 211L 116.389 205L 116.389 187L 109.5228 181L 109.5228 163L 101.4098 157L 101.4098 139L 92 133L 92 115L 81.1427 109L 81.1427 91L 68.5221 85L 68.5221 67L 53.4149 61L 53.4149 43.5L 33.6096 37L 33.6096 16L 10 10M 243 277L 243 259L 245.7541 253L 245.7541 235L 250 229L 250 211L 255.6111 205L 255.6111 187L 262.4772 181L 262.4772 163L 270.5902 157L 270.5902 139L 280 133L 280 115L 290.8574 109L 290.8574 91L 303.4779 85L 303.4779 67L 318.5851 61L 318.5851 43.5L 338.3904 37L 338.3904 16L 362 10"></path></g></g></g><g id="g-root-1.cu_sy_dkghwo1et9gcg-stroke" data-item-order="999901286" data-item-id="1.cu_sy_dkghwo1et9gcg" data-item-class="Part Indexed Indexed_1 Fill Stroke" data-item-index="1" data-renderer-id="0" transform="translate(236.97705078125, 313.28515625)"><g id="1.cu_sy_dkghwo1et9gcg-stroke" fill="none" stroke-linecap="round" stroke-linejoin="round" stroke-miterlimit="4" stroke="#1AC6FF" stroke-width="2"><g><path d="M 47.868885 197.605105L 47.868885 202.714405C 47.868885 202.714405 43.773985 203.985905 39.312285 202.714405C 36.580685 203.439505 33.274985 201.714405 33.274985 201.714405L 33.274985 200.605105C 33.274985 197.978105 35.809685 197.168105 37.577685 197.430505C 37.901285 197.478605 38.224485 197.543005 38.549585 197.578605C 38.468685 196.853905 36.748585 181.364405 35.650785 165.352305C 34.526385 148.951905 33.900885 128.792405 33.900785 123.486305C 33.900585 118.180305 33.990385 114.091505 33.990285 109.397005L 33.990285 105.744705C 33.990285 105.744705 32.211685 107.832805 30.778985 107.275005C 30.147185 107.029005 29.047685 105.988505 28.015785 104.902105C 26.707785 103.525005 25.508485 101.074105 25.508485 101.074105C 25.508485 101.074105 9.999985 92.263205 10.946385 80.791505C 11.632485 72.475505 24.481685 62.948805 34.319785 55.654705C 35.563585 54.732605 36.759185 53.846105 37.876085 53.002305C 38.857285 52.261005 39.913285 51.826205 41.026685 51.367805C 42.131585 50.912905 43.293085 50.434705 44.494085 49.610605C 44.976485 49.245105 45.167985 48.761005 45.349585 48.301705C 45.562985 47.762105 45.762785 47.256805 46.404785 47.018605C 46.726085 46.899305 47.136485 46.807205 47.592585 46.736105L 47.592585 41.604005C 44.642685 40.287805 42.482785 37.532405 41.386285 34.034805C 41.250585 34.260705 41.069185 34.440605 40.843285 34.559405C 39.844785 35.084505 38.354885 34.216105 37.515385 32.619905C 36.675885 31.023605 36.804785 29.303905 37.803185 28.778805C 38.155885 28.593305 38.569785 28.581705 38.994685 28.714505C 38.274885 26.734205 37.876185 24.436005 37.876185 22.812705C 37.876185 18.128205 40.104185 13.182805 45.971185 13.182805C 51.283285 10.000005 56.309785 10.110305 59.924485 12.291505C 58.640185 12.535205 57.712485 13.379605 57.377285 14.329205C 56.878285 15.743905 58.068085 17.273105 59.089785 17.133905C 59.536585 17.073005 59.517785 16.157705 59.777085 15.624205C 59.960385 15.247205 60.314585 15.188405 60.826585 15.188405C 62.120585 17.257805 63.685285 19.119105 65.318585 20.922605C 65.661385 23.540405 65.220585 26.239405 64.324385 28.708405C 66.635685 28.010005 66.473985 31.307205 65.783585 32.619905C 65.180785 33.766105 62.999785 35.788005 61.924685 34.054505C 60.826185 37.543205 58.668385 40.291105 55.723385 41.604605L 55.723385 46.736105C 56.179785 46.807205 56.590285 46.899305 56.911585 47.018605C 58.100085 47.459605 57.773585 48.815905 58.822785 49.610605C 61.234085 51.265305 60.668885 47.663605 65.896385 47.663605C 82.492085 41.218305 82.606085 35.123305 72.165585 26.187705C 71.048685 25.277105 67.699085 23.786605 67.286985 22.340705C 66.729185 22.139905 66.049985 21.549505 65.301485 20.796905C 63.548085 19.033805 61.581885 16.299405 60.855885 15.138305C 60.343785 15.138305 59.903285 15.237505 59.719985 15.614405C 59.460585 16.148005 59.535785 17.021105 59.088985 17.082005C 58.067285 17.221205 56.966285 15.734405 57.465385 14.319805C 57.867485 13.180305 58.830685 12.608305 59.975585 12.322505C 61.312785 11.988705 62.897585 12.045605 64.124485 12.045805C 66.158085 12.046205 67.661385 17.186605 70.086285 18.363305C 71.161685 18.670005 72.226685 19.370805 73.231585 20.137305C 73.647785 20.454805 74.070685 20.777405 74.510985 21.076805C 92.208785 33.109705 89.365785 42.518905 76.944285 54.737505C 73.634285 57.993405 71.264685 61.594505 69.664285 64.685605C 67.545785 68.777705 67.464785 73.493805 67.870985 78.083905C 68.577385 86.066205 68.999885 96.086305 69.220385 102.610805C 69.358185 106.685705 69.417085 109.397605 69.417085 109.397605L 69.417085 114.044705L 69.417085 123.486305C 69.416885 128.792405 68.791385 148.951905 67.667085 165.352305C 66.573885 181.298205 64.863385 196.725905 64.769385 197.568905C 65.151285 197.520605 65.530785 197.435005 65.912085 197.382805C 67.641985 197.145805 70.096185 198.047405 70.096185 200.605105L 70.096185 201.714405C 70.096185 201.714405 66.992985 203.348505 64.261385 202.714405C 59.890785 204.168005 55.448985 202.714405 55.448985 202.714405L 55.448985 197.605105C 55.448985 197.605105 55.873285 181.945605 55.448985 165.352305C 55.024585 148.759105 53.123885 123.486305 53.123885 123.486305L 50.193985 123.486305C 50.193985 123.486305 48.293185 148.759105 47.868885 165.352305C 47.444585 181.945605 47.868885 197.605105 47.868885 197.605105ZM 34.186885 98.957805C 34.428185 91.818605 34.963985 79.679805 36.257485 70.930505C 33.078685 72.749205 21.514585 79.636205 20.830885 82.072505C 20.507285 83.863105 22.836085 87.053205 25.233385 90.336805C 26.521285 92.101005 27.828885 93.892105 28.755585 95.507805C 29.202785 95.998205 31.092485 97.107205 32.538685 97.956105C 33.308585 98.407905 33.952785 98.786005 34.186885 98.957805ZM 69.417085 123.486305C 69.417185 119.963105 69.417185 117.027705 69.417085 114.044705C 69.417085 112.535305 69.417085 111.013705 69.417085 109.397605M 72.165585 26.187705C 72.589485 26.533305 71.771385 25.850305 72.165585 26.187705ZM 47.869189 197.604927L 38.552789 197.604927M 42.047589 123.486127C 47.058789 124.756927 50.194189 123.486127 50.194189 123.486127M 55.449189 197.604927L 64.765589 197.604927M 61.270789 123.486127C 56.259589 124.756927 53.124189 123.486127 53.124189 123.486127M 33.900989 109.397427L 69.417289 109.397427L 33.990489 109.396827M 44.494389 49.610327L 58.823089 49.610327M 55.723689 46.735927C 54.403389 46.530227 52.699189 46.500827 51.658089 46.500827C 50.616989 46.500827 48.912989 46.530227 47.592889 46.735927M 34.187189 98.957527C 34.049389 103.032827 33.990489 105.744527 33.990489 105.744527M 28.755789 95.507627L 25.508789 101.073927M 36.257789 70.930327L 36.661989 68.196427M 70.086589 18.363127C 70.086589 18.363127 68.044289 21.344827 67.317689 22.325727M 64.324689 28.708127C 63.813389 30.116527 63.139889 31.364627 62.331889 32.095827C 61.307189 35.286727 59.898389 37.965027 58.381489 38.560527C 56.392789 39.341127 54.099889 39.760727 51.658689 39.760727C 49.217489 39.760727 46.924589 39.341127 44.935889 38.560527C 43.418989 37.965027 42.104689 35.310127 40.985489 32.095827C 40.178789 31.365727 39.505989 30.120127 38.994989 28.714327M 65.301889 20.796727C 63.548489 19.033627 61.581889 16.299427 60.855889 15.138327C 60.343889 15.138327 59.903289 15.237527 59.719989 15.614427C 59.460589 16.147927 59.535789 17.021027 59.088989 17.081927C 58.067289 17.221227 56.966289 15.734427 57.465389 14.319727C 57.867489 13.180327 58.830989 12.608127 59.975789 12.322327"></path></g></g></g><g id="g-root-tx_culeseln_18kp4fc1et9gju-stroke" data-item-order="1000000000" data-item-id="tx_culeseln_18kp4fc1et9gju" data-item-class="Label Stroke Title ColorFillGray ColorStrokeGray" data-item-index="none" data-renderer-id="0" transform="translate(2, 2)"></g><g id="g-root-tx_nivelaut_zqxjfs1et9gcu-stroke" data-item-order="1000000000" data-item-id="tx_nivelaut_zqxjfs1et9gcu" data-item-class="Label Stroke Indexed Indexed_1 ColorFillGray ColorStrokeGray" data-item-index="1" data-renderer-id="0" transform="translate(80, 98)"></g><g id="g-root-tx_nivelest_1qd833c1et9gcs-stroke" data-item-order="1000000000" data-item-id="tx_nivelest_1qd833c1et9gcs" data-item-class="Label Stroke Indexed ColorFillGray ColorStrokeGray" data-item-index="2" data-renderer-id="0" transform="translate(314, 98)"></g><g id="g-root-tx_losdocen_1lxekyw1et9h51-stroke" data-item-order="1000000000" data-item-id="tx_losdocen_1lxekyw1et9h51" data-item-class="Label Stroke Indexed Indexed_1 ColorFillGray ColorStrokeGray" data-item-index="1" data-renderer-id="0" transform="translate(50, 134)"></g><g id="g-root-tx_losdocen_hyekrs1et9gjv-stroke" data-item-order="1000000000" data-item-id="tx_losdocen_hyekrs1et9gjv" data-item-class="Label Stroke Indexed ColorFillGray ColorStrokeGray" data-item-index="2" data-renderer-id="0" transform="translate(284, 134)"></g></g></g></svg>