<?xml version="1.0" encoding="utf-8" standalone="yes"?>
<!DOCTYPE svg PUBLIC "-//W3C//DTD SVG 1.1//EN" "http://www.w3.org/Graphics/SVG/1.1/DTD/svg11.dtd">
<svg width="726" height="474" viewBox="0 0 726 474" style="fill:none;stroke:none;fill-rule:evenodd;clip-rule:evenodd;stroke-linecap:round;stroke-linejoin:round;stroke-miterlimit:1.5;" version="1.1" xmlns="http://www.w3.org/2000/svg" xmlns:xlink="http://www.w3.org/1999/xlink"><style id="fontImports">@import url("https://fonts.googleapis.com/css2?family=Roboto:wght@400;700&amp;display=block");</style><rect id="" x="0" y="0" width="726" height="474" style="fill: #2c2c2c;"></rect><g id="items" style="isolation: isolate"><g id="blend" style="mix-blend-mode:normal"><g id="g-root-ro_1q7lwe01grni19-fill" data-item-order="999967744" data-item-id="ro_1q7lwe01grni19" data-item-class="Shape Stroke Fill" data-item-index="none" data-renderer-id="0" transform="translate(251, 3)"><g id="ro_1q7lwe01grni19-fill" stroke="none" fill="#224754"><g><path d="M 22 10L 190 10C 190 10 202 10 202 22L 202 166C 202 166 202 178 190 178L 22 178C 22 178 10 178 10 166L 10 22C 10 22 10 10 22 10"></path></g></g></g><g id="g-root-ro_1q88gmw1grc8hw-fill" data-item-order="999976960" data-item-id="ro_1q88gmw1grc8hw" data-item-class="Shape Stroke Fill" data-item-index="none" data-renderer-id="0" transform="translate(251, 331)"><g id="ro_1q88gmw1grc8hw-fill" stroke="none" fill="#224754"><g><path d="M 22 10L 190 10C 190 10 202 10 202 22L 202 118C 202 118 202 130 190 130L 22 130C 22 130 10 130 10 118L 10 22C 10 22 10 10 22 10"></path></g></g></g><g id="g-root-ro_1lza6go1gr5afi-fill" data-item-order="999976960" data-item-id="ro_1lza6go1gr5afi" data-item-class="Shape Stroke Fill" data-item-index="none" data-renderer-id="0" transform="translate(251, 191)"><g id="ro_1lza6go1gr5afi-fill" stroke="none" fill="#224754"><g><path d="M 22 10L 190 10C 190 10 202 10 202 22L 202 118C 202 118 202 130 190 130L 22 130C 22 130 10 130 10 118L 10 22C 10 22 10 10 22 10"></path></g></g></g><g id="g-root-ro_1lza9mg1gr6ozw-fill" data-item-order="999980416" data-item-id="ro_1lza9mg1gr6ozw" data-item-class="Shape Stroke Fill" data-item-index="none" data-renderer-id="0" transform="translate(499, 343)"><g id="ro_1lza9mg1gr6ozw-fill" stroke="none" fill="#224754"><g><path d="M 22 10L 202 10C 202 10 214 10 214 22L 214 94C 214 94 214 106 202 106L 22 106C 22 106 10 106 10 94L 10 22C 10 22 10 10 22 10"></path></g></g></g><g id="g-root-ro_959n3s1grhurm-fill" data-item-order="999980416" data-item-id="ro_959n3s1grhurm" data-item-class="Shape Stroke Fill" data-item-index="none" data-renderer-id="0" transform="translate(499, 39)"><g id="ro_959n3s1grhurm-fill" stroke="none" fill="#224754"><g><path d="M 22 10L 202 10C 202 10 214 10 214 22L 214 94C 214 94 214 106 202 106L 22 106C 22 106 10 106 10 94L 10 22C 10 22 10 10 22 10"></path></g></g></g><g id="g-root-ro_1cyndiw1grm39c-fill" data-item-order="999980416" data-item-id="ro_1cyndiw1grm39c" data-item-class="Shape Stroke Fill" data-item-index="none" data-renderer-id="0" transform="translate(499, 203)"><g id="ro_1cyndiw1grm39c-fill" stroke="none" fill="#224754"><g><path d="M 22 10L 202 10C 202 10 214 10 214 22L 214 94C 214 94 214 106 202 106L 22 106C 22 106 10 106 10 94L 10 22C 10 22 10 10 22 10"></path></g></g></g><g id="g-root-ro_8zna601grgidl-fill" data-item-order="999986176" data-item-id="ro_8zna601grgidl" data-item-class="Shape Stroke Fill" data-item-index="none" data-renderer-id="0" transform="translate(3, 215)"><g id="ro_8zna601grgidl-fill" stroke="none" fill="#505050"><g><path d="M 22 10L 190 10C 190 10 202 10 202 22L 202 70C 202 70 202 82 190 82L 22 82C 22 82 10 82 10 70L 10 22C 10 22 10 10 22 10"></path></g></g></g><g id="g-root-idea_1uux9vc1gr6o77-fill" data-item-order="1000000000" data-item-id="idea_1uux9vc1gr6o77" data-item-class="Icon Stroke" data-item-index="none" data-renderer-id="0" transform="translate(511, 376)"></g><g id="g-root-tx_fomentar_dl35881gr57gs-fill" data-item-order="1000000000" data-item-id="tx_fomentar_dl35881gr57gs" data-item-class="Label Stroke" data-item-index="none" data-renderer-id="0" transform="translate(299, 203)"><g id="tx_fomentar_dl35881gr57gs-fill" stroke="none" fill="#1AC6FF"><g><text style="font: 20px Roboto, sans-serif; white-space: pre;" font-weight="20px" font-size="Roboto," font-family="sans-serif"><tspan x="12" y="34" dominant-baseline="ideographic">Fomentar </tspan><tspan x="12" y="58" dominant-baseline="ideographic">Habilidades </tspan><tspan x="12" y="82" dominant-baseline="ideographic">de Análisis </tspan><tspan x="12" y="106" dominant-baseline="ideographic">Crítico</tspan></text></g></g></g><g id="g-root-came_zrk6rc1grhurl-fill" data-item-order="1000000000" data-item-id="came_zrk6rc1grhurl" data-item-class="Icon Stroke" data-item-index="none" data-renderer-id="0" transform="translate(511, 72)"></g><g id="g-root-tx_asegurar_mahem01grm492-fill" data-item-order="1000000000" data-item-id="tx_asegurar_mahem01grm492" data-item-class="Label Stroke" data-item-index="none" data-renderer-id="0" transform="translate(547, 215)"><g id="tx_asegurar_mahem01grm492-fill" stroke="none" fill="#1AC6FF"><g><text style="font: 20px Roboto, sans-serif; white-space: pre;" font-weight="20px" font-size="Roboto," font-family="sans-serif"><tspan x="12" y="34" dominant-baseline="ideographic">Asegurar </tspan><tspan x="12" y="58" dominant-baseline="ideographic">Competencias </tspan><tspan x="12" y="82" dominant-baseline="ideographic">Relevantes</tspan></text></g></g></g><g id="g-root-targ_hvaaew1grghkw-fill" data-item-order="1000000000" data-item-id="targ_hvaaew1grghkw" data-item-class="Icon Stroke" data-item-index="none" data-renderer-id="0" transform="translate(15, 236)"></g><g id="g-root-tx_objetivo_zlxttk1grgidj-fill" data-item-order="1000000000" data-item-id="tx_objetivo_zlxttk1grgidj" data-item-class="Label Stroke" data-item-index="none" data-renderer-id="0" transform="translate(51, 227)"><g id="tx_objetivo_zlxttk1grgidj-fill" stroke="none" fill="#A3A3A3"><g><text style="font: 20px Roboto, sans-serif; white-space: pre;" font-weight="20px" font-size="Roboto," font-family="sans-serif"><tspan x="12" y="34" dominant-baseline="ideographic">Objetivos del </tspan><tspan x="12" y="58" dominant-baseline="ideographic">curso</tspan></text></g></g></g><g id="g-root-docu_9mmuw1gr591p-fill" data-item-order="1000000000" data-item-id="docu_9mmuw1gr591p" data-item-class="Icon Stroke" data-item-index="none" data-renderer-id="0" transform="translate(263, 236)"></g><g id="g-root-chec_1upawxk1grm41z-fill" data-item-order="1000000000" data-item-id="chec_1upawxk1grm41z" data-item-class="Icon Stroke" data-item-index="none" data-renderer-id="0" transform="translate(511, 236)"></g><g id="g-root-tx_comparti_959q9k1gr6mte-fill" data-item-order="1000000000" data-item-id="tx_comparti_959q9k1gr6mte" data-item-class="Label Stroke" data-item-index="none" data-renderer-id="0" transform="translate(547, 355)"><g id="tx_comparti_959q9k1gr6mte-fill" stroke="none" fill="#1AC6FF"><g><text style="font: 20px Roboto, sans-serif; white-space: pre;" font-weight="20px" font-size="Roboto," font-family="sans-serif"><tspan x="12" y="34" dominant-baseline="ideographic">Compartir </tspan><tspan x="12" y="58" dominant-baseline="ideographic">Prácticas </tspan><tspan x="12" y="82" dominant-baseline="ideographic">Innovadoras</tspan></text></g></g></g><g id="g-root-a_4hbvp41grnjt8-fill" data-item-order="1000000000" data-item-id="a_4hbvp41grnjt8" data-item-class="Icon Stroke" data-item-index="none" data-renderer-id="0" transform="translate(263, 72)"></g><g id="g-root-tx_sistemat_m8lzco1grcb2i-fill" data-item-order="1000000000" data-item-id="tx_sistemat_m8lzco1grcb2i" data-item-class="Label Stroke" data-item-index="none" data-renderer-id="0" transform="translate(299, 343)"><g id="tx_sistemat_m8lzco1grcb2i-fill" stroke="none" fill="#1AC6FF"><g><text style="font: 20px Roboto, sans-serif; white-space: pre;" font-weight="20px" font-size="Roboto," font-family="sans-serif"><tspan x="12" y="34" dominant-baseline="ideographic">Sistematizar </tspan><tspan x="12" y="58" dominant-baseline="ideographic">Experiencias </tspan><tspan x="12" y="82" dominant-baseline="ideographic">de </tspan><tspan x="12" y="106" dominant-baseline="ideographic">Aprendizaje</tspan></text></g></g></g><g id="g-root-tx_integrar_1ut1rg81grhx54-fill" data-item-order="1000000000" data-item-id="tx_integrar_1ut1rg81grhx54" data-item-class="Label Stroke" data-item-index="none" data-renderer-id="0" transform="translate(547, 51)"><g id="tx_integrar_1ut1rg81grhx54-fill" stroke="none" fill="#1AC6FF"><g><text style="font: 20px Roboto, sans-serif; white-space: pre;" font-weight="20px" font-size="Roboto," font-family="sans-serif"><tspan x="12" y="34" dominant-baseline="ideographic">Integrar </tspan><tspan x="12" y="58" dominant-baseline="ideographic">Herramientas </tspan><tspan x="12" y="82" dominant-baseline="ideographic">de IA</tspan></text></g></g></g><g id="g-root-tx_disearim_v3mfco1grnjt7-fill" data-item-order="1000000000" data-item-id="tx_disearim_v3mfco1grnjt7" data-item-class="Label Stroke" data-item-index="none" data-renderer-id="0" transform="translate(299, 15)"><g id="tx_disearim_v3mfco1grnjt7-fill" stroke="none" fill="#1AC6FF"><g><text style="font: 20px Roboto, sans-serif; white-space: pre;" font-weight="20px" font-size="Roboto," font-family="sans-serif"><tspan x="12" y="34" dominant-baseline="ideographic">Diseñar, </tspan><tspan x="12" y="58" dominant-baseline="ideographic">Implementar, </tspan><tspan x="12" y="82" dominant-baseline="ideographic">Evaluar </tspan><tspan x="12" y="106" dominant-baseline="ideographic">Experiencias </tspan><tspan x="12" y="130" dominant-baseline="ideographic">de </tspan><tspan x="12" y="154" dominant-baseline="ideographic">Aprendizaje</tspan></text></g></g></g><g id="g-root-draw_4hyfy01grca9v-fill" data-item-order="1000000000" data-item-id="draw_4hyfy01grca9v" data-item-class="Icon Stroke" data-item-index="none" data-renderer-id="0" transform="translate(263, 376)"></g><g id="g-root-cu_18gc27s1gr80zv-fill" data-item-order="1000000002" data-item-id="cu_18gc27s1gr80zv" data-item-class="Curve Stroke" data-item-index="none" data-renderer-id="0" transform="translate(443, 87)"></g><g id="g-root-cu_zkp1yw1gr82kj-fill" data-item-order="1000000002" data-item-id="cu_zkp1yw1gr82kj" data-item-class="Curve Stroke" data-item-index="none" data-renderer-id="0" transform="translate(195, 87)"></g><g id="g-root-cu_18gc27s1gr80zy-fill" data-item-order="1000000002" data-item-id="cu_18gc27s1gr80zy" data-item-class="Curve Stroke" data-item-index="none" data-renderer-id="0" transform="translate(195, 251)"></g><g id="g-root-cu_140ik3c1gr81s9-fill" data-item-order="1000000002" data-item-id="cu_140ik3c1gr81s9" data-item-class="Curve Stroke" data-item-index="none" data-renderer-id="0" transform="translate(195, 251)"></g><g id="g-root-cu_1hbcldk1gr83cw-fill" data-item-order="1000000002" data-item-id="cu_1hbcldk1gr83cw" data-item-class="Curve Stroke" data-item-index="none" data-renderer-id="0" transform="translate(443, 251)"></g><g id="g-root-cu_1lr63i01gr82kl-fill" data-item-order="1000000002" data-item-id="cu_1lr63i01gr82kl" data-item-class="Curve Stroke" data-item-index="none" data-renderer-id="0" transform="translate(443, 391)"></g><g id="g-root-ro_1q7lwe01grni19-stroke" data-item-order="999967744" data-item-id="ro_1q7lwe01grni19" data-item-class="Shape Stroke Fill" data-item-index="none" data-renderer-id="0" transform="translate(251, 3)"><g id="ro_1q7lwe01grni19-stroke" fill="none" stroke-linecap="round" stroke-linejoin="round" stroke-miterlimit="4" stroke="#1AC6FF" stroke-width="2"><g><path d="M 22 10L 190 10C 190 10 202 10 202 22L 202 166C 202 166 202 178 190 178L 22 178C 22 178 10 178 10 166L 10 22C 10 22 10 10 22 10"></path></g></g></g><g id="g-root-ro_1q88gmw1grc8hw-stroke" data-item-order="999976960" data-item-id="ro_1q88gmw1grc8hw" data-item-class="Shape Stroke Fill" data-item-index="none" data-renderer-id="0" transform="translate(251, 331)"><g id="ro_1q88gmw1grc8hw-stroke" fill="none" stroke-linecap="round" stroke-linejoin="round" stroke-miterlimit="4" stroke="#1AC6FF" stroke-width="2"><g><path d="M 22 10L 190 10C 190 10 202 10 202 22L 202 118C 202 118 202 130 190 130L 22 130C 22 130 10 130 10 118L 10 22C 10 22 10 10 22 10"></path></g></g></g><g id="g-root-ro_1lza6go1gr5afi-stroke" data-item-order="999976960" data-item-id="ro_1lza6go1gr5afi" data-item-class="Shape Stroke Fill" data-item-index="none" data-renderer-id="0" transform="translate(251, 191)"><g id="ro_1lza6go1gr5afi-stroke" fill="none" stroke-linecap="round" stroke-linejoin="round" stroke-miterlimit="4" stroke="#1AC6FF" stroke-width="2"><g><path d="M 22 10L 190 10C 190 10 202 10 202 22L 202 118C 202 118 202 130 190 130L 22 130C 22 130 10 130 10 118L 10 22C 10 22 10 10 22 10"></path></g></g></g><g id="g-root-ro_1lza9mg1gr6ozw-stroke" data-item-order="999980416" data-item-id="ro_1lza9mg1gr6ozw" data-item-class="Shape Stroke Fill" data-item-index="none" data-renderer-id="0" transform="translate(499, 343)"><g id="ro_1lza9mg1gr6ozw-stroke" fill="none" stroke-linecap="round" stroke-linejoin="round" stroke-miterlimit="4" stroke="#1AC6FF" stroke-width="2"><g><path d="M 22 10L 202 10C 202 10 214 10 214 22L 214 94C 214 94 214 106 202 106L 22 106C 22 106 10 106 10 94L 10 22C 10 22 10 10 22 10"></path></g></g></g><g id="g-root-ro_959n3s1grhurm-stroke" data-item-order="999980416" data-item-id="ro_959n3s1grhurm" data-item-class="Shape Stroke Fill" data-item-index="none" data-renderer-id="0" transform="translate(499, 39)"><g id="ro_959n3s1grhurm-stroke" fill="none" stroke-linecap="round" stroke-linejoin="round" stroke-miterlimit="4" stroke="#1AC6FF" stroke-width="2"><g><path d="M 22 10L 202 10C 202 10 214 10 214 22L 214 94C 214 94 214 106 202 106L 22 106C 22 106 10 106 10 94L 10 22C 10 22 10 10 22 10"></path></g></g></g><g id="g-root-ro_1cyndiw1grm39c-stroke" data-item-order="999980416" data-item-id="ro_1cyndiw1grm39c" data-item-class="Shape Stroke Fill" data-item-index="none" data-renderer-id="0" transform="translate(499, 203)"><g id="ro_1cyndiw1grm39c-stroke" fill="none" stroke-linecap="round" stroke-linejoin="round" stroke-miterlimit="4" stroke="#1AC6FF" stroke-width="2"><g><path d="M 22 10L 202 10C 202 10 214 10 214 22L 214 94C 214 94 214 106 202 106L 22 106C 22 106 10 106 10 94L 10 22C 10 22 10 10 22 10"></path></g></g></g><g id="g-root-ro_8zna601grgidl-stroke" data-item-order="999986176" data-item-id="ro_8zna601grgidl" data-item-class="Shape Stroke Fill" data-item-index="none" data-renderer-id="0" transform="translate(3, 215)"><g id="ro_8zna601grgidl-stroke" fill="none" stroke-linecap="round" stroke-linejoin="round" stroke-miterlimit="4" stroke="#A3A3A3" stroke-width="2"><g><path d="M 22 10L 190 10C 190 10 202 10 202 22L 202 70C 202 70 202 82 190 82L 22 82C 22 82 10 82 10 70L 10 22C 10 22 10 10 22 10"></path></g></g></g><g id="g-root-idea_1uux9vc1gr6o77-stroke" data-item-order="1000000000" data-item-id="idea_1uux9vc1gr6o77" data-item-class="Icon Stroke" data-item-index="none" data-renderer-id="0" transform="translate(511, 376)"><g id="idea_1uux9vc1gr6o77-stroke" fill="none" stroke-linecap="round" stroke-linejoin="round" stroke-miterlimit="4" stroke="#1AC6FF" stroke-width="2"><g><path d="M 38.75 22.5L 38.75 33.776249C 38.750088 34.45887 38.202534 35.015327 37.52 35.026249C 30.72875 35.224998 25 37.096249 25 39.375C 25 37.095001 19.27 35.223751 12.48 35.018749C 11.797467 35.007828 11.249912 34.45137 11.25 33.768749L 11.25 15.6475C 11.249951 15.312264 11.384561 14.991059 11.623597 14.756018C 11.862634 14.520977 12.186063 14.391801 12.52125 14.3975C 19.293751 14.6075 25 16.47625 25 18.75M 14.375 20C 17.161745 20.147509 19.905926 20.747429 22.500002 21.776251M 14.375 24.25625C 17.161594 24.403025 19.905762 25.002098 22.5 26.029999M 14.375 28.51125C 17.161678 28.657406 19.905945 29.2565 22.5 30.285M 25 18.751249L 25 39.220001M 36.25 18.125C 36.257267 16.216146 34.82946 14.606439 32.93338 14.38585C 31.0373 14.16526 29.278084 15.404188 28.846933 17.263729C 28.415787 19.123268 29.450308 21.009947 31.25 21.64625L 31.25 23.125L 33.75 23.125L 33.75 21.647499C 35.245689 21.121876 36.247478 19.710356 36.250004 18.125ZM 31.25 25.626251L 33.75 25.626251M 31.875 28.126251L 33.125 28.126251M 32.5 11.87625L 32.5 10.62625M 36.919998 13.7075L 37.803749 12.82375M 28.081249 13.7075L 27.196251 12.82375"></path></g></g></g><g id="g-root-tx_fomentar_dl35881gr57gs-stroke" data-item-order="1000000000" data-item-id="tx_fomentar_dl35881gr57gs" data-item-class="Label Stroke" data-item-index="none" data-renderer-id="0" transform="translate(299, 203)"></g><g id="g-root-came_zrk6rc1grhurl-stroke" data-item-order="1000000000" data-item-id="came_zrk6rc1grhurl" data-item-class="Icon Stroke" data-item-index="none" data-renderer-id="0" transform="translate(511, 72)"><g id="came_zrk6rc1grhurl-stroke" fill="none" stroke-linecap="round" stroke-linejoin="round" stroke-miterlimit="4" stroke="#1AC6FF" stroke-width="2"><g><path d="M 25.50625 38.036251C 25.50625 38.77562 24.906872 39.375 24.1675 39.375L 12.11375 39.375C 11.374379 39.375 10.775 38.77562 10.775 38.036247L 10.775 34.688751C 10.740424 32.034401 12.136694 29.566753 14.429837 28.229498C 16.72298 26.892242 19.55827 26.892242 21.851414 28.229498C 24.144556 29.566753 25.540827 32.034401 25.50625 34.688751ZM 15.32875 31.876249C 15.32875 32.04884 15.468661 32.188751 15.64125 32.188751C 15.813839 32.188751 15.95375 32.04884 15.95375 31.876249C 15.95375 31.703661 15.813839 31.563749 15.64125 31.563749C 15.468661 31.563749 15.32875 31.703661 15.32875 31.876249M 20.328749 31.868752C 20.328749 32.04134 20.46866 32.181252 20.641249 32.181252C 20.813839 32.181252 20.953749 32.04134 20.953749 31.868752C 20.953749 31.696159 20.813839 31.556252 20.641249 31.556252C 20.46866 31.556252 20.328749 31.696159 20.328749 31.868752M 18.141251 27.3225L 18.141251 24.643749M 16.1325 22.635C 16.1325 23.744402 17.031849 24.643749 18.141251 24.643749C 19.250652 24.643749 20.15 23.744402 20.15 22.635C 20.15 21.525599 19.250652 20.626251 18.141251 20.626251C 17.031849 20.626251 16.1325 21.525599 16.1325 22.635M 10.775 36.02L 25.50625 36.02M 23.428749 20.115L 22.668751 16.803749C 22.368177 15.497552 23.183689 14.195084 24.49 13.895L 38.68 10.63625C 38.940002 10.57625 39.10125 10.74 39.03875 10.99875L 38.75 12.165C 38.662411 12.456322 38.465256 12.702321 38.200001 12.85125ZM 35.956249 13.95625L 36.889999 18.018749C 37.00988 18.541021 36.683567 19.06156 36.161251 19.18125L 26.70125 21.355C 26.210264 21.484167 25.68792 21.409542 25.252745 21.14806C 24.817566 20.886578 24.506454 20.460407 24.390001 19.966251L 24.32375 19.674999M 38.791252 15.0925L 39.224998 16.983749M 29.53875 20.702499L 30.02125 22.8025C 30.121756 23.235218 29.915865 23.680975 29.52125 23.885L 24.385 26.5"></path></g></g></g><g id="g-root-tx_asegurar_mahem01grm492-stroke" data-item-order="1000000000" data-item-id="tx_asegurar_mahem01grm492" data-item-class="Label Stroke" data-item-index="none" data-renderer-id="0" transform="translate(547, 215)"></g><g id="g-root-targ_hvaaew1grghkw-stroke" data-item-order="1000000000" data-item-id="targ_hvaaew1grghkw" data-item-class="Icon Stroke" data-item-index="none" data-renderer-id="0" transform="translate(15, 236)"><g id="targ_hvaaew1grghkw-stroke" fill="none" stroke-linecap="round" stroke-linejoin="round" stroke-miterlimit="4" stroke="#A3A3A3" stroke-width="2"><g><path d="M 20 31.875C 20 34.636425 22.238577 36.875 25 36.875C 27.761423 36.875 30 34.636425 30 31.875C 30 29.113577 27.761423 26.875 25 26.875C 22.238577 26.875 20 29.113577 20 31.875ZM 22.5 31.875C 22.5 33.255714 23.619287 34.375 25 34.375C 26.380713 34.375 27.5 33.255714 27.5 31.875C 27.5 30.494287 26.380713 29.375 25 29.375C 23.619287 29.375 22.5 30.494287 22.5 31.875ZM 33.75 39.375L 33.75 30.625C 33.750118 26.916637 31.412592 23.610945 27.91625 22.375C 27.667734 22.286942 27.501205 22.052402 27.5 21.78875L 27.5 21.637501C 27.499748 21.414473 27.618361 21.20821 27.811249 21.096251C 30.016069 19.823298 31.091013 17.228157 30.432083 14.769C 29.773155 12.309843 27.544657 10.599857 24.998751 10.599857C 22.452843 10.599857 20.224346 12.309843 19.565416 14.769C 18.906488 17.228157 19.98143 19.823298 22.186251 21.096251C 22.380102 21.207575 22.499737 21.413958 22.5 21.637501L 22.5 21.78875C 22.499849 22.05332 22.333128 22.289133 22.08375 22.377501C 18.588274 23.61314 16.250944 26.917555 16.25 30.625L 16.25 39.375"></path></g></g></g><g id="g-root-tx_objetivo_zlxttk1grgidj-stroke" data-item-order="1000000000" data-item-id="tx_objetivo_zlxttk1grgidj" data-item-class="Label Stroke" data-item-index="none" data-renderer-id="0" transform="translate(51, 227)"></g><g id="g-root-docu_9mmuw1gr591p-stroke" data-item-order="1000000000" data-item-id="docu_9mmuw1gr591p" data-item-class="Icon Stroke" data-item-index="none" data-renderer-id="0" transform="translate(263, 236)"><g id="docu_9mmuw1gr591p-stroke" fill="none" stroke-linecap="round" stroke-linejoin="round" stroke-miterlimit="4" stroke="#1AC6FF" stroke-width="2"><g><path d="M 17.424999 37.1525L 12.85375 37.1525C 12.13509 37.1525 11.5525 36.569908 11.5525 35.85125L 11.5525 11.92625C 11.5525 11.207589 12.13509 10.625 12.85375 10.625L 30.236248 10.625C 30.954912 10.625 31.537498 11.207589 31.537498 11.92625L 31.537498 15.43375M 22.98 22.543751C 22.979713 24.162838 24.292162 25.475521 25.911251 25.475521C 27.530338 25.475521 28.842789 24.162838 28.842501 22.543751C 28.842789 20.924662 27.530338 19.611979 25.911251 19.611979C 24.292162 19.611979 22.979713 20.924662 22.98 22.543751M 32.177502 31.674999C 30.353752 25.598751 21.28125 25.91 19.4625 31.9725M 15.64125 26.747499C 15.64125 32.369068 20.198431 36.926247 25.82 36.926247C 31.441566 36.926247 35.998749 32.369068 35.998749 26.747499C 35.998749 21.125931 31.441566 16.56875 25.82 16.56875C 20.198431 16.56875 15.64125 21.125931 15.64125 26.747499M 33.016251 33.945L 38.447498 39.375M 25.82 29.62125L 25.82 31.245001M 23.741249 20.581249C 24.5975 22.543751 26.7675 23.1075 28.842501 22.543751"></path></g></g></g><g id="g-root-chec_1upawxk1grm41z-stroke" data-item-order="1000000000" data-item-id="chec_1upawxk1grm41z" data-item-class="Icon Stroke" data-item-index="none" data-renderer-id="0" transform="translate(511, 236)"><g id="chec_1upawxk1grm41z-stroke" fill="none" stroke-linecap="round" stroke-linejoin="round" stroke-miterlimit="4" stroke="#1AC6FF" stroke-width="2"><g><path d="M 22.5 39.375L 11.875 39.375C 11.184644 39.375 10.625 38.815353 10.625 38.125L 10.625 14.375C 10.625 13.684644 11.184644 13.125 11.875 13.125L 14.375 13.125M 29.375 13.125L 31.875 13.125C 32.565353 13.125 33.125 13.684644 33.125 14.375L 33.125 21.875M 24.375 13.125C 24.375 11.744288 23.255713 10.625 21.875 10.625C 20.494287 10.625 19.375 11.744288 19.375 13.125L 16.875 13.125L 16.875 16.875L 26.875 16.875L 26.875 13.125ZM 30.625 21.875L 30.625 16.25C 30.625 15.904821 30.345177 15.625 30 15.625L 26.875 15.625M 16.875 15.625L 13.75 15.625C 13.404822 15.625 13.125 15.904821 13.125 16.25L 13.125 36.25C 13.125 36.595177 13.404822 36.875 13.75 36.875L 22.5 36.875M 16.875 20.623749L 26.875 20.623749M 16.875 24.373749L 24.375 24.373749M 16.875 28.123749L 21.875 28.123749M 24.375 31.873751C 24.375002 36.015888 27.732864 39.373749 31.875 39.373749C 36.017136 39.373749 39.375 36.015888 39.375 31.873751C 39.375 27.731615 36.017136 24.373751 31.875 24.373751C 27.732864 24.373751 24.375002 27.731615 24.375002 31.873751ZM 35.217499 29.69375L 31.586248 34.536251C 31.42312 34.753471 31.173786 34.889256 30.902809 34.90844C 30.631832 34.927624 30.365858 34.828323 30.17375 34.63625L 28.29875 32.76125"></path></g></g></g><g id="g-root-tx_comparti_959q9k1gr6mte-stroke" data-item-order="1000000000" data-item-id="tx_comparti_959q9k1gr6mte" data-item-class="Label Stroke" data-item-index="none" data-renderer-id="0" transform="translate(547, 355)"></g><g id="g-root-a_4hbvp41grnjt8-stroke" data-item-order="1000000000" data-item-id="a_4hbvp41grnjt8" data-item-class="Icon Stroke" data-item-index="none" data-renderer-id="0" transform="translate(263, 72)"><g id="a_4hbvp41grnjt8-stroke" fill="none" stroke-linecap="round" stroke-linejoin="round" stroke-miterlimit="4" stroke="#1AC6FF" stroke-width="2"><g><path d="M 13.125 31.875L 13.125 28.125M 20.625 31.875L 20.625 28.125M 13.125 31.875L 20.625 31.875M 16.875 39.375L 16.875 34.375M 16.875 21.25L 16.875 27.5M 20 39.375L 20.625 31.875L 23.125 31.875L 23.125 27.5C 23.125 24.048222 20.32678 21.25 16.875 21.25C 13.423221 21.25 10.625 24.048222 10.625 27.5L 10.625 31.875L 13.125 31.875L 13.75 39.375ZM 12.5 15C 12.5 17.416246 14.458755 19.375 16.875 19.375C 19.291246 19.375 21.25 17.416246 21.25 15C 21.25 12.583755 19.291246 10.625 16.875 10.625C 14.458755 10.625 12.5 12.583755 12.5 15ZM 13 12.9725C 14.387519 14.276774 16.220707 15.002002 18.125 15.000001C 19.185442 15.001484 20.234068 14.777357 21.20125 14.3425M 26.875 31.875L 36.875 31.875C 38.255714 31.875 39.375 30.755713 39.375 29.375L 39.375 13.125C 39.375 11.744288 38.255714 10.625 36.875 10.625L 22.5 10.625M 29.375 24.375L 29.375 18.75C 29.375002 17.714466 30.214466 16.875 31.25 16.875C 32.285534 16.875 33.125 17.714466 33.125 18.75L 33.125 24.375M 29.375 20.625L 33.125 20.625"></path></g></g></g><g id="g-root-tx_sistemat_m8lzco1grcb2i-stroke" data-item-order="1000000000" data-item-id="tx_sistemat_m8lzco1grcb2i" data-item-class="Label Stroke" data-item-index="none" data-renderer-id="0" transform="translate(299, 343)"></g><g id="g-root-tx_integrar_1ut1rg81grhx54-stroke" data-item-order="1000000000" data-item-id="tx_integrar_1ut1rg81grhx54" data-item-class="Label Stroke" data-item-index="none" data-renderer-id="0" transform="translate(547, 51)"></g><g id="g-root-tx_disearim_v3mfco1grnjt7-stroke" data-item-order="1000000000" data-item-id="tx_disearim_v3mfco1grnjt7" data-item-class="Label Stroke" data-item-index="none" data-renderer-id="0" transform="translate(299, 15)"></g><g id="g-root-draw_4hyfy01grca9v-stroke" data-item-order="1000000000" data-item-id="draw_4hyfy01grca9v" data-item-class="Icon Stroke" data-item-index="none" data-renderer-id="0" transform="translate(263, 376)"><g id="draw_4hyfy01grca9v-stroke" fill="none" stroke-linecap="round" stroke-linejoin="round" stroke-miterlimit="4" stroke="#1AC6FF" stroke-width="2"><g><path d="M 31.875 29.375C 31.184645 29.375 30.625 29.934643 30.625 30.625C 30.625 31.315355 30.065355 31.875 29.375 31.875L 20.625 31.875C 19.934645 31.875 19.375 31.315355 19.375 30.625C 19.375 29.934643 18.815355 29.375 18.125 29.375L 11.875 29.375C 11.184644 29.375 10.625 29.934643 10.625 30.625L 10.625 38.125C 10.625 38.815353 11.184644 39.375 11.875 39.375L 38.125 39.375C 38.815353 39.375 39.375 38.815353 39.375 38.125L 39.375 30.625C 39.375 29.934643 38.815353 29.375 38.125 29.375ZM 19.375 26.875L 19.375 11.875C 19.375 11.184644 19.934645 10.625 20.625 10.625L 34.375 10.625C 35.065353 10.625 35.625 11.184644 35.625 11.875L 35.625 29.375M 14.375 29.375L 14.375 14.375C 14.375 13.684644 14.934644 13.125 15.625 13.125L 16.875 13.125M 25.625 15.625L 31.875 15.625M 23.125 19.375L 31.875 19.375M 23.125 23.125L 31.875 23.125"></path></g></g></g><g id="g-root-cu_18gc27s1gr80zv-stroke" data-item-order="1000000002" data-item-id="cu_18gc27s1gr80zv" data-item-class="Curve Stroke" data-item-index="none" data-renderer-id="0" transform="translate(443, 87)"><g id="cu_18gc27s1gr80zv-stroke" fill="none" stroke-linecap="round" stroke-linejoin="round" stroke-miterlimit="4" stroke="#A3A3A3" stroke-width="2"><g><path d="M 10 10L 38 10L 64 10"></path><path d="M 58 16.5L 64.5 10L 58 3.5" stroke-dasharray="none"></path></g></g></g><g id="g-root-cu_zkp1yw1gr82kj-stroke" data-item-order="1000000002" data-item-id="cu_zkp1yw1gr82kj" data-item-class="Curve Stroke" data-item-index="none" data-renderer-id="0" transform="translate(195, 87)"><g id="cu_zkp1yw1gr82kj-stroke" fill="none" stroke-linecap="round" stroke-linejoin="round" stroke-miterlimit="4" stroke="#A3A3A3" stroke-width="2"><g><path d="M 10 174L 24 174L 38 174L 38 92L 38 10L 52 10L 64 10"></path><path d="M 58 16.5L 64.5 10L 58 3.5" stroke-dasharray="none"></path></g></g></g><g id="g-root-cu_18gc27s1gr80zy-stroke" data-item-order="1000000002" data-item-id="cu_18gc27s1gr80zy" data-item-class="Curve Stroke" data-item-index="none" data-renderer-id="0" transform="translate(195, 251)"><g id="cu_18gc27s1gr80zy-stroke" fill="none" stroke-linecap="round" stroke-linejoin="round" stroke-miterlimit="4" stroke="#A3A3A3" stroke-width="2"><g><path d="M 10 10L 24 10L 38 10L 38 80L 38 150L 52 150L 64 150"></path><path d="M 58 156.5L 64.5 150L 58 143.5" stroke-dasharray="none"></path></g></g></g><g id="g-root-cu_140ik3c1gr81s9-stroke" data-item-order="1000000002" data-item-id="cu_140ik3c1gr81s9" data-item-class="Curve Stroke" data-item-index="none" data-renderer-id="0" transform="translate(195, 251)"><g id="cu_140ik3c1gr81s9-stroke" fill="none" stroke-linecap="round" stroke-linejoin="round" stroke-miterlimit="4" stroke="#A3A3A3" stroke-width="2"><g><path d="M 10 10L 38 10L 64 10"></path><path d="M 58 16.5L 64.5 10L 58 3.5" stroke-dasharray="none"></path></g></g></g><g id="g-root-cu_1hbcldk1gr83cw-stroke" data-item-order="1000000002" data-item-id="cu_1hbcldk1gr83cw" data-item-class="Curve Stroke" data-item-index="none" data-renderer-id="0" transform="translate(443, 251)"><g id="cu_1hbcldk1gr83cw-stroke" fill="none" stroke-linecap="round" stroke-linejoin="round" stroke-miterlimit="4" stroke="#A3A3A3" stroke-width="2"><g><path d="M 10 10L 38 10L 64 10"></path><path d="M 58 16.5L 64.5 10L 58 3.5" stroke-dasharray="none"></path></g></g></g><g id="g-root-cu_1lr63i01gr82kl-stroke" data-item-order="1000000002" data-item-id="cu_1lr63i01gr82kl" data-item-class="Curve Stroke" data-item-index="none" data-renderer-id="0" transform="translate(443, 391)"><g id="cu_1lr63i01gr82kl-stroke" fill="none" stroke-linecap="round" stroke-linejoin="round" stroke-miterlimit="4" stroke="#A3A3A3" stroke-width="2"><g><path d="M 10 10L 38 10L 64 10"></path><path d="M 58 16.5L 64.5 10L 58 3.5" stroke-dasharray="none"></path></g></g></g></g></g></svg>