<?xml version="1.0" encoding="utf-8" standalone="yes"?>
<!DOCTYPE svg PUBLIC "-//W3C//DTD SVG 1.1//EN" "http://www.w3.org/Graphics/SVG/1.1/DTD/svg11.dtd">
<svg width="828" height="708" viewBox="0 0 828 708" style="fill:none;stroke:none;fill-rule:evenodd;clip-rule:evenodd;stroke-linecap:round;stroke-linejoin:round;stroke-miterlimit:1.5;" version="1.1" xmlns="http://www.w3.org/2000/svg" xmlns:xlink="http://www.w3.org/1999/xlink"><style id="fontImports">@import url("https://fonts.googleapis.com/css2?family=Roboto:wght@400;700&amp;display=block");</style><rect id="" x="0" y="0" width="828" height="707.607" style="fill: #2c2c2c;"></rect><g id="items" style="isolation: isolate"><g id="blend" style="mix-blend-mode:normal"><g id="g-root--1.cu_sy_8x54dj1etqdxl-fill" data-item-order="999781681" data-item-id="-1.cu_sy_8x54dj1etqdxl" data-item-class="Part Fill Stroke" data-item-index="none" data-renderer-id="0" transform="translate(251.8978271484375, 59.83660888671875)"><g id="-1.cu_sy_8x54dj1etqdxl-fill" stroke="none" fill="#404b29"><g><path d="M 121.256822 176.22095C 117.385522 176.86265 113.298622 176.54105 109.529922 175.19685C 111.813522 171.83405 113.328322 168.05575 114.056022 164.11995C 115.223722 163.50985 116.338322 162.79355 117.267222 162.02415C 117.983722 161.44055 118.673722 160.75075 119.363622 160.00795C 119.367122 160.00875 119.370622 160.00955 119.374122 160.01035C 119.239122 160.14615 119.154222 160.23185 119.142622 160.24415C 124.795122 165.89765 131.540822 171.38835 137.862622 176.53395C 141.594322 179.57135 145.178222 182.48845 148.302322 185.24785C 142.203422 186.96535 135.526122 186.68755 129.731622 183.99725C 126.384222 182.43135 123.514922 179.64465 121.256822 176.22095ZM 183.683022 182.99805C 188.763022 185.54695 194.390722 186.84385 199.602122 186.46555C 202.060922 186.28015 204.413922 185.78595 206.627622 185.02565C 206.763922 184.01435 206.990022 183.02965 207.289822 182.09915C 209.533922 175.31035 214.994922 169.24315 221.319922 165.98465C 226.488922 163.32685 232.490922 162.91105 237.756922 164.45555C 240.316922 162.33655 243.861922 161.44835 247.499922 162.58325L 247.507922 162.56905C 247.729922 162.63855 247.947922 162.71615 248.163922 162.80155C 248.980922 162.11705 249.778922 161.42085 250.556922 160.72135C 251.839922 159.57075 253.004922 158.37195 254.054922 157.13315C 253.002922 157.13365 251.927922 157.06725 250.833922 156.93055C 245.233922 156.21425 240.297922 153.61435 236.688922 149.90025C 233.636922 151.06755 229.629922 150.98795 227.161922 149.95335C 222.410922 147.93705 219.942922 143.71895 219.810922 139.12935C 215.510922 138.73145 211.344922 137.29885 208.850222 135.28265C 207.051322 133.83915 205.521122 132.02485 204.263322 129.97135L 202.466922 129.86785C 197.074222 129.62895 192.319122 127.63825 188.520422 124.50615C 187.040922 127.85195 185.038222 130.86595 182.661222 133.40335C 182.661322 133.40335 182.661222 133.40345 182.661222 133.40335C 179.745122 146.15245 179.297822 160.75275 183.083022 179.71195C 183.299322 180.79435 183.499222 181.89025 183.683022 182.99805ZM 169.582522 141.20195C 164.832422 142.29305 159.757822 141.81965 154.857522 139.29745L 154.820622 139.43265C 153.617422 143.50415 151.559222 147.29745 148.564622 150.66615C 148.566322 150.66435 148.568022 150.66255 148.569722 150.66065C 150.084122 152.73615 151.768822 154.84385 153.548322 157.07015L 153.549322 157.07135C 163.938022 170.06845 167.283422 177.41465 168.302322 177.10495C 169.297822 176.80245 168.072422 169.19245 169.024822 152.40525C 169.232022 148.75355 169.444422 145.00775 169.563822 141.20635C 169.570122 141.20485 169.576322 141.20345 169.582522 141.20195ZM 143.836422 155.01615C 139.326722 158.37845 134.250122 160.20055 129.083922 160.67165C 129.094722 160.67075 129.105322 160.66975 129.116222 160.66875C 138.821322 168.33165 147.603122 171.19675 151.076422 172.33005C 151.871522 172.58945 152.388422 172.75805 152.574522 172.87275C 152.658922 168.47745 149.324422 163.40425 145.755022 157.97355C 145.115122 157.00005 144.467722 156.01495 143.831022 155.02025C 143.832922 155.01885 143.834622 155.01755 143.836422 155.01615ZM 256.856136 57.231434C 257.440036 57.549834 258.023836 57.868134 258.607636 58.213034L 258.607636 58.160034C 268.294036 64.049534 274.132436 73.440934 272.460636 84.954634C 270.894836 95.672434 264.154136 104.957734 255.635436 111.351334C 250.964736 114.853234 246.692036 116.949034 242.445936 117.559134C 241.251736 122.652834 237.377136 127.534234 232.998436 129.311634C 227.717336 131.460534 221.401236 129.523934 218.322836 124.987434C 214.085036 127.905734 209.011936 129.717534 204.233536 129.922634C 205.496836 131.995934 207.036936 133.827334 208.849836 135.282134C 211.344436 137.298334 215.510936 138.730934 219.810036 139.128834C 219.942736 143.718434 222.410836 147.936634 227.161136 149.952834C 229.629236 150.987434 233.636436 151.067034 236.688336 149.899734C 240.297536 153.613634 245.233636 156.213634 250.833136 156.929634C 261.873036 158.309634 270.949036 152.526634 274.054036 143.214334C 277.583536 142.710334 281.166236 141.171634 284.244636 139.659434C 291.834536 135.918834 297.062536 130.108834 298.601736 121.672534C 300.140936 113.183134 299.716336 104.401934 294.196436 97.451234L 294.249536 97.424734C 292.842936 95.620734 291.038336 93.843234 289.048036 92.171934C 293.665636 78.721534 283.315836 62.538634 271.108236 55.985834C 266.984536 53.775534 261.778536 52.527334 256.472536 52.402634C 256.724136 54.014734 256.856136 55.629134 256.856136 57.231434ZM 247.499649 162.583008C 243.861496 161.448075 240.317062 162.336243 237.756637 164.455216C 232.490829 162.910691 226.488663 163.326523 221.3199 165.984299C 214.994614 169.242813 209.533371 175.309937 207.289719 182.098862C 206.908981 183.280152 206.647201 184.548935 206.537155 185.848557C 201.269241 189.982651 198.279068 197.249192 199.425491 204.102127C 200.357742 209.69542 204.793045 214.244065 210.190689 216.962845C 209.32521 221.821091 211.502029 227.28096 215.941177 230.355088C 221.291611 234.068863 229.989365 234.887528 234.581222 230.685013C 239.080398 232.089798 244.477188 231.646286 247.927627 229.094528C 253.182053 231.408798 260.712967 229.584671 265.394119 225.944901C 271.842728 220.939987 272.124191 213.472672 268.942001 207.242966C 277.325546 197.353623 271.763016 179.526017 260.804703 173.653595C 259.190109 172.797165 257.502273 172.29599 255.773971 172.093293C 254.543442 167.7668 251.525894 163.828369 247.507858 162.568802L 247.499649 162.583008ZM 258.704583 58.122198C 258.119583 57.777198 257.535583 57.458698 256.951583 57.140198C 256.951583 43.656398 247.600583 29.323198 236.363583 22.634398C 229.775583 18.706098 223.027583 18.599898 216.997583 20.909198C 210.675583 13.291398 199.704083 9.999998 189.529783 12.707398C 183.765183 14.246898 178.319483 18.148698 174.520683 23.191798C 168.065483 20.192498 160.574183 19.741298 155.314383 25.792998C 154.809583 26.376998 154.331483 27.040598 153.879883 27.757198C 134.965683 21.015298 112.412183 36.649098 107.577383 55.175998C 103.592683 70.438098 109.676083 85.806398 121.258283 94.777898C 120.992683 97.113698 120.992683 99.529098 121.364583 101.891398C 122.825583 111.101798 129.838683 114.525798 137.436283 113.994798C 138.498883 123.019798 144.236783 132.017798 151.648383 137.325798C 165.648083 147.385798 182.065083 139.104798 188.520283 124.505798C 192.319083 127.637798 197.074183 129.628798 202.466883 129.867798C 207.753583 130.106798 213.597583 128.221798 218.379583 124.930798C 221.460583 129.469798 227.782583 131.406798 233.069583 129.256798C 237.452583 127.478798 241.331583 122.594798 242.526583 117.498798C 246.776583 116.887798 251.053583 114.790798 255.729583 111.287598C 264.256583 104.890698 271.003583 95.600798 272.571583 84.877398C 274.244583 73.357798 268.400583 63.961698 258.704583 58.069198L 258.704583 58.122198ZM 109.555904 49.909326C 108.768904 51.640626 108.130304 53.417326 107.659704 55.221626C 103.679004 70.475926 109.756204 85.836426 121.326704 94.803326C 121.061704 97.137926 121.061704 99.552126 121.432704 101.913226C 122.892704 111.118926 129.898704 114.541226 137.488704 114.010626C 138.549704 123.030526 144.282704 132.024026 151.686704 137.329926C 152.733704 138.082826 153.794704 138.732926 154.863704 139.285226C 153.537704 143.859026 151.136704 148.085026 147.546704 151.757126C 139.611704 159.901126 129.102704 162.209126 119.363704 160.007126C 118.673704 160.750126 117.983704 161.440126 117.266704 162.024126C 116.337704 162.793126 115.223704 163.509126 114.055704 164.119126C 113.020704 169.717126 110.393704 174.996126 106.227204 179.215126C 105.006404 180.435126 103.679504 181.523126 102.299504 182.531126C 100.282604 192.373126 94.868904 200.677126 83.563604 203.515126C 71.594904 206.513126 59.838504 202.826126 51.691304 195.132126C 51.492304 195.172126 51.306504 195.218126 51.120804 195.265126C 50.935004 195.311126 50.749204 195.358126 50.550204 195.398126C 37.944604 197.785126 26.506704 190.012126 19.872104 179.825126C 12.680304 168.789126 10.000004 153.481126 16.608004 141.543026C 18.757504 137.669726 21.756304 134.459726 25.285904 132.098626C 23.826304 128.013126 23.640604 123.476626 25.047104 119.603326C 26.612804 115.252526 29.956604 111.007826 34.043504 108.248726C 29.532004 96.177926 31.044704 82.223426 40.837304 71.850426C 51.558704 60.495926 68.755404 55.110426 83.271704 59.434726C 87.570904 55.747126 92.852004 53.014626 97.920704 51.449426C 101.805904 50.242926 105.729104 49.756826 109.555904 49.909326ZM 101.479486 217.986634C 102.161886 221.774234 104.514186 224.377034 107.925986 226.046434C 109.308686 226.728634 110.906786 227.410734 112.486986 227.644134C 113.869686 231.826634 117.945786 234.411534 122.901886 233.801234C 125.415786 233.496034 127.624486 232.329234 129.240586 230.659834C 130.623186 231.180434 132.400886 231.144534 133.514286 230.677734C 135.633186 229.780234 136.746486 227.877434 136.818286 225.831034C 138.739686 225.651534 140.607186 225.005334 141.738386 224.107834C 145.293786 221.253634 146.514886 215.168334 145.239986 210.896034C 145.527286 210.429334 145.778686 209.962634 145.994186 209.477934C 147.735986 205.385134 147.035586 200.484634 144.826986 196.714934C 142.546486 192.801734 138.595986 190.073234 134.070886 189.588534C 132.562586 189.426934 130.946486 189.498734 129.438086 189.893734C 125.505586 186.303534 118.268986 186.195834 113.833686 188.583334C 108.356986 191.509234 103.724086 198.761334 105.789086 204.792834C 104.891286 205.546734 104.101186 206.354534 103.454786 207.144334C 100.994686 210.267734 100.797186 214.199034 101.479486 218.004534L 101.479486 217.986634Z"></path></g></g></g><g id="g-root--1.cu_1_sy_1q7lmxz1etqcxu-fill" data-item-order="999781683" data-item-id="-1.cu_1_sy_1q7lmxz1etqcxu" data-item-class="Part Fill Stroke" data-item-index="none" data-renderer-id="0" transform="translate(294.3265686035156, 183.2392578125)"><g id="-1.cu_1_sy_1q7lmxz1etqcxu-fill" stroke="none" fill="#5a3f27"><g><path d="M 76.713511 36.8409C 82.366011 42.4944 89.111711 47.9852 95.433511 53.1307C 105.155211 61.0437 113.873911 68.1403 116.070911 73.7569C 120.506911 85.1197 118.010911 99.3367 110.217211 118.472C 110.177511 118.353 107.113811 109.2531 97.948911 101.5145C 96.919711 101.9829 95.666511 102.3084 94.389311 102.4277C 94.360211 103.2583 94.159511 104.0651 93.789611 104.7907C 110.145511 125.236 98.624011 129.989 95.433511 148.296C 92.243011 166.603 98.945611 173.642 90.079111 179.516C 81.212711 185.39 40.608511 171.692 12.872311 188.358C 10.000011 190.083 11.135611 192.028 14.194311 190.907C 24.951711 186.964 43.301911 182.242 63.769811 189.907C 47.541111 198.917 41.404111 221.706 14.824511 227.595C 12.999211 227.999 13.479811 230.984 15.415511 230.984C 44.273911 230.984 56.722011 197.301 84.534311 194.745C 92.044911 193.967 91.112111 195.264 86.959011 197.783C 81.302511 201.213 75.672311 206.907 71.265411 212.706C 68.607811 214.932 71.121811 216.566 72.935411 215.327C 87.139111 205.526 108.581711 190.692 103.265311 204.643C 97.948911 218.595 71.265411 225.413 62.051511 232.514C 52.837511 239.615 48.211811 246.888 46.608511 257.837C 46.282111 260.065 49.336211 259.969 50.328411 257.837C 56.678411 244.188 65.976911 235.548 81.617211 232.514L 81.653111 232.514C 85.459911 232.155 86.716811 232.335 86.483511 236.392C 85.251811 257.772 65.608011 266.763 59.968011 273.841C 57.056011 277.496 53.715311 281.78 51.887111 286.805C 51.079111 288.546 53.054311 289.803 54.634511 288.187C 55.927311 286.93 62.051511 276.794 71.850111 271.709C 81.648811 266.623 85.357111 263.092 90.079111 257.976C 102.918211 274.347 105.143411 288.598 99.937911 311.469C 100.117511 314.09 102.775111 314.305 103.224111 311.469C 111.070511 296.736 111.634911 276.635 105.143411 262.963C 96.144411 244.011 89.157711 229.297 114.912911 216.492C 117.085911 215.415 119.437911 217.569 118.522911 219.831C 113.727911 231.678 111.052511 250.67 115.523911 263.092C 116.205911 264.977 118.001911 264.438 117.839911 262.643C 116.690911 249.324 118.976911 238.015 124.489911 225.413C 124.723911 231.305 127.773911 235.018 130.113911 239.255C 133.704911 245.758 150.208911 271.092 147.006911 294.607C 146.746911 296.512 148.860911 297.033 149.629911 295.368C 157.013911 279.374 145.156911 250.576 141.033911 240.554C 139.303911 236.351 134.765911 227.755 135.515911 219.507C 136.350911 210.411 150.232911 222.903 156.543911 238.14C 171.670911 274.669 180.996911 282.081 204.253911 288.598C 206.559911 289.244 207.446911 286.247 205.525911 285.368C 185.923911 276.399 175.908911 261.547 173.700911 248.407C 196.868911 247.709 201.502911 255.309 206.181911 261.656C 207.429911 263.35 209.747911 261.604 209.105911 260.065C 206.922911 254.842 202.589911 247.051 193.537911 243.864C 184.611911 240.721 167.656911 244.347 163.422911 228.243C 162.783911 225.812 174.705911 227.241 180.797911 217.253C 182.251911 214.869 179.519911 213.995 178.465911 214.869C 165.939911 225.268 150.493911 212.296 148.007911 197.749C 147.647911 195.649 149.802911 194.033 151.724911 194.949C 163.338911 200.435 171.681911 198.172 178.465911 196.332C 181.981911 195.378 185.079911 194.538 187.996911 194.949C 197.439911 196.289 200.491911 204.275 205.525911 213.327C 213.234911 227.19 223.791911 227.659 235.205911 226.384C 238.284911 226.04 237.576911 222.127 235.031911 222.413C 231.078911 222.857 217.899911 221.37 212.776911 210.034C 209.089911 201.873 206.181911 191.72 198.034911 187.358C 209.472911 186.155 232.731911 187.832 242.697911 193.72C 244.654911 194.886 245.750911 193.145 244.205911 191.907C 232.677911 182.644 204.253911 176.859 189.307911 182.242C 174.361911 187.625 150.422911 180.04 144.629911 165.68C 137.140911 147.113 143.951911 102.5453 167.719911 93.5195C 166.418911 92.853 164.355911 91.7422 162.514911 89.9333C 152.359911 94.8207 143.906911 105.8841 141.768911 109.4776C 146.206911 92.6414 144.026911 79.4053 141.696911 62.513C 141.405911 60.4042 141.058911 58.3329 140.653911 56.3088C 136.868911 37.3495 137.315911 22.7491 140.231911 10C 138.268911 12.0965 136.048911 13.8677 133.657911 15.232C 133.655911 15.2517 133.652911 15.2715 133.650911 15.2913C 133.649911 15.2735 133.648911 15.2556 133.647911 15.2377C 131.585911 16.4129 129.396911 17.2855 127.134911 17.8031C 127.014911 21.6045 126.802911 25.3503 126.595911 29.0021C 124.668911 62.9718 131.658911 59.3632 111.120211 33.6681C 109.340311 31.4414 107.655211 29.3333 106.140611 27.2574C 104.713111 28.8642 103.125511 30.3325 101.401911 31.617C 105.589911 38.1602 110.244911 44.2863 110.145511 49.4695C 109.146111 48.8539 98.613911 46.6826 86.687111 37.2656C 83.432411 37.566 80.141711 37.3299 76.934611 36.6048C 76.860911 36.6841 76.787311 36.7629 76.713511 36.8409Z"></path></g></g></g><g id="g-root--1.line_sy_1hbymp31etqdqj-fill" data-item-order="999781686" data-item-id="-1.line_sy_1hbymp31etqdqj" data-item-class="Curve Stroke Part" data-item-index="none" data-renderer-id="0" transform="translate(194, 253.607421875)"></g><g id="g-root--1.line_1_sy_1cwrlnr1etqbd0-fill" data-item-order="999781688" data-item-id="-1.line_1_sy_1cwrlnr1etqbd0" data-item-class="Curve Stroke Part" data-item-index="none" data-renderer-id="0" transform="translate(194, 397.607421875)"></g><g id="g-root--1.line_2_sy_1414lev1etqc5p-fill" data-item-order="999781690" data-item-id="-1.line_2_sy_1414lev1etqc5p" data-item-class="Curve Stroke Part" data-item-index="none" data-renderer-id="0" transform="translate(518, 253.607421875)"></g><g id="g-root--1.line_3_sy_zlb3af1etqcxy-fill" data-item-order="999781692" data-item-id="-1.line_3_sy_zlb3af1etqcxy" data-item-class="Curve Stroke Part" data-item-index="none" data-renderer-id="0" transform="translate(362.1445007324219, 439.607421875)"></g><g id="g-root--1.line_4_sy_zlb3af1etqcxz-fill" data-item-order="999781694" data-item-id="-1.line_4_sy_zlb3af1etqcxz" data-item-class="Curve Stroke Part" data-item-index="none" data-renderer-id="0" transform="translate(505.919921875, 397.607421875)"></g><g id="g-root--1.line_5_sy_v5hl5z1etqdq8-fill" data-item-order="999781696" data-item-id="-1.line_5_sy_v5hl5z1etqdq8" data-item-class="Curve Stroke Part" data-item-index="none" data-renderer-id="0" transform="translate(434.00006103515625, 439.607421875)"></g><g id="g-root-tx_necesida_dhyf6v1etoz5w-fill" data-item-order="1000000000" data-item-id="tx_necesida_dhyf6v1etoz5w" data-item-class="Label Stroke Title ColorFillGray ColorStrokeGray" data-item-index="none" data-renderer-id="0" transform="translate(128, 2)"><g id="tx_necesida_dhyf6v1etoz5w-fill" stroke="none" fill="#A3A3A3"><g><text style="font: bold 20px Roboto, sans-serif; white-space: pre;" font-weight="bold" font-size="20" font-family="Roboto, sans-serif"><tspan x="17.13" y="34" dominant-baseline="ideographic">Necesidad de un curso de capacitación en IA para profesores</tspan></text></g></g></g><g id="g-root-tx_renovaci_v48mzr1etqbk0-fill" data-item-order="1000000000" data-item-id="tx_renovaci_v48mzr1etqbk0" data-item-class="Label Stroke Indexed ColorFillGray ColorStrokeGray" data-item-index="none" data-renderer-id="0" transform="translate(62, 217.607421875)"><g id="tx_renovaci_v48mzr1etqbk0-fill" stroke="none" fill="#A3A3A3"><g><text style="font: bold 20px Roboto, sans-serif; white-space: pre;" font-weight="bold" font-size="20" font-family="Roboto, sans-serif"><tspan x="23.13" y="34" dominant-baseline="ideographic">Renovación </tspan><tspan x="38.89" y="58" dominant-baseline="ideographic">Curricular</tspan></text></g></g></g><g id="g-root-tx_integrac_vcct471etoxz7-fill" data-item-order="1000000000" data-item-id="tx_integrac_vcct471etoxz7" data-item-class="Label Stroke Indexed ColorFillGray ColorStrokeGray" data-item-index="none" data-renderer-id="0" transform="translate(638, 217.607421875)"><g id="tx_integrac_vcct471etoxz7-fill" stroke="none" fill="#A3A3A3"><g><text style="font: bold 20px Roboto, sans-serif; white-space: pre;" font-weight="bold" font-size="20" font-family="Roboto, sans-serif"><tspan x="12" y="34" dominant-baseline="ideographic">Integración </tspan><tspan x="12" y="58" dominant-baseline="ideographic">Tecnológica</tspan></text></g></g></g><g id="g-root-tx_necesida_1d30civ1etoyru-fill" data-item-order="1000000000" data-item-id="tx_necesida_1d30civ1etoyru" data-item-class="Label Stroke Indexed" data-item-index="none" data-renderer-id="0" transform="translate(74, 277.607421875)"><g id="tx_necesida_1d30civ1etoyru-fill" stroke="none" fill="#A3A3A3"><g><text style="font: 20px Roboto, sans-serif; white-space: pre;" font-weight="20px" font-size="Roboto," font-family="sans-serif"><tspan x="21.47" y="34" dominant-baseline="ideographic">Necesidad </tspan><tspan x="21.58" y="58" dominant-baseline="ideographic">urgente de </tspan><tspan x="27.38" y="82" dominant-baseline="ideographic">contenido </tspan><tspan x="13.03" y="106" dominant-baseline="ideographic">actualizado</tspan></text></g></g></g><g id="g-root-tx_alineare_74dwn1etoxl1-fill" data-item-order="1000000000" data-item-id="tx_alineare_74dwn1etoxl1" data-item-class="Label Stroke Indexed" data-item-index="none" data-renderer-id="0" transform="translate(638, 277.607421875)"><g id="tx_alineare_74dwn1etoxl1-fill" stroke="none" fill="#A3A3A3"><g><text style="font: 20px Roboto, sans-serif; white-space: pre;" font-weight="20px" font-size="Roboto," font-family="sans-serif"><tspan x="12" y="34" dominant-baseline="ideographic">Alinear el </tspan><tspan x="12" y="58" dominant-baseline="ideographic">currículo con los </tspan><tspan x="12" y="82" dominant-baseline="ideographic">avances </tspan><tspan x="12" y="106" dominant-baseline="ideographic">tecnológicos</tspan></text></g></g></g><g id="g-root-tx_actualiz_i0waqv1etozk4-fill" data-item-order="1000000000" data-item-id="tx_actualiz_i0waqv1etozk4" data-item-class="Label Stroke Indexed ColorFillGray ColorStrokeGray" data-item-index="none" data-renderer-id="0" transform="translate(638, 397.607421875)"><g id="tx_actualiz_i0waqv1etozk4-fill" stroke="none" fill="#A3A3A3"><g><text style="font: bold 20px Roboto, sans-serif; white-space: pre;" font-weight="bold" font-size="20" font-family="Roboto, sans-serif"><tspan x="12" y="34" dominant-baseline="ideographic">Actualización del </tspan><tspan x="12" y="58" dominant-baseline="ideographic">Profesorado</tspan></text></g></g></g><g id="g-root-tx_brechain_13z965j1etqd5b-fill" data-item-order="1000000000" data-item-id="tx_brechain_13z965j1etqd5b" data-item-class="Label Stroke Indexed ColorFillGray ColorStrokeGray" data-item-index="none" data-renderer-id="0" transform="translate(14, 421.607421875)"><g id="tx_brechain_13z965j1etqd5b-fill" stroke="none" fill="#A3A3A3"><g><text style="font: bold 20px Roboto, sans-serif; white-space: pre;" font-weight="bold" font-size="20" font-family="Roboto, sans-serif"><tspan x="22.82" y="34" dominant-baseline="ideographic">Brecha Industrial</tspan></text></g></g></g><g id="g-root-tx_discrepa_8zt5z1etowld-fill" data-item-order="1000000000" data-item-id="tx_discrepa_8zt5z1etowld" data-item-class="Label Stroke Indexed" data-item-index="none" data-renderer-id="0" transform="translate(2, 457.607421875)"><g id="tx_discrepa_8zt5z1etowld-fill" stroke="none" fill="#A3A3A3"><g><text style="font: 20px Roboto, sans-serif; white-space: pre;" font-weight="20px" font-size="Roboto," font-family="sans-serif"><tspan x="22.44" y="34" dominant-baseline="ideographic">Discrepancia entre </tspan><tspan x="44.46" y="58" dominant-baseline="ideographic">el currículo y las </tspan><tspan x="28.27" y="82" dominant-baseline="ideographic">necesidades de la </tspan><tspan x="110.45" y="106" dominant-baseline="ideographic">industria</tspan></text></g></g></g><g id="g-root-tx_losprofe_1d1recn1etowlq-fill" data-item-order="1000000000" data-item-id="tx_losprofe_1d1recn1etowlq" data-item-class="Label Stroke Indexed" data-item-index="none" data-renderer-id="0" transform="translate(638, 457.607421875)"><g id="tx_losprofe_1d1recn1etowlq-fill" stroke="none" fill="#A3A3A3"><g><text style="font: 20px Roboto, sans-serif; white-space: pre;" font-weight="20px" font-size="Roboto," font-family="sans-serif"><tspan x="12" y="34" dominant-baseline="ideographic">Ampliar las </tspan><tspan x="12" y="58" dominant-baseline="ideographic">herramientas de </tspan><tspan x="12" y="82" dominant-baseline="ideographic">los profesores </tspan><tspan x="12" y="106" dominant-baseline="ideographic">para la </tspan><tspan x="12" y="130" dominant-baseline="ideographic">construcción de </tspan><tspan x="12" y="154" dominant-baseline="ideographic">sus cursos</tspan></text></g></g></g><g id="g-root-tx_introduc_1uljpt31etqd59-fill" data-item-order="1000000000" data-item-id="tx_introduc_1uljpt31etqd59" data-item-class="Label Stroke Indexed ColorFillGray ColorStrokeGray" data-item-index="none" data-renderer-id="0" transform="translate(218, 505.607421875)"><g id="tx_introduc_1uljpt31etqd59-fill" stroke="none" fill="#A3A3A3"><g><text style="font: bold 20px Roboto, sans-serif; white-space: pre;" font-weight="bold" font-size="20" font-family="Roboto, sans-serif"><tspan x="23.76" y="34" dominant-baseline="ideographic">Introducción de </tspan><tspan x="14.57" y="58" dominant-baseline="ideographic">Herramientas de </tspan><tspan x="144.53" y="82" dominant-baseline="ideographic">IA</tspan></text></g></g></g><g id="g-root-tx_soportep_1q5q7on1etqdxi-fill" data-item-order="1000000000" data-item-id="tx_soportep_1q5q7on1etqdxi" data-item-class="Label Stroke Indexed ColorFillGray ColorStrokeGray" data-item-index="none" data-renderer-id="0" transform="translate(446, 505.607421875)"><g id="tx_soportep_1q5q7on1etqdxi-fill" stroke="none" fill="#A3A3A3"><g><text style="font: bold 20px Roboto, sans-serif; white-space: pre;" font-weight="bold" font-size="20" font-family="Roboto, sans-serif"><tspan x="12" y="34" dominant-baseline="ideographic">Análisis de Datos </tspan><tspan x="12" y="58" dominant-baseline="ideographic">y Toma de </tspan><tspan x="12" y="82" dominant-baseline="ideographic">Decisiones</tspan></text></g></g></g><g id="g-root-tx_necesida_mfgup31etowlr-fill" data-item-order="1000000000" data-item-id="tx_necesida_mfgup31etowlr" data-item-class="Label Stroke Indexed" data-item-index="none" data-renderer-id="0" transform="translate(218, 589.607421875)"><g id="tx_necesida_mfgup31etowlr-fill" stroke="none" fill="#A3A3A3"><g><text style="font: 20px Roboto, sans-serif; white-space: pre;" font-weight="20px" font-size="Roboto," font-family="sans-serif"><tspan x="19.04" y="34" dominant-baseline="ideographic">Necesidad de IA </tspan><tspan x="30.7" y="58" dominant-baseline="ideographic">en el diseño de </tspan><tspan x="103.7" y="82" dominant-baseline="ideographic">cursos</tspan></text></g></g></g><g id="g-root-tx_mejorarl_djtug71etoy68-fill" data-item-order="1000000000" data-item-id="tx_mejorarl_djtug71etoy68" data-item-class="Label Stroke Indexed" data-item-index="none" data-renderer-id="0" transform="translate(446, 589.607421875)"><g id="tx_mejorarl_djtug71etoy68-fill" stroke="none" fill="#A3A3A3"><g><text style="font: 20px Roboto, sans-serif; white-space: pre;" font-weight="20px" font-size="Roboto," font-family="sans-serif"><tspan x="12" y="34" dominant-baseline="ideographic">Incorporación de </tspan><tspan x="12" y="58" dominant-baseline="ideographic">herramienta de </tspan><tspan x="12" y="82" dominant-baseline="ideographic">soporten estos </tspan><tspan x="12" y="106" dominant-baseline="ideographic">procesos</tspan></text></g></g></g><g id="g-root--1.cu_sy_8x54dj1etqdxl-stroke" data-item-order="999781681" data-item-id="-1.cu_sy_8x54dj1etqdxl" data-item-class="Part Fill Stroke" data-item-index="none" data-renderer-id="0" transform="translate(251.8978271484375, 59.83660888671875)"><g id="-1.cu_sy_8x54dj1etqdxl-stroke" fill="none" stroke-linecap="round" stroke-linejoin="round" stroke-miterlimit="4" stroke="#A8DD38" stroke-width="2"><g><path d="M 121.256822 176.22095C 117.385522 176.86265 113.298622 176.54105 109.529922 175.19685C 111.813522 171.83405 113.328322 168.05575 114.056022 164.11995C 115.223722 163.50985 116.338322 162.79355 117.267222 162.02415C 117.983722 161.44055 118.673722 160.75075 119.363622 160.00795C 119.367122 160.00875 119.370622 160.00955 119.374122 160.01035C 119.239122 160.14615 119.154222 160.23185 119.142622 160.24415C 124.795122 165.89765 131.540822 171.38835 137.862622 176.53395C 141.594322 179.57135 145.178222 182.48845 148.302322 185.24785C 142.203422 186.96535 135.526122 186.68755 129.731622 183.99725C 126.384222 182.43135 123.514922 179.64465 121.256822 176.22095ZM 183.683022 182.99805C 188.763022 185.54695 194.390722 186.84385 199.602122 186.46555C 202.060922 186.28015 204.413922 185.78595 206.627622 185.02565C 206.763922 184.01435 206.990022 183.02965 207.289822 182.09915C 209.533522 175.31035 214.994822 169.24315 221.320122 165.98465C 226.488822 163.32685 232.491022 162.91105 237.756822 164.45555C 240.317222 162.33655 243.861622 161.44835 247.499822 162.58325L 247.508022 162.56905C 247.729622 162.63855 247.948122 162.71615 248.163522 162.80155C 248.980522 162.11705 249.778522 161.42085 250.557122 160.72135C 251.840022 159.57075 253.005122 158.37195 254.054822 157.13315C 253.003022 157.13365 251.927922 157.06725 250.833522 156.93055C 245.234022 156.21425 240.297922 153.61435 236.688722 149.90025C 233.636822 151.06755 229.629522 150.98795 227.161522 149.95335C 222.411122 147.93705 219.943122 143.71895 219.810422 139.12935C 215.511322 138.73145 211.344822 137.29885 208.850222 135.28255C 207.051322 133.83915 205.521122 132.02485 204.263322 129.97135L 202.466922 129.86775C 197.074222 129.62895 192.319122 127.63825 188.520422 124.50615C 187.040922 127.85195 185.038222 130.86595 182.661222 133.40335C 182.661222 133.40345 182.661322 133.40335 182.661222 133.40335C 179.745122 146.15245 179.297822 160.75275 183.083022 179.71195C 183.299322 180.79435 183.499222 181.89025 183.683022 182.99805ZM 169.582522 141.20195C 164.832422 142.29305 159.757822 141.81965 154.857522 139.29745L 154.820622 139.43275C 153.617422 143.50415 151.559222 147.29745 148.564622 150.66615C 148.566322 150.66435 148.568022 150.66255 148.569722 150.66065C 150.084122 152.73615 151.768822 154.84385 153.548322 157.07015L 153.549322 157.07135C 163.938022 170.06845 167.283422 177.41465 168.302322 177.10495C 169.297822 176.80245 168.072422 169.19245 169.024822 152.40525C 169.232022 148.75355 169.444422 145.00775 169.563822 141.20635C 169.570122 141.20485 169.576322 141.20345 169.582522 141.20195ZM 143.836422 155.01615C 139.326722 158.37855 134.250122 160.20055 129.083922 160.67165C 129.094722 160.67075 129.105322 160.66975 129.116222 160.66875C 138.821322 168.33165 147.603122 171.19675 151.076422 172.33005C 151.871522 172.58945 152.388422 172.75805 152.574522 172.87275C 152.658922 168.47745 149.324422 163.40425 145.755022 157.97355C 145.115122 157.00005 144.467722 156.01495 143.831022 155.02025C 143.832922 155.01885 143.834622 155.01755 143.836422 155.01615ZM 256.856136 57.231434C 257.440036 57.549834 258.023836 57.868134 258.607636 58.213034L 258.607636 58.159934C 268.294036 64.049534 274.132436 73.440934 272.460636 84.954634C 270.894836 95.672434 264.154136 104.957734 255.635436 111.351334C 250.964736 114.853134 246.692036 116.949034 242.445936 117.559134C 241.251736 122.652834 237.377136 127.534234 232.998436 129.311634C 227.717336 131.460534 221.401236 129.523934 218.322836 124.987434C 214.085036 127.905734 209.011936 129.717534 204.233536 129.922634C 205.496836 131.995934 207.036936 133.827334 208.849836 135.282134C 211.344436 137.298334 215.510936 138.730934 219.810036 139.128834C 219.942736 143.718434 222.410836 147.936634 227.161136 149.952834C 229.629236 150.987434 233.636436 151.067034 236.688336 149.899734C 240.297536 153.613834 245.233636 156.213734 250.833136 156.930034C 261.873036 158.309534 270.949036 152.526134 274.054036 143.214334C 277.583536 142.710334 281.166236 141.171634 284.244636 139.659434C 291.834536 135.918834 297.062536 130.108834 298.601736 121.672534C 300.140936 113.183134 299.716336 104.401934 294.196436 97.451234L 294.249536 97.424734C 292.842936 95.620734 291.038436 93.843234 289.048036 92.171934C 293.665636 78.721534 283.315836 62.538634 271.108236 55.985834C 266.984536 53.775534 261.778536 52.527334 256.472536 52.402634C 256.724136 54.014734 256.856136 55.629134 256.856136 57.231434ZM 247.499649 162.583008C 243.861496 161.448075 240.317062 162.336243 237.756637 164.455216C 232.490829 162.910691 226.488663 163.326523 221.3199 165.984299C 214.994614 169.242813 209.53334 175.310028 207.289719 182.098862C 206.909012 183.28006 206.647201 184.548935 206.537155 185.848557C 201.269241 189.982651 198.279068 197.249192 199.425491 204.102127C 200.357742 209.69542 204.793045 214.244065 210.190689 216.962845C 209.32521 221.821091 211.502029 227.28096 215.941177 230.355088C 221.291611 234.068863 229.989365 234.887528 234.581222 230.685013C 239.080398 232.089798 244.477188 231.646286 247.927627 229.094528C 253.182053 231.408798 260.712967 229.584671 265.394119 225.944901C 271.842728 220.939987 272.124222 213.47258 268.942001 207.242966C 277.325546 197.353623 271.763016 179.526017 260.804703 173.653595C 259.190109 172.797165 257.502273 172.29599 255.773971 172.093293C 254.543442 167.7668 251.525894 163.828369 247.507858 162.568802L 247.499649 162.583008ZM 258.704483 58.122198C 258.120083 57.777198 257.535683 57.458698 256.951183 57.140198C 256.951183 43.656398 247.600483 29.323198 236.363483 22.634398C 229.775483 18.706098 223.027983 18.599898 216.997783 20.909198C 210.675383 13.291398 199.704083 9.999998 189.529783 12.707398C 183.765183 14.246898 178.319483 18.148698 174.520683 23.191798C 168.065483 20.192498 160.574183 19.741298 155.314383 25.792998C 154.809583 26.376998 154.331483 27.040598 153.879883 27.757198C 134.965683 21.015298 112.412183 36.649098 107.577383 55.175998C 103.592683 70.438098 109.676083 85.806398 121.258283 94.777898C 120.992683 97.113698 120.992683 99.529098 121.364583 101.891398C 122.825583 111.101798 129.838683 114.525798 137.436283 113.994898C 138.498883 123.019498 144.236783 132.017598 151.648383 137.326098C 165.648083 147.385898 182.065083 139.104498 188.520283 124.505898C 192.319083 127.637998 197.074183 129.628698 202.466883 129.867598C 207.753283 130.106498 213.597483 128.221898 218.379183 124.930598C 221.460683 129.469398 227.783083 131.407098 233.069483 129.257098C 237.452683 127.478698 241.331183 122.594798 242.526583 117.498598C 246.776883 116.888098 251.053883 114.791198 255.729283 111.287598C 264.256583 104.890798 271.003983 95.600798 272.571283 84.877398C 274.244883 73.357798 268.400683 63.961698 258.704483 58.069198L 258.704483 58.122198ZM 109.555904 49.909326C 108.768904 51.640626 108.130304 53.417326 107.659704 55.221626C 103.679004 70.475926 109.756204 85.836426 121.326804 94.803326C 121.061504 97.137926 121.061504 99.552126 121.433004 101.913226C 122.892604 111.118926 129.898604 114.541226 137.488604 114.010626C 138.550104 123.030526 144.282304 132.024026 151.686404 137.329926C 152.733704 138.082826 153.794504 138.732926 154.863604 139.285226C 153.537204 143.859026 151.136604 148.085026 147.547004 151.756826C 139.612104 159.901326 129.103004 162.209426 119.363504 160.007526C 118.673604 160.750326 117.983604 161.440026 117.267004 162.023726C 116.338204 162.793026 115.223604 163.509326 114.055904 164.119526C 113.020904 169.717226 110.393704 174.996526 106.227204 179.214726C 105.006404 180.435026 103.679504 181.522726 102.299504 182.530926C 100.282604 192.373326 94.868904 200.676926 83.563604 203.515626C 71.594904 206.513426 59.838504 202.825826 51.691304 195.132326C 51.492304 195.172126 51.306504 195.218526 51.120804 195.265026C 50.935004 195.311426 50.749204 195.357826 50.550204 195.397626C 37.944604 197.785226 26.506704 190.012126 19.872104 179.824926C 12.680304 168.788726 10.000004 153.481226 16.608004 141.543026C 18.757504 137.669726 21.756304 134.459726 25.285904 132.098626C 23.826304 128.013126 23.640604 123.476626 25.047104 119.603326C 26.612804 115.252526 29.956604 111.007826 34.043504 108.248726C 29.532004 96.177926 31.044704 82.223426 40.837304 71.850426C 51.558704 60.495926 68.755404 55.110426 83.271704 59.434726C 87.570904 55.747126 92.852004 53.014626 97.920704 51.449426C 101.805904 50.242926 105.729104 49.756826 109.555904 49.909326ZM 101.479486 217.986634C 102.161886 221.774234 104.514186 224.377034 107.925986 226.046434C 109.308686 226.728634 110.906786 227.410734 112.486986 227.644134C 113.869686 231.826634 117.945786 234.411534 122.901886 233.801234C 125.415786 233.496034 127.624486 232.329234 129.240586 230.659834C 130.623186 231.180434 132.400886 231.144534 133.514286 230.677734C 135.633186 229.780234 136.746486 227.877434 136.818286 225.831034C 138.739686 225.651534 140.607186 225.005334 141.738386 224.107834C 145.293786 221.253634 146.514886 215.168334 145.239986 210.896034C 145.527286 210.429334 145.778686 209.962634 145.994186 209.477934C 147.735986 205.385134 147.035586 200.484634 144.826986 196.714934C 142.546486 192.801734 138.595986 190.073234 134.070886 189.588534C 132.562586 189.426934 130.946486 189.498734 129.438086 189.893634C 125.505586 186.303534 118.268986 186.195834 113.833686 188.583234C 108.356986 191.509234 103.724086 198.761334 105.789086 204.792834C 104.891286 205.546734 104.101186 206.354534 103.454786 207.144334C 100.994686 210.267734 100.797186 214.199034 101.479486 218.004534L 101.479486 217.986634Z"></path></g></g></g><g id="g-root--1.cu_1_sy_1q7lmxz1etqcxu-stroke" data-item-order="999781683" data-item-id="-1.cu_1_sy_1q7lmxz1etqcxu" data-item-class="Part Fill Stroke" data-item-index="none" data-renderer-id="0" transform="translate(294.3265686035156, 183.2392578125)"><g id="-1.cu_1_sy_1q7lmxz1etqcxu-stroke" fill="none" stroke-linecap="round" stroke-linejoin="round" stroke-miterlimit="4" stroke="#F99539" stroke-width="2"><g><path d="M 76.713511 36.8409C 82.366011 42.4944 89.111711 47.9852 95.433511 53.1307C 105.155211 61.0437 113.873911 68.1403 116.071111 73.7569C 120.506511 85.1197 118.010511 99.3367 110.217211 118.4722C 110.177511 118.3529 107.113811 109.2531 97.948911 101.5145C 96.919711 101.9829 95.666511 102.3084 94.389311 102.4277C 94.360211 103.2583 94.159511 104.0651 93.789611 104.7907C 110.145511 125.2356 98.624011 129.989 95.433511 148.296C 92.243011 166.603 98.945611 173.6417 90.079111 179.5161C 81.212711 185.3905 40.608511 171.6925 12.872311 188.3577C 10.000011 190.0835 11.135611 192.0276 14.194311 190.9066C 24.951711 186.9643 43.301911 182.2417 63.769811 189.9066C 47.541111 198.9175 41.404111 221.7063 14.824511 227.5946C 12.999111 227.999 13.479811 230.984 15.415511 230.984C 44.273911 230.984 56.722011 197.3013 84.534311 194.7451C 92.044911 193.9668 91.112111 195.2643 86.959011 197.7826C 81.302511 201.2126 75.672311 206.9073 71.265411 212.7063C 68.607811 214.9322 71.121811 216.5657 72.935411 215.3271C 87.139111 205.526 108.581711 190.6923 103.265311 204.6434C 97.948911 218.5946 71.265411 225.4132 62.051511 232.5143C 52.837511 239.6153 48.211811 246.8882 46.608511 257.8367C 46.282111 260.0655 49.336211 259.9693 50.328411 257.8367C 56.678411 244.1882 65.976911 235.5479 81.617211 232.5143L 81.653111 232.5143C 85.459911 232.1552 86.716811 232.3348 86.483511 236.3916C 85.251811 257.7719 65.608011 266.7631 59.968011 273.8413C 57.056011 277.4958 53.715311 281.7805 51.887111 286.8048C 51.079111 288.546 53.054311 289.8026 54.634511 288.187C 55.927311 286.9304 62.051511 276.7943 71.850111 271.7086C 81.648811 266.6229 85.357111 263.0918 90.079111 257.9759C 102.918211 274.3469 105.143411 288.5981 99.937911 311.4691C 100.117511 314.0899 102.775111 314.3053 103.224111 311.4691C 111.070511 296.7363 111.635011 276.635 105.143411 262.9634C 96.144411 244.0114 89.157711 229.2974 114.913211 216.4917C 117.086011 215.4147 119.438311 217.5687 118.522511 219.8305C 113.728111 231.678 111.052511 250.6699 115.523711 263.0918C 116.206111 264.9767 118.001811 264.4382 117.840211 262.6431C 116.690911 249.3236 118.977011 238.0146 124.489711 225.4132C 124.723511 231.305 127.773811 235.0178 130.113611 239.255C 133.704811 245.7585 150.208411 271.0918 147.006511 294.6073C 146.747211 296.5118 148.861011 297.0335 149.630011 295.3677C 157.013811 279.3736 145.157211 250.5763 141.033511 240.5539C 139.303911 236.351 134.766311 227.7546 135.516411 219.5074C 136.351211 210.4114 150.233111 222.9025 156.543411 238.1403C 171.670811 274.6689 180.997011 282.0813 204.253611 288.5981C 206.559811 289.2444 207.447211 286.2468 205.525811 285.3677C 185.923411 276.399 175.909411 261.5465 173.700711 248.4067C 196.868411 247.7089 201.502911 255.3087 206.181511 261.6565C 207.430011 263.3504 209.748211 261.6036 209.105511 260.0655C 206.923111 254.8423 202.589811 247.0512 193.537511 243.864C 184.611511 240.7212 167.657111 244.3474 163.423211 228.2427C 162.784211 225.8121 174.706011 227.2414 180.798211 217.2529C 182.252011 214.8692 179.519811 213.9947 178.466311 214.8692C 165.939611 225.2677 150.493911 212.296 148.007411 197.7489C 147.648411 195.6487 149.803111 194.0331 151.724611 194.9486C 163.339211 200.4348 171.681911 198.172 178.466311 196.3318C 181.982011 195.3782 185.079511 194.5381 187.997011 194.9486C 197.439511 196.2893 200.492211 204.2752 205.525811 213.3271C 213.234711 227.1905 223.791711 227.6591 235.206311 226.3842C 238.285311 226.0403 237.576611 222.1274 235.031511 222.4132C 231.078511 222.8572 217.899511 221.3704 212.777011 210.0336C 209.089511 201.8726 206.181511 191.7197 198.034811 187.3577C 209.473211 186.1549 232.732111 187.8319 242.697911 193.7197C 244.655211 194.8865 245.750711 193.1452 244.206311 191.9066C 232.678111 182.6441 204.253611 176.8586 189.307811 182.2417C 174.362111 187.6248 150.422411 180.0403 144.630011 165.6799C 137.141011 147.1134 143.952211 102.5453 167.720111 93.5195C 166.418911 92.853 164.356111 91.7422 162.515411 89.9333C 152.359811 94.8207 143.906711 105.8841 141.768511 109.4776C 146.206511 92.6414 144.026811 79.4053 141.696611 62.513C 141.405711 60.4042 141.058511 58.3329 140.653911 56.3088C 136.868811 37.3495 137.316211 22.7491 140.232311 10C 138.268411 12.0965 136.049011 13.8677 133.658111 15.2319C 133.655711 15.2517 133.653211 15.2715 133.650711 15.2913C 133.649911 15.2735 133.648911 15.2556 133.648011 15.2377C 131.586211 16.4129 129.397311 17.2855 127.134711 17.8031C 127.015311 21.6045 126.802811 25.3503 126.595711 29.0021C 124.668511 62.9718 131.658511 59.3632 111.120211 33.6681C 109.340311 31.4414 107.655211 29.3333 106.140611 27.2574C 104.713111 28.8642 103.125511 30.3325 101.401911 31.617C 105.589911 38.1602 110.244911 44.2863 110.145511 49.4695C 109.146111 48.8539 98.613911 46.6826 86.687111 37.2656C 83.432411 37.566 80.141711 37.3299 76.934611 36.6048C 76.860911 36.6841 76.787311 36.7629 76.713511 36.8409Z"></path></g></g></g><g id="g-root--1.line_sy_1hbymp31etqdqj-stroke" data-item-order="999781686" data-item-id="-1.line_sy_1hbymp31etqdqj" data-item-class="Curve Stroke Part" data-item-index="none" data-renderer-id="0" transform="translate(194, 253.607421875)"><g id="-1.line_sy_1hbymp31etqdqj-stroke" fill="none" stroke-linecap="round" stroke-linejoin="round" stroke-miterlimit="4" stroke="#A3A3A3" stroke-width="2" stroke-dasharray="5.0, 7.0"><style>.fillAsStrokeColor-92r4on1f3ep6y { fill:#A3A3A3; }</style><g><path d="M 10 10L 46 10L 46 118L 118 118"></path><path d="M 8.5 10C 8.5 10.828427 9.171573 11.5 10 11.5C 10.828427 11.5 11.5 10.828427 11.5 10C 11.5 9.171573 10.828427 8.5 10 8.5C 9.171573 8.5 8.5 9.171573 8.5 10Z" stroke-dasharray="none" class="fillAsStrokeColor-92r4on1f3ep6y"></path><path d="M 116.5 118C 116.500003 118.82843 117.171576 119.500003 118.000003 119.500003C 118.82843 119.500003 119.500003 118.82843 119.500003 118.000003C 119.500003 117.171576 118.82843 116.500003 118.000003 116.500003C 117.171576 116.500003 116.500003 117.171576 116.500003 118.000003Z" stroke-dasharray="none" class="fillAsStrokeColor-92r4on1f3ep6y"></path></g></g></g><g id="g-root--1.line_1_sy_1cwrlnr1etqbd0-stroke" data-item-order="999781688" data-item-id="-1.line_1_sy_1cwrlnr1etqbd0" data-item-class="Curve Stroke Part" data-item-index="none" data-renderer-id="0" transform="translate(194, 397.607421875)"><g id="-1.line_1_sy_1cwrlnr1etqbd0-stroke" fill="none" stroke-linecap="round" stroke-linejoin="round" stroke-miterlimit="4" stroke="#A3A3A3" stroke-width="2" stroke-dasharray="5.0, 7.0"><style>.fillAsStrokeColor-4mxmk71f3epz7 { fill:#A3A3A3; }</style><g><path d="M 10 46L 130 46L 130 10"></path><path d="M 8.5 46C 8.5 46.828428 9.171573 47.500001 10 47.500001C 10.828427 47.500001 11.5 46.828428 11.5 46.000001C 11.5 45.171574 10.828427 44.500001 10 44.500001C 9.171573 44.500001 8.5 45.171574 8.5 46.000001Z" stroke-dasharray="none" class="fillAsStrokeColor-4mxmk71f3epz7"></path><path d="M 128.5 10C 128.500004 10.828427 129.171576 11.5 130.000004 11.5C 130.828431 11.5 131.500004 10.828427 131.500004 10C 131.500004 9.171573 130.828431 8.5 130.000004 8.5C 129.171576 8.5 128.500004 9.171573 128.500004 10Z" stroke-dasharray="none" class="fillAsStrokeColor-4mxmk71f3epz7"></path></g></g></g><g id="g-root--1.line_2_sy_1414lev1etqc5p-stroke" data-item-order="999781690" data-item-id="-1.line_2_sy_1414lev1etqc5p" data-item-class="Curve Stroke Part" data-item-index="none" data-renderer-id="0" transform="translate(518, 253.607421875)"><g id="-1.line_2_sy_1414lev1etqc5p-stroke" fill="none" stroke-linecap="round" stroke-linejoin="round" stroke-miterlimit="4" stroke="#A3A3A3" stroke-width="2" stroke-dasharray="5.0, 7.0"><style>.fillAsStrokeColor-1useoaf1f3eqks { fill:#A3A3A3; }</style><g><path d="M 118 10L 82 10L 82 118L 10 118"></path><path d="M 116.5 10C 116.500003 10.828427 117.171576 11.5 118.000003 11.5C 118.82843 11.5 119.500003 10.828427 119.500003 10C 119.500003 9.171573 118.82843 8.5 118.000003 8.5C 117.171576 8.5 116.500003 9.171573 116.500003 10Z" stroke-dasharray="none" class="fillAsStrokeColor-1useoaf1f3eqks"></path><path d="M 8.5 118C 8.5 118.82843 9.171573 119.500003 10 119.500003C 10.828427 119.500003 11.5 118.82843 11.5 118.000003C 11.5 117.171576 10.828427 116.500003 10 116.500003C 9.171573 116.500003 8.5 117.171576 8.5 118.000003Z" stroke-dasharray="none" class="fillAsStrokeColor-1useoaf1f3eqks"></path></g></g></g><g id="g-root--1.line_3_sy_zlb3af1etqcxy-stroke" data-item-order="999781692" data-item-id="-1.line_3_sy_zlb3af1etqcxy" data-item-class="Curve Stroke Part" data-item-index="none" data-renderer-id="0" transform="translate(362.1445007324219, 439.607421875)"><g id="-1.line_3_sy_zlb3af1etqcxy-stroke" fill="none" stroke-linecap="round" stroke-linejoin="round" stroke-miterlimit="4" stroke="#A3A3A3" stroke-width="2" stroke-dasharray="5.0, 7.0"><style>.fillAsStrokeColor-1useoaf1f3eqkt { fill:#A3A3A3; }</style><g><path d="M 33.855499 135.607391L 33.855499 63.607391L 10 63.999908L 10 10"></path><path d="M 32.355 135.607C 32.355001 136.435431 33.026574 137.107004 33.855001 137.107004C 34.683428 137.107004 35.355001 136.435431 35.355001 135.607004C 35.355001 134.778577 34.683428 134.107004 33.855001 134.107004C 33.026574 134.107004 32.355001 134.778577 32.355001 135.607004Z" stroke-dasharray="none" class="fillAsStrokeColor-1useoaf1f3eqkt"></path><path d="M 8.5 10C 8.5 10.828427 9.171573 11.5 10 11.5C 10.828427 11.5 11.5 10.828427 11.5 10C 11.5 9.171573 10.828427 8.5 10 8.5C 9.171573 8.5 8.5 9.171573 8.5 10Z" stroke-dasharray="none" class="fillAsStrokeColor-1useoaf1f3eqkt"></path></g></g></g><g id="g-root--1.line_4_sy_zlb3af1etqcxz-stroke" data-item-order="999781694" data-item-id="-1.line_4_sy_zlb3af1etqcxz" data-item-class="Curve Stroke Part" data-item-index="none" data-renderer-id="0" transform="translate(505.919921875, 397.607421875)"><g id="-1.line_4_sy_zlb3af1etqcxz-stroke" fill="none" stroke-linecap="round" stroke-linejoin="round" stroke-miterlimit="4" stroke="#A3A3A3" stroke-width="2" stroke-dasharray="5.0, 7.0"><style>.fillAsStrokeColor-1qd7n931f3eo7a { fill:#A3A3A3; }</style><g><path d="M 130 46L 10 46L 10 10"></path><path d="M 128.5 46C 128.500004 46.828428 129.171576 47.500001 130.000004 47.500001C 130.828431 47.500001 131.500004 46.828428 131.500004 46.000001C 131.500004 45.171574 130.828431 44.500001 130.000004 44.500001C 129.171576 44.500001 128.500004 45.171574 128.500004 46.000001Z" stroke-dasharray="none" class="fillAsStrokeColor-1qd7n931f3eo7a"></path><path d="M 8.5 10C 8.5 10.828427 9.171573 11.5 10 11.5C 10.828427 11.5 11.5 10.828427 11.5 10C 11.5 9.171573 10.828427 8.5 10 8.5C 9.171573 8.5 8.5 9.171573 8.5 10Z" stroke-dasharray="none" class="fillAsStrokeColor-1qd7n931f3eo7a"></path></g></g></g><g id="g-root--1.line_5_sy_v5hl5z1etqdq8-stroke" data-item-order="999781696" data-item-id="-1.line_5_sy_v5hl5z1etqdq8" data-item-class="Curve Stroke Part" data-item-index="none" data-renderer-id="0" transform="translate(434.00006103515625, 439.607421875)"><g id="-1.line_5_sy_v5hl5z1etqdq8-stroke" fill="none" stroke-linecap="round" stroke-linejoin="round" stroke-miterlimit="4" stroke="#A3A3A3" stroke-width="2" stroke-dasharray="5.0, 7.0"><style>.fillAsStrokeColor-1qd7n931f3eo7b { fill:#A3A3A3; }</style><g><path d="M 10 135.607391L 10 63.607391L 33.919891 63.999969L 33.919891 10"></path><path d="M 8.5 135.607C 8.5 136.435431 9.171573 137.107004 10 137.107004C 10.828427 137.107004 11.5 136.435431 11.5 135.607004C 11.5 134.778577 10.828427 134.107004 10 134.107004C 9.171573 134.107004 8.5 134.778577 8.5 135.607004Z" stroke-dasharray="none" class="fillAsStrokeColor-1qd7n931f3eo7b"></path><path d="M 32.42 10C 32.420001 10.828427 33.091574 11.5 33.920001 11.5C 34.748428 11.5 35.420001 10.828427 35.420001 10C 35.420001 9.171573 34.748428 8.5 33.920001 8.5C 33.091574 8.5 32.420001 9.171573 32.420001 10Z" stroke-dasharray="none" class="fillAsStrokeColor-1qd7n931f3eo7b"></path></g></g></g><g id="g-root-tx_necesida_dhyf6v1etoz5w-stroke" data-item-order="1000000000" data-item-id="tx_necesida_dhyf6v1etoz5w" data-item-class="Label Stroke Title ColorFillGray ColorStrokeGray" data-item-index="none" data-renderer-id="0" transform="translate(128, 2)"></g><g id="g-root-tx_renovaci_v48mzr1etqbk0-stroke" data-item-order="1000000000" data-item-id="tx_renovaci_v48mzr1etqbk0" data-item-class="Label Stroke Indexed ColorFillGray ColorStrokeGray" data-item-index="none" data-renderer-id="0" transform="translate(62, 217.607421875)"></g><g id="g-root-tx_integrac_vcct471etoxz7-stroke" data-item-order="1000000000" data-item-id="tx_integrac_vcct471etoxz7" data-item-class="Label Stroke Indexed ColorFillGray ColorStrokeGray" data-item-index="none" data-renderer-id="0" transform="translate(638, 217.607421875)"></g><g id="g-root-tx_necesida_1d30civ1etoyru-stroke" data-item-order="1000000000" data-item-id="tx_necesida_1d30civ1etoyru" data-item-class="Label Stroke Indexed" data-item-index="none" data-renderer-id="0" transform="translate(74, 277.607421875)"></g><g id="g-root-tx_alineare_74dwn1etoxl1-stroke" data-item-order="1000000000" data-item-id="tx_alineare_74dwn1etoxl1" data-item-class="Label Stroke Indexed" data-item-index="none" data-renderer-id="0" transform="translate(638, 277.607421875)"></g><g id="g-root-tx_actualiz_i0waqv1etozk4-stroke" data-item-order="1000000000" data-item-id="tx_actualiz_i0waqv1etozk4" data-item-class="Label Stroke Indexed ColorFillGray ColorStrokeGray" data-item-index="none" data-renderer-id="0" transform="translate(638, 397.607421875)"></g><g id="g-root-tx_brechain_13z965j1etqd5b-stroke" data-item-order="1000000000" data-item-id="tx_brechain_13z965j1etqd5b" data-item-class="Label Stroke Indexed ColorFillGray ColorStrokeGray" data-item-index="none" data-renderer-id="0" transform="translate(14, 421.607421875)"></g><g id="g-root-tx_discrepa_8zt5z1etowld-stroke" data-item-order="1000000000" data-item-id="tx_discrepa_8zt5z1etowld" data-item-class="Label Stroke Indexed" data-item-index="none" data-renderer-id="0" transform="translate(2, 457.607421875)"></g><g id="g-root-tx_losprofe_1d1recn1etowlq-stroke" data-item-order="1000000000" data-item-id="tx_losprofe_1d1recn1etowlq" data-item-class="Label Stroke Indexed" data-item-index="none" data-renderer-id="0" transform="translate(638, 457.607421875)"></g><g id="g-root-tx_introduc_1uljpt31etqd59-stroke" data-item-order="1000000000" data-item-id="tx_introduc_1uljpt31etqd59" data-item-class="Label Stroke Indexed ColorFillGray ColorStrokeGray" data-item-index="none" data-renderer-id="0" transform="translate(218, 505.607421875)"></g><g id="g-root-tx_soportep_1q5q7on1etqdxi-stroke" data-item-order="1000000000" data-item-id="tx_soportep_1q5q7on1etqdxi" data-item-class="Label Stroke Indexed ColorFillGray ColorStrokeGray" data-item-index="none" data-renderer-id="0" transform="translate(446, 505.607421875)"></g><g id="g-root-tx_necesida_mfgup31etowlr-stroke" data-item-order="1000000000" data-item-id="tx_necesida_mfgup31etowlr" data-item-class="Label Stroke Indexed" data-item-index="none" data-renderer-id="0" transform="translate(218, 589.607421875)"></g><g id="g-root-tx_mejorarl_djtug71etoy68-stroke" data-item-order="1000000000" data-item-id="tx_mejorarl_djtug71etoy68" data-item-class="Label Stroke Indexed" data-item-index="none" data-renderer-id="0" transform="translate(446, 589.607421875)"></g></g></g></svg>